<?xml version="1.0" encoding="UTF-8"?><svg xmlns="http://www.w3.org/2000/svg" xmlns:xlink="http://www.w3.org/1999/xlink" viewBox="0 0 1124 4049.41"><defs><style>.cls-1{opacity:.96;}.cls-1,.cls-2,.cls-3,.cls-4,.cls-5,.cls-6,.cls-7,.cls-8,.cls-9,.cls-10,.cls-11,.cls-12,.cls-13,.cls-14,.cls-15,.cls-16,.cls-17,.cls-18,.cls-19,.cls-20,.cls-21,.cls-22,.cls-23,.cls-24,.cls-25,.cls-26,.cls-27,.cls-28,.cls-29,.cls-30,.cls-31,.cls-32,.cls-33,.cls-34,.cls-35,.cls-36,.cls-37,.cls-38,.cls-39,.cls-40,.cls-41,.cls-42,.cls-43,.cls-44,.cls-45{fill:#fff;}.cls-2{opacity:.03;}.cls-46{clip-path:url(#clippath-2);}.cls-46,.cls-47,.cls-48,.cls-49,.cls-50,.cls-51,.cls-52{fill:none;}.cls-3{opacity:.92;}.cls-4{opacity:.34;}.cls-5{opacity:.12;}.cls-6{opacity:.47;}.cls-7{opacity:.54;}.cls-53{fill:url(#_未命名漸層_61);}.cls-8,.cls-51{opacity:.4;}.cls-9{opacity:.67;}.cls-10{opacity:0;}.cls-11{opacity:.23;}.cls-12{opacity:.18;}.cls-13{opacity:0;}.cls-14{opacity:.32;}.cls-54{fill:url(#_未命名漸層_51);}.cls-15{opacity:.17;}.cls-16{opacity:.26;}.cls-17{opacity:.1;}.cls-55{fill:#8700f0;}.cls-18{opacity:.11;}.cls-19{opacity:.94;}.cls-20{opacity:.48;}.cls-21{opacity:.98;}.cls-22{opacity:.24;}.cls-56{fill:url(#_未命名漸層_68);}.cls-57{fill:#00cde6;}.cls-23{opacity:.19;}.cls-24{opacity:.7;}.cls-25{opacity:.89;}.cls-26{opacity:.72;}.cls-27{opacity:.16;}.cls-47{isolation:isolate;}.cls-28{opacity:.14;}.cls-29{opacity:.68;}.cls-48{clip-path:url(#clippath-3);}.cls-30{opacity:.08;}.cls-31{opacity:.22;}.cls-32{opacity:.46;}.cls-33{opacity:.79;}.cls-34{opacity:.15;}.cls-35{opacity:.13;}.cls-36{opacity:.87;}.cls-50{clip-path:url(#clippath);}.cls-51{mix-blend-mode:overlay;}.cls-37{opacity:.6;}.cls-52{clip-path:url(#clippath-1);}.cls-38{opacity:.06;}.cls-39{opacity:.36;}.cls-40{opacity:.07;}.cls-41{opacity:.27;}.cls-42{opacity:.05;}.cls-43{opacity:.65;}.cls-44{opacity:.81;}.cls-45{opacity:.51;}</style><clipPath id="clippath"><rect class="cls-49" x="0" y="3663.09" width="1124" height="386.32"/></clipPath><clipPath id="clippath-1"><path class="cls-49" d="m132.37,2615.92c0-29.54,24.03-53.57,53.57-53.57h122.75v-659.1H0v1155.67h132.37v-442.99Z"/></clipPath><linearGradient id="_未命名漸層_61" x1="15907.74" y1="3098.66" x2="17301.68" y2="2293.86" gradientTransform="translate(16337.34 480.76) rotate(-176.5) scale(1 -1)" gradientUnits="userSpaceOnUse"><stop offset="0" stop-color="#00cde6"/><stop offset=".34" stop-color="#007eb2"/><stop offset=".38" stop-color="#0076ad"/><stop offset=".38" stop-color="#0077ad"/><stop offset=".42" stop-color="#0091bf"/><stop offset=".47" stop-color="#00a7cd"/><stop offset=".52" stop-color="#00b8d8"/><stop offset=".59" stop-color="#00c4e0"/><stop offset=".68" stop-color="#00cbe4"/><stop offset=".93" stop-color="#00cde6"/></linearGradient><clipPath id="clippath-2"><rect class="cls-49" x="0" width="1124" height="1439.7"/></clipPath><linearGradient id="_未命名漸層_51" x1="1151.43" y1="478.89" x2="2545.38" y2="-325.91" gradientTransform="translate(-462.05 480.76) rotate(-3.5)" gradientUnits="userSpaceOnUse"><stop offset="0" stop-color="#00cde6"/><stop offset=".09" stop-color="#00c9e3"/><stop offset=".17" stop-color="#00bedc"/><stop offset=".24" stop-color="#00acd0"/><stop offset=".32" stop-color="#0092bf"/><stop offset=".38" stop-color="#0076ad"/><stop offset=".38" stop-color="#0077ad"/><stop offset=".42" stop-color="#0091bf"/><stop offset=".47" stop-color="#00a7cd"/><stop offset=".52" stop-color="#00b8d8"/><stop offset=".58" stop-color="#00c4e0"/><stop offset=".68" stop-color="#00cbe4"/><stop offset=".93" stop-color="#00cde6"/></linearGradient><clipPath id="clippath-3"><rect class="cls-49" x="0" y="2898.68" width="1124" height="1150.74"/></clipPath><linearGradient id="_未命名漸層_68" x1="1598.95" y1="3454.82" x2="465.65" y2="4415.19" gradientTransform="translate(380.42 -530.71) rotate(2.47) scale(1.01 1.05) skewX(-2.7)" gradientUnits="userSpaceOnUse"><stop offset=".03" stop-color="#0076ad"/><stop offset=".56" stop-color="#00cde6"/></linearGradient></defs><g class="cls-47"><g id="_設計"><rect class="cls-55" x="0" y="1070.12" width="1124" height="2979.29"/><g class="cls-50"><g class="cls-51"><rect class="cls-4" x="100.32" y="3913.05" width="49.04" height="49.04" transform="translate(-536.31 53.9) rotate(-7.85)"/><rect class="cls-33" x="165.91" y="3904.01" width="49.04" height="49.04" transform="translate(-534.46 62.76) rotate(-7.85)"/><rect class="cls-16" x="231.49" y="3894.97" width="49.04" height="49.04" transform="translate(-532.62 71.63) rotate(-7.85)"/><rect class="cls-13" x="297.08" y="3885.93" width="49.04" height="49.04" transform="translate(-530.77 80.5) rotate(-7.85)"/><rect class="cls-3" x="362.67" y="3876.9" width="49.04" height="49.04" transform="translate(-528.92 89.37) rotate(-7.85)"/><rect class="cls-22" x="428.26" y="3867.86" width="49.04" height="49.04" transform="translate(-527.07 98.24) rotate(-7.85)"/><rect class="cls-29" x="493.85" y="3858.82" width="49.04" height="49.04" transform="translate(-525.23 107.11) rotate(-7.85)"/><rect class="cls-23" x="559.43" y="3849.78" width="49.04" height="49.04" transform="translate(-523.38 115.97) rotate(-7.85)"/><rect class="cls-39" x="625.02" y="3840.75" width="49.04" height="49.04" transform="translate(-521.53 124.84) rotate(-7.85)"/><rect class="cls-14" x="690.61" y="3831.71" width="49.04" height="49.04" transform="translate(-519.68 133.71) rotate(-7.85)"/><rect class="cls-37" x="756.2" y="3822.67" width="49.04" height="49.04" transform="translate(-517.84 142.58) rotate(-7.85)"/><rect class="cls-42" x="821.79" y="3813.64" width="49.04" height="49.04" transform="translate(-515.99 151.45) rotate(-7.85)"/><rect class="cls-19" x="887.37" y="3804.6" width="49.04" height="49.04" transform="translate(-514.14 160.31) rotate(-7.85)"/><rect class="cls-27" x="952.96" y="3795.56" width="49.04" height="49.04" transform="translate(-512.29 169.18) rotate(-7.85)"/><rect class="cls-27" x="1018.55" y="3786.52" width="49.04" height="49.04" transform="translate(-510.45 178.05) rotate(-7.85)"/><rect class="cls-40" x="1084.14" y="3777.49" width="49.04" height="49.04" transform="translate(-508.6 186.92) rotate(-7.85)"/><rect class="cls-25" x="109.24" y="3977.82" width="49.04" height="49.04" transform="translate(-545.07 55.72) rotate(-7.85)"/><rect class="cls-40" x="174.83" y="3968.79" width="49.04" height="49.04" transform="translate(-543.22 64.59) rotate(-7.85)"/><rect class="cls-7" x="240.42" y="3959.75" width="49.04" height="49.04" transform="translate(-541.37 73.46) rotate(-7.85)"/><rect class="cls-18" x="306.01" y="3950.71" width="49.04" height="49.04" transform="translate(-539.53 82.33) rotate(-7.85)"/><rect class="cls-17" x="371.6" y="3941.68" width="49.04" height="49.04" transform="translate(-537.68 91.19) rotate(-7.85)"/><rect class="cls-9" x="437.18" y="3932.64" width="49.04" height="49.04" transform="translate(-535.83 100.06) rotate(-7.85)"/><rect class="cls-24" x="502.77" y="3923.6" width="49.04" height="49.04" transform="translate(-533.98 108.93) rotate(-7.85)"/><rect class="cls-43" x="568.36" y="3914.56" width="49.04" height="49.04" transform="translate(-532.14 117.8) rotate(-7.85)"/><rect class="cls-41" x="633.95" y="3905.53" width="49.04" height="49.04" transform="translate(-530.29 126.67) rotate(-7.85)"/><rect class="cls-30" x="699.54" y="3896.49" width="49.04" height="49.04" transform="translate(-528.44 135.53) rotate(-7.85)"/><rect class="cls-11" x="765.12" y="3887.45" width="49.04" height="49.04" transform="translate(-526.59 144.4) rotate(-7.85)"/><rect class="cls-31" x="830.71" y="3878.41" width="49.04" height="49.04" transform="translate(-524.75 153.27) rotate(-7.85)"/><rect class="cls-45" x="896.3" y="3869.38" width="49.04" height="49.04" transform="translate(-522.9 162.14) rotate(-7.85)"/><rect class="cls-26" x="961.89" y="3860.34" width="49.04" height="49.04" transform="translate(-521.05 171.01) rotate(-7.85)"/><rect class="cls-15" x="1027.48" y="3851.3" width="49.04" height="49.04" transform="translate(-519.2 179.88) rotate(-7.85)"/><rect class="cls-8" x="1093.06" y="3842.26" width="49.04" height="49.04" transform="translate(-517.36 188.74) rotate(-7.85)"/><rect class="cls-19" x="118.17" y="4042.6" width="49.04" height="49.04" transform="translate(-553.83 57.55) rotate(-7.85)"/><rect class="cls-6" x="183.76" y="4033.57" width="49.04" height="49.04" transform="translate(-551.98 66.41) rotate(-7.85)"/><rect class="cls-33" x="249.35" y="4024.53" width="49.04" height="49.04" transform="translate(-550.13 75.28) rotate(-7.85)"/><rect class="cls-21" x="314.93" y="4015.49" width="49.04" height="49.04" transform="translate(-548.29 84.15) rotate(-7.85)"/><rect class="cls-41" x="380.52" y="4006.45" width="49.04" height="49.04" transform="translate(-546.44 93.02) rotate(-7.85)"/><rect class="cls-1" x="446.11" y="3997.42" width="49.04" height="49.04" transform="translate(-544.59 101.89) rotate(-7.85)"/><rect class="cls-20" x="511.7" y="3988.38" width="49.04" height="49.04" transform="translate(-542.74 110.75) rotate(-7.85)"/><rect class="cls-44" x="577.29" y="3979.34" width="49.04" height="49.04" transform="translate(-540.9 119.62) rotate(-7.85)"/><rect class="cls-23" x="642.87" y="3970.3" width="49.04" height="49.04" transform="translate(-539.05 128.49) rotate(-7.85)"/><rect class="cls-25" x="708.46" y="3961.27" width="49.04" height="49.04" transform="translate(-537.2 137.36) rotate(-7.85)"/><rect class="cls-12" x="774.05" y="3952.23" width="49.04" height="49.04" transform="translate(-535.35 146.23) rotate(-7.85)"/><rect class="cls-28" x="839.64" y="3943.19" width="49.04" height="49.04" transform="translate(-533.51 155.1) rotate(-7.85)"/><rect class="cls-10" x="905.23" y="3934.15" width="49.04" height="49.04" transform="translate(-531.66 163.96) rotate(-7.85)"/><rect class="cls-32" x="970.81" y="3925.12" width="49.04" height="49.04" transform="translate(-529.81 172.83) rotate(-7.85)"/><rect class="cls-14" x="1036.4" y="3916.08" width="49.04" height="49.04" transform="translate(-527.96 181.7) rotate(-7.85)"/><rect class="cls-44" x="1101.99" y="3907.04" width="49.04" height="49.04" transform="translate(-526.12 190.57) rotate(-7.85)"/></g><g class="cls-51"><rect class="cls-4" x="606.91" y="3709.35" width="49.04" height="49.04" transform="translate(-503.76 121.14) rotate(-7.85)"/><rect class="cls-33" x="672.5" y="3700.31" width="49.04" height="49.04" transform="translate(-501.92 130.01) rotate(-7.85)"/><rect class="cls-16" x="738.08" y="3691.27" width="49.04" height="49.04" transform="translate(-500.07 138.88) rotate(-7.85)"/><rect class="cls-13" x="803.67" y="3682.24" width="49.04" height="49.04" transform="translate(-498.22 147.74) rotate(-7.85)"/><rect class="cls-3" x="869.26" y="3673.2" width="49.04" height="49.04" transform="translate(-496.37 156.61) rotate(-7.85)"/><rect class="cls-22" x="934.85" y="3664.16" width="49.04" height="49.04" transform="translate(-494.53 165.48) rotate(-7.85)"/><rect class="cls-29" x="1000.44" y="3655.12" width="49.04" height="49.04" transform="translate(-492.68 174.35) rotate(-7.85)"/><rect class="cls-23" x="1066.02" y="3646.09" width="49.04" height="49.04" transform="translate(-490.83 183.22) rotate(-7.85)"/><rect class="cls-25" x="615.83" y="3774.13" width="49.04" height="49.04" transform="translate(-512.52 122.96) rotate(-7.85)"/><rect class="cls-40" x="681.42" y="3765.09" width="49.04" height="49.04" transform="translate(-510.68 131.83) rotate(-7.85)"/><rect class="cls-7" x="747.01" y="3756.05" width="49.04" height="49.04" transform="translate(-508.83 140.7) rotate(-7.85)"/><rect class="cls-18" x="812.6" y="3747.02" width="49.04" height="49.04" transform="translate(-506.98 149.57) rotate(-7.85)"/><rect class="cls-17" x="878.19" y="3737.98" width="49.04" height="49.04" transform="translate(-505.13 158.44) rotate(-7.85)"/><rect class="cls-9" x="943.77" y="3728.94" width="49.04" height="49.04" transform="translate(-503.29 167.3) rotate(-7.85)"/><rect class="cls-24" x="1009.36" y="3719.9" width="49.04" height="49.04" transform="translate(-501.44 176.17) rotate(-7.85)"/><rect class="cls-43" x="1074.95" y="3710.87" width="49.04" height="49.04" transform="translate(-499.59 185.04) rotate(-7.85)"/><rect class="cls-19" x="624.76" y="3838.91" width="49.04" height="49.04" transform="translate(-521.28 124.79) rotate(-7.85)"/><rect class="cls-6" x="690.35" y="3829.87" width="49.04" height="49.04" transform="translate(-519.43 133.66) rotate(-7.85)"/><rect class="cls-33" x="755.94" y="3820.83" width="49.04" height="49.04" transform="translate(-517.59 142.52) rotate(-7.85)"/><rect class="cls-21" x="821.52" y="3811.79" width="49.04" height="49.04" transform="translate(-515.74 151.39) rotate(-7.85)"/><rect class="cls-41" x="887.11" y="3802.76" width="49.04" height="49.04" transform="translate(-513.89 160.26) rotate(-7.85)"/><rect class="cls-1" x="952.7" y="3793.72" width="49.04" height="49.04" transform="translate(-512.04 169.13) rotate(-7.85)"/><rect class="cls-20" x="1018.29" y="3784.68" width="49.04" height="49.04" transform="translate(-510.2 178) rotate(-7.85)"/><rect class="cls-44" x="1083.88" y="3775.64" width="49.04" height="49.04" transform="translate(-508.35 186.87) rotate(-7.85)"/></g><g class="cls-51"><rect class="cls-4" x="706.5" y="3961.79" width="24.44" height="24.44" transform="translate(-535.73 135.3) rotate(-7.85)"/><rect class="cls-33" x="739.19" y="3957.28" width="24.44" height="24.44" transform="translate(-534.8 139.72) rotate(-7.85)"/><rect class="cls-16" x="771.88" y="3952.78" width="24.44" height="24.44" transform="translate(-533.88 144.14) rotate(-7.85)"/><rect class="cls-13" x="804.57" y="3948.27" width="24.44" height="24.44" transform="translate(-532.96 148.56) rotate(-7.85)"/><rect class="cls-3" x="837.26" y="3943.77" width="24.44" height="24.44" transform="translate(-532.04 152.98) rotate(-7.85)"/><rect class="cls-22" x="869.95" y="3939.26" width="24.44" height="24.44" transform="translate(-531.12 157.4) rotate(-7.85)"/><rect class="cls-29" x="902.64" y="3934.76" width="24.44" height="24.44" transform="translate(-530.2 161.82) rotate(-7.85)"/><rect class="cls-23" x="935.33" y="3930.26" width="24.44" height="24.44" transform="translate(-529.28 166.24) rotate(-7.85)"/><rect class="cls-39" x="968.02" y="3925.75" width="24.44" height="24.44" transform="translate(-528.36 170.66) rotate(-7.85)"/><rect class="cls-14" x="1000.71" y="3921.25" width="24.44" height="24.44" transform="translate(-527.44 175.08) rotate(-7.85)"/><rect class="cls-37" x="1033.4" y="3916.74" width="24.44" height="24.44" transform="translate(-526.52 179.5) rotate(-7.85)"/><rect class="cls-42" x="1066.09" y="3912.24" width="24.44" height="24.44" transform="translate(-525.6 183.92) rotate(-7.85)"/><rect class="cls-19" x="1098.77" y="3907.73" width="24.44" height="24.44" transform="translate(-524.68 188.34) rotate(-7.85)"/><rect class="cls-25" x="710.95" y="3994.07" width="24.44" height="24.44" transform="translate(-540.09 136.21) rotate(-7.85)"/><rect class="cls-40" x="743.64" y="3989.57" width="24.44" height="24.44" transform="translate(-539.17 140.63) rotate(-7.85)"/><rect class="cls-7" x="776.33" y="3985.06" width="24.44" height="24.44" transform="translate(-538.25 145.05) rotate(-7.85)"/><rect class="cls-18" x="809.02" y="3980.56" width="24.44" height="24.44" transform="translate(-537.33 149.47) rotate(-7.85)"/><rect class="cls-17" x="841.71" y="3976.05" width="24.44" height="24.44" transform="translate(-536.41 153.89) rotate(-7.85)"/><rect class="cls-9" x="874.4" y="3971.55" width="24.44" height="24.44" transform="translate(-535.49 158.31) rotate(-7.85)"/><rect class="cls-24" x="907.09" y="3967.05" width="24.44" height="24.44" transform="translate(-534.57 162.73) rotate(-7.85)"/><rect class="cls-43" x="939.77" y="3962.54" width="24.44" height="24.44" transform="translate(-533.65 167.15) rotate(-7.85)"/><rect class="cls-41" x="972.46" y="3958.04" width="24.44" height="24.44" transform="translate(-532.72 171.57) rotate(-7.85)"/><rect class="cls-30" x="1005.15" y="3953.53" width="24.44" height="24.44" transform="translate(-531.8 175.99) rotate(-7.85)"/><rect class="cls-11" x="1037.84" y="3949.03" width="24.44" height="24.44" transform="translate(-530.88 180.41) rotate(-7.85)"/><rect class="cls-31" x="1070.53" y="3944.52" width="24.44" height="24.44" transform="translate(-529.96 184.83) rotate(-7.85)"/><rect class="cls-45" x="1103.22" y="3940.02" width="24.44" height="24.44" transform="translate(-529.04 189.25) rotate(-7.85)"/><rect class="cls-19" x="715.4" y="4026.36" width="24.44" height="24.44" transform="translate(-544.46 137.12) rotate(-7.85)"/><rect class="cls-6" x="748.09" y="4021.85" width="24.44" height="24.44" transform="translate(-543.54 141.54) rotate(-7.85)"/><rect class="cls-33" x="780.78" y="4017.35" width="24.44" height="24.44" transform="translate(-542.61 145.96) rotate(-7.85)"/><rect class="cls-21" x="813.47" y="4012.85" width="24.44" height="24.44" transform="translate(-541.69 150.38) rotate(-7.85)"/><rect class="cls-41" x="846.15" y="4008.34" width="24.44" height="24.44" transform="translate(-540.77 154.8) rotate(-7.85)"/><rect class="cls-1" x="878.84" y="4003.84" width="24.44" height="24.44" transform="translate(-539.85 159.22) rotate(-7.85)"/><rect class="cls-20" x="911.53" y="3999.33" width="24.44" height="24.44" transform="translate(-538.93 163.64) rotate(-7.85)"/><rect class="cls-44" x="944.22" y="3994.83" width="24.44" height="24.44" transform="translate(-538.01 168.06) rotate(-7.85)"/><rect class="cls-23" x="976.91" y="3990.32" width="24.44" height="24.44" transform="translate(-537.09 172.48) rotate(-7.85)"/><rect class="cls-25" x="1009.6" y="3985.82" width="24.44" height="24.44" transform="translate(-536.17 176.9) rotate(-7.85)"/><rect class="cls-12" x="1042.29" y="3981.32" width="24.44" height="24.44" transform="translate(-535.25 181.32) rotate(-7.85)"/><rect class="cls-28" x="1074.98" y="3976.81" width="24.44" height="24.44" transform="translate(-534.33 185.74) rotate(-7.85)"/><rect class="cls-10" x="1107.67" y="3972.31" width="24.44" height="24.44" transform="translate(-533.41 190.16) rotate(-7.85)"/></g><g class="cls-51"><rect class="cls-16" x="-7.88" y="3930.73" width="24.44" height="24.44" transform="translate(-538.17 37.5) rotate(-7.85)"/><rect class="cls-13" x="24.8" y="3926.23" width="24.44" height="24.44" transform="translate(-537.25 41.92) rotate(-7.85)"/><rect class="cls-3" x="57.49" y="3921.73" width="24.44" height="24.44" transform="translate(-536.33 46.34) rotate(-7.85)"/><rect class="cls-22" x="90.18" y="3917.22" width="24.44" height="24.44" transform="translate(-535.41 50.76) rotate(-7.85)"/><rect class="cls-29" x="122.87" y="3912.72" width="24.44" height="24.44" transform="translate(-534.49 55.18) rotate(-7.85)"/><rect class="cls-23" x="155.56" y="3908.21" width="24.44" height="24.44" transform="translate(-533.57 59.6) rotate(-7.85)"/><rect class="cls-39" x="188.25" y="3903.71" width="24.44" height="24.44" transform="translate(-532.65 64.02) rotate(-7.85)"/><rect class="cls-14" x="220.94" y="3899.2" width="24.44" height="24.44" transform="translate(-531.73 68.44) rotate(-7.85)"/><rect class="cls-37" x="253.63" y="3894.7" width="24.44" height="24.44" transform="translate(-530.81 72.86) rotate(-7.85)"/><rect class="cls-42" x="286.32" y="3890.2" width="24.44" height="24.44" transform="translate(-529.89 77.28) rotate(-7.85)"/><rect class="cls-19" x="319.01" y="3885.69" width="24.44" height="24.44" transform="translate(-528.97 81.7) rotate(-7.85)"/><rect class="cls-27" x="351.7" y="3881.19" width="24.44" height="24.44" transform="translate(-528.04 86.12) rotate(-7.85)"/><rect class="cls-27" x="384.39" y="3876.68" width="24.44" height="24.44" transform="translate(-527.12 90.54) rotate(-7.85)"/><rect class="cls-40" x="417.08" y="3872.18" width="24.44" height="24.44" transform="translate(-526.2 94.96) rotate(-7.85)"/><rect class="cls-35" x="449.77" y="3867.67" width="24.44" height="24.44" transform="translate(-525.28 99.38) rotate(-7.85)"/><rect class="cls-5" x="482.46" y="3863.17" width="24.44" height="24.44" transform="translate(-524.36 103.8) rotate(-7.85)"/><rect class="cls-35" x="515.15" y="3858.67" width="24.44" height="24.44" transform="translate(-523.44 108.22) rotate(-7.85)"/><rect class="cls-7" x="-3.44" y="3963.02" width="24.44" height="24.44" transform="translate(-542.54 38.41) rotate(-7.85)"/><rect class="cls-18" x="29.25" y="3958.52" width="24.44" height="24.44" transform="translate(-541.62 42.83) rotate(-7.85)"/><rect class="cls-17" x="61.94" y="3954.01" width="24.44" height="24.44" transform="translate(-540.7 47.25) rotate(-7.85)"/><rect class="cls-9" x="94.63" y="3949.51" width="24.44" height="24.44" transform="translate(-539.78 51.67) rotate(-7.85)"/><rect class="cls-24" x="127.32" y="3945" width="24.44" height="24.44" transform="translate(-538.86 56.09) rotate(-7.85)"/><rect class="cls-43" x="160.01" y="3940.5" width="24.44" height="24.44" transform="translate(-537.93 60.51) rotate(-7.85)"/><rect class="cls-41" x="192.7" y="3935.99" width="24.44" height="24.44" transform="translate(-537.01 64.93) rotate(-7.85)"/><rect class="cls-30" x="225.39" y="3931.49" width="24.44" height="24.44" transform="translate(-536.09 69.35) rotate(-7.85)"/><rect class="cls-11" x="258.08" y="3926.99" width="24.44" height="24.44" transform="translate(-535.17 73.77) rotate(-7.85)"/><rect class="cls-31" x="290.77" y="3922.48" width="24.44" height="24.44" transform="translate(-534.25 78.19) rotate(-7.85)"/><rect class="cls-45" x="323.46" y="3917.98" width="24.44" height="24.44" transform="translate(-533.33 82.61) rotate(-7.85)"/><rect class="cls-26" x="356.15" y="3913.47" width="24.44" height="24.44" transform="translate(-532.41 87.03) rotate(-7.85)"/><rect class="cls-15" x="388.84" y="3908.97" width="24.44" height="24.44" transform="translate(-531.49 91.45) rotate(-7.85)"/><rect class="cls-8" x="421.53" y="3904.46" width="24.44" height="24.44" transform="translate(-530.57 95.87) rotate(-7.85)"/><rect class="cls-2" x="454.22" y="3899.96" width="24.44" height="24.44" transform="translate(-529.65 100.29) rotate(-7.85)"/><rect class="cls-38" x="486.91" y="3895.46" width="24.44" height="24.44" transform="translate(-528.73 104.71) rotate(-7.85)"/><rect class="cls-36" x="519.6" y="3890.95" width="24.44" height="24.44" transform="translate(-527.81 109.13) rotate(-7.85)"/><rect class="cls-33" x="1.01" y="3995.31" width="24.44" height="24.44" transform="translate(-546.9 39.32) rotate(-7.85)"/><rect class="cls-21" x="33.7" y="3990.8" width="24.44" height="24.44" transform="translate(-545.98 43.74) rotate(-7.85)"/><rect class="cls-41" x="66.39" y="3986.3" width="24.44" height="24.44" transform="translate(-545.06 48.16) rotate(-7.85)"/><rect class="cls-1" x="99.08" y="3981.79" width="24.44" height="24.44" transform="translate(-544.14 52.58) rotate(-7.85)"/><rect class="cls-20" x="131.77" y="3977.29" width="24.44" height="24.44" transform="translate(-543.22 57) rotate(-7.85)"/><rect class="cls-44" x="164.46" y="3972.79" width="24.44" height="24.44" transform="translate(-542.3 61.42) rotate(-7.85)"/><rect class="cls-23" x="197.15" y="3968.28" width="24.44" height="24.44" transform="translate(-541.38 65.84) rotate(-7.85)"/><rect class="cls-25" x="229.84" y="3963.78" width="24.44" height="24.44" transform="translate(-540.46 70.26) rotate(-7.85)"/><rect class="cls-12" x="262.53" y="3959.27" width="24.44" height="24.44" transform="translate(-539.54 74.68) rotate(-7.85)"/><rect class="cls-28" x="295.22" y="3954.77" width="24.44" height="24.44" transform="translate(-538.62 79.1) rotate(-7.85)"/><rect class="cls-10" x="327.91" y="3950.26" width="24.44" height="24.44" transform="translate(-537.7 83.52) rotate(-7.85)"/><rect class="cls-32" x="360.6" y="3945.76" width="24.44" height="24.44" transform="translate(-536.78 87.94) rotate(-7.85)"/><rect class="cls-14" x="393.29" y="3941.26" width="24.44" height="24.44" transform="translate(-535.85 92.36) rotate(-7.85)"/><rect class="cls-44" x="425.98" y="3936.75" width="24.44" height="24.44" transform="translate(-534.93 96.78) rotate(-7.85)"/><rect class="cls-34" x="458.67" y="3932.25" width="24.44" height="24.44" transform="translate(-534.01 101.2) rotate(-7.85)"/><rect class="cls-33" x="491.36" y="3927.74" width="24.44" height="24.44" transform="translate(-533.09 105.62) rotate(-7.85)"/><rect class="cls-12" x="524.05" y="3923.24" width="24.44" height="24.44" transform="translate(-532.17 110.04) rotate(-7.85)"/></g></g><rect class="cls-55" x="0" y="0" width="1124" height="1070.12"/><g class="cls-52"><path class="cls-53" d="m-171.4,3083.88c139.01-79.52,252.95-187.12,329.5-311.14,37.4-60.6,65.09-123.81,82.31-187.87,17.96-66.84,24.14-133.08,18.35-196.88-3.94-43.46-13.48-85.45-28.35-124.82-15.59-41.27-37.05-79.7-63.78-114.22-27.31-35.27-60.14-66.47-97.58-92.74-37.11-26.04-79-47.37-124.49-63.4-81.17-28.6-176.01-39.41-276.41-50.85-90.02-10.26-183.11-20.86-254.23-44.16-78.34-25.66-90.79-54.16-94.89-63.53-23.63-54.08-11.01-102.31,3.75-133.25,29.44-61.73,92.71-109.91,173.58-132.19l-84.77-307.7c-42.71,11.77-83.81,27.61-122.14,47.09-37.78,19.2-73.25,42.1-105.41,68.08-31.94,25.8-60.82,54.79-85.86,86.17-25.13,31.5-46.49,65.54-63.48,101.16-29.71,62.31-45.77,128.02-47.73,195.31-2.03,69.99,11.29,138.32,39.6,203.12,27.27,62.4,69.86,115.58,126.61,158.06,44.93,33.64,97.72,60.13,161.38,80.98,102.03,33.42,216.48,46.46,317.45,57.97,78.35,8.93,159.36,18.16,206.47,34.76,63.44,22.35,96.93,62.58,102.41,122.98,5.11,56.32-14.21,123.19-54.4,188.3-48.65,78.83-123.48,148.59-216.38,201.74l158.49,277.04Z"/></g><g class="cls-46"><path class="cls-54" d="m1158.61,1369.23c-139.01-79.52-252.95-187.12-329.5-311.14-37.4-60.6-65.09-123.81-82.31-187.87-17.96-66.84-24.14-133.08-18.35-196.88,3.94-43.46,13.48-85.45,28.35-124.82,15.59-41.27,37.05-79.7,63.78-114.22,27.31-35.27,60.14-66.47,97.58-92.74,37.11-26.04,79-47.37,124.49-63.4,81.17-28.6,176.01-39.41,276.41-50.85,90.02-10.26,183.11-20.86,254.23-44.16,78.34-25.66,90.79-54.16,94.89-63.53,23.63-54.08,11.01-102.31-3.75-133.25-29.44-61.73-92.71-109.91-173.58-132.19l84.77-307.7c42.71,11.77,83.81,27.61,122.14,47.09,37.78,19.2,73.25,42.1,105.41,68.08,31.94,25.8,60.82,54.79,85.86,86.17,25.13,31.5,46.49,65.54,63.48,101.16,29.71,62.31,45.77,128.02,47.73,195.31,2.03,69.99-11.29,138.32-39.6,203.12-27.27,62.4-69.86,115.58-126.61,158.06-44.93,33.64-97.72,60.13-161.38,80.98-102.03,33.42-216.48,46.46-317.45,57.97-78.35,8.93-159.36,18.16-206.47,34.76-63.44,22.35-96.93,62.58-102.41,122.98-5.11,56.32,14.21,123.19,54.4,188.3,48.65,78.83,123.48,148.59,216.38,201.74l-158.49,277.04Z"/><path class="cls-57" d="m1515.79,1387.44c-40.84-7.44-79.89-21.45-116.54-41.83-44.99-25.03-85.71-59.4-121.03-102.16-54.61-66.13-92.06-154.82-117.83-279.11-19.52-94.14-30.27-198.51-40.65-299.44-9.81-95.29-19.95-193.82-36.97-274.67-19.04-90.43-40.7-130.43-55.52-148.06-17.72-21.08-45.7-37.17-78.8-45.32-33.97-8.36-70.15-7.24-99.26,3.08-5.13,1.82-21.05,8.73-58.04,33.55-32.3,21.68-71.25,50.68-112.49,81.39-93.86,69.89-210.67,156.87-343.66,229.16-75.62,41.1-147.54,72.85-219.87,97.06-84.58,28.31-169.23,45.62-251.59,51.44-3.28.23-6.51.47-9.68.7-39.42,2.88-84.1,6.15-132.43-5.68-63.43-15.51-116.47-52.98-157.66-111.37l260.69-183.9c-6.78-7.08-22.11-14.73-31.65-15.6,5.98.54,24.36-.8,37.79-1.78,3.42-.25,6.9-.5,10.44-.75C88.08,356.71,319.24,184.58,488.02,58.89c99.61-74.18,178.29-132.77,254.53-159.79,44.72-15.85,92.32-24.81,141.47-26.64,47.21-1.75,94.55,3.12,140.71,14.48,47.25,11.63,91.88,29.74,132.65,53.8,44.05,26.01,82.46,58.33,114.18,96.06,32.22,38.34,58.5,83.8,80.34,139,17.08,43.16,31.2,91.79,43.18,148.67,20.48,97.26,31.49,204.27,42.14,307.75,10.01,97.25,19.46,189.11,35.68,267.3,18.9,91.13,40.33,127.27,51.41,140.69,23.44,28.38,42.26,33.16,56.04,34.15,32.28,2.32,77.97-15.33,128.66-49.71,30.08-20.4,59.86-42.7,88.67-64.27,43.61-32.65,88.7-66.41,137.65-95.95,60.76-36.67,119.31-61.63,178.99-76.32,35.16-8.65,71.51-13.88,108.04-15.53,37.82-1.71,77.16.34,116.94,6.11,80.08,11.61,163.9,37.96,256.25,80.58,3.79,1.75,11.82,4.9,18.9,7.67,38.03,14.91,90.12,35.33,130.53,78.21l-232.27,218.9c8.22,8.72,14.55,12.4,14.82,12.55-5.05-2.9-20.4-8.91-29.57-12.51-11.72-4.59-23.83-9.34-36.14-15.02-149.2-68.85-226.24-62.1-271.21-51.03-28.38,6.98-57.09,19.59-90.36,39.67-35.31,21.31-72.2,48.93-111.26,78.17-31.74,23.77-64.56,48.34-100.81,72.93-112.95,76.61-224.21,111.57-330.7,103.91-14.08-1.01-27.98-2.77-41.67-5.27ZM-174.53,393.46s0,0,0,0c0,0,0,0,0,0Z"/></g><g class="cls-48"><path class="cls-56" d="m1193.33,4133.29c-26.49,35.02-57.95,65.37-93.9,90.56-44.14,30.92-94.51,53.56-149.71,67.3-85.36,21.25-182.42,16.07-305.45-16.28-93.18-24.51-191.18-61.94-285.96-98.13-89.47-34.17-181.99-69.5-262.15-90.31-89.65-23.28-135.75-21.12-158.63-15.21-27.36,7.06-55.28,26.06-78.64,53.48-23.97,28.14-40.58,62.68-45.57,94.76-.88,5.65-2.49,23.77,1.58,69.87,3.55,40.25,10.38,90.09,17.6,142.86,16.45,120.1,36.92,269.57,36.45,427.58-.27,89.84-7.05,171.94-20.73,251-16,92.44-41.81,179.93-76.72,260.05-1.39,3.19-2.75,6.33-4.09,9.42-16.62,38.39-35.47,81.89-69.49,121.96-44.66,52.59-103.78,85.41-175.72,97.56l-36.6-328.93c-9.6,3.15-23.85,14.08-29.26,22.66,3.39-5.37,11.14-23.28,16.8-36.35,1.44-3.33,2.91-6.72,4.41-10.16,104.72-240.32,64.21-536.11,34.63-752.09-17.46-127.46-31.25-228.14-18.16-312.16,7.68-49.28,22.87-98.13,45.17-145.18,21.42-45.2,48.79-87.51,81.35-125.74,33.34-39.14,71.15-72.87,112.38-100.25,44.55-29.58,91.98-51,140.96-63.64,49.76-12.85,102.96-16.86,162.65-12.26,46.68,3.6,96.78,12.46,153.16,27.1,96.42,25.03,196.9,63.41,294.07,100.52,91.32,34.87,177.57,67.81,254.97,88.17,90.21,23.73,132.75,20.03,150.08,15.72,36.63-9.12,50.04-24.65,57.63-37.16,17.77-29.3,24.32-80.32,18.43-143.64-3.5-37.58-8.82-75.75-13.98-112.66-7.8-55.88-15.87-113.67-18.3-173.15-3.02-73.84,3.28-140.27,19.27-203.1,9.42-37.01,22.46-73.57,38.77-108.69,16.88-36.35,37.86-72.41,62.34-107.2,49.29-70.03,113.51-136.85,196.34-204.3,3.4-2.77,10.11-8.89,16.02-14.28,31.76-28.98,75.27-68.67,133.05-87.15l81.54,318.14c11.75-3.76,18.1-8.04,18.36-8.22-5.03,3.43-17.85,15.13-25.51,22.12-9.79,8.93-19.9,18.16-30.94,27.15-133.82,108.97-165.31,184.5-177.36,231.83-7.6,29.87-10.37,62.62-8.72,103.05,1.76,42.91,8.36,90.19,15.34,140.24,5.68,40.68,11.55,82.74,15.76,128.03,13.13,141.11-9.95,261.68-68.58,358.34-7.75,12.78-16.08,25.05-24.96,36.8Zm-1706.19,1137.08s0,0,0,0c0,0,0,0,0,0Z"/></g></g></g></svg>