<?xml version="1.0" encoding="UTF-8"?><svg xmlns="http://www.w3.org/2000/svg" xmlns:xlink="http://www.w3.org/1999/xlink" viewBox="0 0 1123.95 3552.19"><defs><style>.cls-1{opacity:.96;}.cls-1,.cls-2,.cls-3,.cls-4,.cls-5,.cls-6,.cls-7,.cls-8,.cls-9,.cls-10,.cls-11,.cls-12,.cls-13,.cls-14,.cls-15,.cls-16,.cls-17,.cls-18,.cls-19,.cls-20,.cls-21,.cls-22,.cls-23,.cls-24,.cls-25,.cls-26,.cls-27,.cls-28,.cls-29,.cls-30,.cls-31,.cls-32,.cls-33,.cls-34,.cls-35,.cls-36,.cls-37,.cls-38,.cls-39,.cls-40,.cls-41,.cls-42,.cls-43,.cls-44,.cls-45{fill:#fff;}.cls-2{opacity:.03;}.cls-3{opacity:.92;}.cls-4{opacity:.34;}.cls-5{opacity:.12;}.cls-6{opacity:.47;}.cls-7{opacity:.54;}.cls-8,.cls-46{opacity:.4;}.cls-9{opacity:.67;}.cls-10{opacity:0;}.cls-11{opacity:.23;}.cls-12{opacity:.18;}.cls-13{opacity:0;}.cls-14{opacity:.32;}.cls-15{opacity:.17;}.cls-16{opacity:.26;}.cls-17{opacity:.1;}.cls-18{opacity:.11;}.cls-19{opacity:.94;}.cls-20{opacity:.48;}.cls-21{opacity:.98;}.cls-22{opacity:.24;}.cls-47{fill:url(#radial-gradient-3);}.cls-47,.cls-48,.cls-49{mix-blend-mode:color-dodge;}.cls-23{opacity:.19;}.cls-24{opacity:.7;}.cls-50{fill:url(#_未命名漸層_94);}.cls-25{opacity:.89;}.cls-26{opacity:.72;}.cls-27{opacity:.16;}.cls-51{isolation:isolate;}.cls-51,.cls-52,.cls-53,.cls-46,.cls-54{fill:none;}.cls-28{opacity:.14;}.cls-29{opacity:.68;}.cls-30{opacity:.08;}.cls-31{opacity:.22;}.cls-32{opacity:.46;}.cls-33{opacity:.79;}.cls-34{opacity:.15;}.cls-35{opacity:.13;}.cls-36{opacity:.87;}.cls-53{clip-path:url(#clippath);}.cls-46{mix-blend-mode:overlay;}.cls-37{opacity:.6;}.cls-54{clip-path:url(#clippath-1);}.cls-38{opacity:.06;}.cls-39{opacity:.36;}.cls-40{opacity:.07;}.cls-41{opacity:.27;}.cls-48{fill:url(#radial-gradient);opacity:.5;}.cls-42{opacity:.05;}.cls-49{fill:url(#radial-gradient-2);}.cls-43{opacity:.65;}.cls-44{opacity:.81;}.cls-45{opacity:.51;}</style><linearGradient id="_未命名漸層_94" x1="1087.24" y1="3579.47" x2="41.59" y2="4.36" gradientUnits="userSpaceOnUse"><stop offset="0" stop-color="#12054e"/><stop offset="0" stop-color="#2d0075"/><stop offset=".15" stop-color="#32007c"/><stop offset=".37" stop-color="#420092"/><stop offset=".64" stop-color="#5c00b6"/><stop offset=".95" stop-color="#8000e7"/><stop offset="1" stop-color="#8700f0"/></linearGradient><clipPath id="clippath"><rect class="cls-52" width="1124" height="679.52" transform="translate(1124 679.52) rotate(180)"/></clipPath><clipPath id="clippath-1"><rect class="cls-52" width="1124" height="2031.23"/></clipPath><radialGradient id="radial-gradient" cx="44.25" cy="1618.88" fx="44.25" fy="1618.88" r="993.56" gradientTransform="translate(507.3 -871.88) rotate(-19.51) scale(.95 .96) skewX(-19.75)" gradientUnits="userSpaceOnUse"><stop offset="0" stop-color="#f945c0"/><stop offset=".21" stop-color="#ca389c"/><stop offset=".67" stop-color="#561742"/><stop offset="1" stop-color="#000"/></radialGradient><radialGradient id="radial-gradient-2" cx="1952.28" cy="1143.79" fx="1952.28" fy="1143.79" r="287.78" gradientTransform="translate(-1371.79 918.41) rotate(-34.17) scale(.73 .59) skewX(-1.32)" gradientUnits="userSpaceOnUse"><stop offset="0" stop-color="#962a74"/><stop offset=".04" stop-color="#8a266a"/><stop offset=".19" stop-color="#601a4a"/><stop offset=".35" stop-color="#3d112f"/><stop offset=".51" stop-color="#22091a"/><stop offset=".67" stop-color="#0f040b"/><stop offset=".83" stop-color="#030102"/><stop offset="1" stop-color="#000"/></radialGradient><radialGradient id="radial-gradient-3" cx="3089.94" cy="1259.44" fx="3089.94" fy="1259.44" r="406.86" xlink:href="#radial-gradient-2"/></defs><g class="cls-51"><g id="_設計"><rect class="cls-50" x="-.02" y="7.48" width="1124" height="3552.19"/><g class="cls-53"><g class="cls-46"><rect class="cls-16" x="1081.1" y="55.63" width="49.04" height="49.04" transform="translate(2.18 186.17) rotate(-9.63)"/><rect class="cls-13" x="1015.82" y="66.71" width="49.04" height="49.04" transform="translate(-.59 175.41) rotate(-9.63)"/><rect class="cls-3" x="950.55" y="77.79" width="49.04" height="49.04" transform="translate(-3.37 164.64) rotate(-9.63)"/><rect class="cls-22" x="885.27" y="88.87" width="49.04" height="49.04" transform="translate(-6.14 153.87) rotate(-9.63)"/><rect class="cls-29" x="820" y="99.95" width="49.04" height="49.04" transform="translate(-8.92 143.1) rotate(-9.63)"/><rect class="cls-23" x="754.73" y="111.03" width="49.04" height="49.04" transform="translate(-11.7 132.33) rotate(-9.63)"/><rect class="cls-39" x="689.45" y="122.11" width="49.04" height="49.04" transform="translate(-14.47 121.56) rotate(-9.63)"/><rect class="cls-14" x="624.18" y="133.19" width="49.04" height="49.04" transform="translate(-17.25 110.8) rotate(-9.63)"/><rect class="cls-37" x="558.9" y="144.27" width="49.04" height="49.04" transform="translate(-20.02 100.03) rotate(-9.63)"/><rect class="cls-42" x="493.63" y="155.36" width="49.04" height="49.04" transform="translate(-22.8 89.26) rotate(-9.63)"/><rect class="cls-19" x="428.36" y="166.44" width="49.04" height="49.04" transform="translate(-25.57 78.49) rotate(-9.63)"/><rect class="cls-27" x="363.08" y="177.52" width="49.04" height="49.04" transform="translate(-28.35 67.72) rotate(-9.63)"/><rect class="cls-27" x="297.81" y="188.6" width="49.04" height="49.04" transform="translate(-31.12 56.95) rotate(-9.63)"/><rect class="cls-40" x="232.54" y="199.68" width="49.04" height="49.04" transform="translate(-33.9 46.19) rotate(-9.63)"/><rect class="cls-35" x="167.26" y="210.76" width="49.04" height="49.04" transform="translate(-36.67 35.42) rotate(-9.63)"/><rect class="cls-5" x="101.99" y="221.84" width="49.04" height="49.04" transform="translate(-39.45 24.65) rotate(-9.63)"/><rect class="cls-35" x="36.71" y="232.92" width="49.04" height="49.04" transform="translate(-42.22 13.88) rotate(-9.63)"/><rect class="cls-7" x="1070.15" y="-8.84" width="49.04" height="49.04" transform="translate(12.82 183.43) rotate(-9.63)"/><rect class="cls-18" x="1004.88" y="2.24" width="49.04" height="49.04" transform="translate(10.04 172.66) rotate(-9.63)"/><rect class="cls-17" x="939.6" y="13.32" width="49.04" height="49.04" transform="translate(7.27 161.9) rotate(-9.63)"/><rect class="cls-9" x="874.33" y="24.4" width="49.04" height="49.04" transform="translate(4.49 151.13) rotate(-9.63)"/><rect class="cls-24" x="809.06" y="35.48" width="49.04" height="49.04" transform="translate(1.72 140.36) rotate(-9.63)"/><rect class="cls-43" x="743.78" y="46.56" width="49.04" height="49.04" transform="translate(-1.06 129.59) rotate(-9.63)"/><rect class="cls-41" x="678.51" y="57.64" width="49.04" height="49.04" transform="translate(-3.84 118.82) rotate(-9.63)"/><rect class="cls-30" x="613.23" y="68.73" width="49.04" height="49.04" transform="translate(-6.61 108.05) rotate(-9.63)"/><rect class="cls-11" x="547.96" y="79.81" width="49.04" height="49.04" transform="translate(-9.39 97.29) rotate(-9.63)"/><rect class="cls-31" x="482.69" y="90.89" width="49.04" height="49.04" transform="translate(-12.16 86.52) rotate(-9.63)"/><rect class="cls-45" x="417.41" y="101.97" width="49.04" height="49.04" transform="translate(-14.94 75.75) rotate(-9.63)"/><rect class="cls-26" x="352.14" y="113.05" width="49.04" height="49.04" transform="translate(-17.71 64.98) rotate(-9.63)"/><rect class="cls-15" x="286.86" y="124.13" width="49.04" height="49.04" transform="translate(-20.49 54.21) rotate(-9.63)"/><rect class="cls-8" x="221.59" y="135.21" width="49.04" height="49.04" transform="translate(-23.26 43.44) rotate(-9.63)"/><rect class="cls-2" x="156.32" y="146.29" width="49.04" height="49.04" transform="translate(-26.04 32.68) rotate(-9.63)"/><rect class="cls-38" x="91.04" y="157.37" width="49.04" height="49.04" transform="translate(-28.81 21.91) rotate(-9.63)"/><rect class="cls-36" x="25.77" y="168.45" width="49.04" height="49.04" transform="translate(-31.59 11.14) rotate(-9.63)"/><rect class="cls-41" x="928.66" y="-51.15" width="49.04" height="49.04" transform="translate(17.9 159.16) rotate(-9.63)"/><rect class="cls-1" x="863.39" y="-40.07" width="49.04" height="49.04" transform="translate(15.13 148.39) rotate(-9.63)"/><rect class="cls-20" x="798.11" y="-28.99" width="49.04" height="49.04" transform="translate(12.35 137.62) rotate(-9.63)"/><rect class="cls-44" x="732.84" y="-17.9" width="49.04" height="49.04" transform="translate(9.58 126.85) rotate(-9.63)"/><rect class="cls-23" x="667.56" y="-6.82" width="49.04" height="49.04" transform="translate(6.8 116.08) rotate(-9.63)"/><rect class="cls-25" x="602.29" y="4.26" width="49.04" height="49.04" transform="translate(4.02 105.31) rotate(-9.63)"/><rect class="cls-12" x="537.02" y="15.34" width="49.04" height="49.04" transform="translate(1.25 94.55) rotate(-9.63)"/><rect class="cls-28" x="471.74" y="26.42" width="49.04" height="49.04" transform="translate(-1.53 83.78) rotate(-9.63)"/><rect class="cls-10" x="406.47" y="37.5" width="49.04" height="49.04" transform="translate(-4.3 73.01) rotate(-9.63)"/><rect class="cls-32" x="341.19" y="48.58" width="49.04" height="49.04" transform="translate(-7.08 62.24) rotate(-9.63)"/><rect class="cls-14" x="275.92" y="59.66" width="49.04" height="49.04" transform="translate(-9.85 51.47) rotate(-9.63)"/><rect class="cls-44" x="210.65" y="70.74" width="49.04" height="49.04" transform="translate(-12.63 40.7) rotate(-9.63)"/><rect class="cls-34" x="145.37" y="81.82" width="49.04" height="49.04" transform="translate(-15.4 29.93) rotate(-9.63)"/><rect class="cls-33" x="80.1" y="92.91" width="49.04" height="49.04" transform="translate(-18.18 19.17) rotate(-9.63)"/><rect class="cls-12" x="14.83" y="103.99" width="49.04" height="49.04" transform="translate(-20.95 8.4) rotate(-9.63)"/></g><g class="cls-46"><rect class="cls-4" x="709.25" y="248.57" width="49.04" height="49.04" transform="translate(-35.36 126.66) rotate(-9.63)"/><rect class="cls-33" x="643.98" y="259.65" width="49.04" height="49.04" transform="translate(-38.13 115.89) rotate(-9.63)"/><rect class="cls-16" x="578.71" y="270.73" width="49.04" height="49.04" transform="translate(-40.91 105.13) rotate(-9.63)"/><rect class="cls-13" x="513.43" y="281.81" width="49.04" height="49.04" transform="translate(-43.68 94.36) rotate(-9.63)"/><rect class="cls-3" x="448.16" y="292.89" width="49.04" height="49.04" transform="translate(-46.46 83.59) rotate(-9.63)"/><rect class="cls-22" x="382.89" y="303.97" width="49.04" height="49.04" transform="translate(-49.23 72.82) rotate(-9.63)"/><rect class="cls-29" x="317.61" y="315.05" width="49.04" height="49.04" transform="translate(-52.01 62.05) rotate(-9.63)"/><rect class="cls-23" x="252.34" y="326.13" width="49.04" height="49.04" transform="translate(-54.78 51.28) rotate(-9.63)"/><rect class="cls-39" x="187.06" y="337.21" width="49.04" height="49.04" transform="translate(-57.56 40.51) rotate(-9.63)"/><rect class="cls-14" x="121.79" y="348.29" width="49.04" height="49.04" transform="translate(-60.33 29.75) rotate(-9.63)"/><rect class="cls-37" x="56.52" y="359.38" width="49.04" height="49.04" transform="translate(-63.11 18.98) rotate(-9.63)"/><rect class="cls-42" x="-8.76" y="370.46" width="49.04" height="49.04" transform="translate(-65.88 8.21) rotate(-9.63)"/><rect class="cls-25" x="698.31" y="184.1" width="49.04" height="49.04" transform="translate(-24.72 123.92) rotate(-9.63)"/><rect class="cls-40" x="633.04" y="195.18" width="49.04" height="49.04" transform="translate(-27.5 113.15) rotate(-9.63)"/><rect class="cls-7" x="567.76" y="206.26" width="49.04" height="49.04" transform="translate(-30.27 102.38) rotate(-9.63)"/><rect class="cls-18" x="502.49" y="217.34" width="49.04" height="49.04" transform="translate(-33.05 91.62) rotate(-9.63)"/><rect class="cls-17" x="437.21" y="228.42" width="49.04" height="49.04" transform="translate(-35.82 80.85) rotate(-9.63)"/><rect class="cls-9" x="371.94" y="239.5" width="49.04" height="49.04" transform="translate(-38.6 70.08) rotate(-9.63)"/><rect class="cls-24" x="306.67" y="250.58" width="49.04" height="49.04" transform="translate(-41.37 59.31) rotate(-9.63)"/><rect class="cls-43" x="241.39" y="261.66" width="49.04" height="49.04" transform="translate(-44.15 48.54) rotate(-9.63)"/><rect class="cls-41" x="176.12" y="272.75" width="49.04" height="49.04" transform="translate(-46.92 37.77) rotate(-9.63)"/><rect class="cls-30" x="110.85" y="283.83" width="49.04" height="49.04" transform="translate(-49.7 27.01) rotate(-9.63)"/><rect class="cls-11" x="45.57" y="294.91" width="49.04" height="49.04" transform="translate(-52.47 16.24) rotate(-9.63)"/><rect class="cls-31" x="-19.7" y="305.99" width="49.04" height="49.04" transform="translate(-55.25 5.47) rotate(-9.63)"/><rect class="cls-19" x="687.37" y="119.63" width="49.04" height="49.04" transform="translate(-14.08 121.18) rotate(-9.63)"/><rect class="cls-6" x="622.09" y="130.71" width="49.04" height="49.04" transform="translate(-16.86 110.41) rotate(-9.63)"/><rect class="cls-33" x="556.82" y="141.79" width="49.04" height="49.04" transform="translate(-19.64 99.64) rotate(-9.63)"/><rect class="cls-21" x="491.54" y="152.87" width="49.04" height="49.04" transform="translate(-22.41 88.87) rotate(-9.63)"/><rect class="cls-41" x="426.27" y="163.95" width="49.04" height="49.04" transform="translate(-25.19 78.11) rotate(-9.63)"/><rect class="cls-1" x="361" y="175.03" width="49.04" height="49.04" transform="translate(-27.96 67.34) rotate(-9.63)"/><rect class="cls-20" x="295.72" y="186.11" width="49.04" height="49.04" transform="translate(-30.74 56.57) rotate(-9.63)"/><rect class="cls-44" x="230.45" y="197.2" width="49.04" height="49.04" transform="translate(-33.51 45.8) rotate(-9.63)"/><rect class="cls-23" x="165.18" y="208.28" width="49.04" height="49.04" transform="translate(-36.29 35.03) rotate(-9.63)"/><rect class="cls-25" x="99.9" y="219.36" width="49.04" height="49.04" transform="translate(-39.06 24.26) rotate(-9.63)"/><rect class="cls-12" x="34.63" y="230.44" width="49.04" height="49.04" transform="translate(-41.84 13.5) rotate(-9.63)"/><rect class="cls-28" x="-30.65" y="241.52" width="49.04" height="49.04" transform="translate(-44.61 2.73) rotate(-9.63)"/></g><g class="cls-46"><rect class="cls-33" x="579.75" y="-21.64" width="24.44" height="24.44" transform="translate(9.93 98.94) rotate(-9.63)"/><rect class="cls-16" x="547.21" y="-16.12" width="24.44" height="24.44" transform="translate(8.54 93.58) rotate(-9.63)"/><rect class="cls-13" x="514.68" y="-10.59" width="24.44" height="24.44" transform="translate(7.16 88.21) rotate(-9.63)"/><rect class="cls-3" x="482.15" y="-5.07" width="24.44" height="24.44" transform="translate(5.78 82.84) rotate(-9.63)"/><rect class="cls-22" x="449.61" y=".45" width="24.44" height="24.44" transform="translate(4.39 77.47) rotate(-9.63)"/><rect class="cls-29" x="417.08" y="5.98" width="24.44" height="24.44" transform="translate(3.01 72.11) rotate(-9.63)"/><rect class="cls-23" x="384.55" y="11.5" width="24.44" height="24.44" transform="translate(1.63 66.74) rotate(-9.63)"/><rect class="cls-39" x="352.01" y="17.02" width="24.44" height="24.44" transform="translate(.24 61.37) rotate(-9.63)"/><rect class="cls-14" x="319.48" y="22.54" width="24.44" height="24.44" transform="translate(-1.14 56.01) rotate(-9.63)"/><rect class="cls-37" x="286.95" y="28.07" width="24.44" height="24.44" transform="translate(-2.52 50.64) rotate(-9.63)"/><rect class="cls-42" x="254.42" y="33.59" width="24.44" height="24.44" transform="translate(-3.91 45.27) rotate(-9.63)"/><rect class="cls-19" x="221.88" y="39.11" width="24.44" height="24.44" transform="translate(-5.29 39.91) rotate(-9.63)"/><rect class="cls-27" x="189.35" y="44.64" width="24.44" height="24.44" transform="translate(-6.67 34.54) rotate(-9.63)"/><rect class="cls-27" x="156.82" y="50.16" width="24.44" height="24.44" transform="translate(-8.06 29.17) rotate(-9.63)"/><rect class="cls-40" x="124.28" y="55.68" width="24.44" height="24.44" transform="translate(-9.44 23.8) rotate(-9.63)"/><rect class="cls-35" x="91.75" y="61.21" width="24.44" height="24.44" transform="translate(-10.82 18.44) rotate(-9.63)"/><rect class="cls-5" x="59.22" y="66.73" width="24.44" height="24.44" transform="translate(-12.21 13.07) rotate(-9.63)"/><rect class="cls-35" x="26.68" y="72.25" width="24.44" height="24.44" transform="translate(-13.59 7.7) rotate(-9.63)"/><rect class="cls-24" x="411.63" y="-26.15" width="24.44" height="24.44" transform="translate(8.31 70.74) rotate(-9.63)"/><rect class="cls-43" x="379.09" y="-20.63" width="24.44" height="24.44" transform="translate(6.93 65.37) rotate(-9.63)"/><rect class="cls-41" x="346.56" y="-15.11" width="24.44" height="24.44" transform="translate(5.54 60.01) rotate(-9.63)"/><rect class="cls-30" x="314.03" y="-9.59" width="24.44" height="24.44" transform="translate(4.16 54.64) rotate(-9.63)"/><rect class="cls-11" x="281.49" y="-4.06" width="24.44" height="24.44" transform="translate(2.78 49.27) rotate(-9.63)"/><rect class="cls-31" x="248.96" y="1.46" width="24.44" height="24.44" transform="translate(1.39 43.91) rotate(-9.63)"/><rect class="cls-45" x="216.43" y="6.98" width="24.44" height="24.44" transform="translate(.01 38.54) rotate(-9.63)"/><rect class="cls-26" x="183.89" y="12.51" width="24.44" height="24.44" transform="translate(-1.37 33.17) rotate(-9.63)"/><rect class="cls-15" x="151.36" y="18.03" width="24.44" height="24.44" transform="translate(-2.76 27.81) rotate(-9.63)"/><rect class="cls-8" x="118.83" y="23.55" width="24.44" height="24.44" transform="translate(-4.14 22.44) rotate(-9.63)"/><rect class="cls-2" x="86.29" y="29.07" width="24.44" height="24.44" transform="translate(-5.52 17.07) rotate(-9.63)"/><rect class="cls-38" x="53.76" y="34.6" width="24.44" height="24.44" transform="translate(-6.91 11.7) rotate(-9.63)"/><rect class="cls-36" x="21.23" y="40.12" width="24.44" height="24.44" transform="translate(-8.29 6.34) rotate(-9.63)"/><rect class="cls-10" x="210.97" y="-25.15" width="24.44" height="24.44" transform="translate(5.31 37.17) rotate(-9.63)"/><rect class="cls-32" x="178.44" y="-19.63" width="24.44" height="24.44" transform="translate(3.93 31.81) rotate(-9.63)"/><rect class="cls-14" x="145.91" y="-14.1" width="24.44" height="24.44" transform="translate(2.55 26.44) rotate(-9.63)"/><rect class="cls-44" x="113.37" y="-8.58" width="24.44" height="24.44" transform="translate(1.16 21.07) rotate(-9.63)"/><rect class="cls-34" x="80.84" y="-3.06" width="24.44" height="24.44" transform="translate(-.22 15.7) rotate(-9.63)"/><rect class="cls-33" x="48.31" y="2.46" width="24.44" height="24.44" transform="translate(-1.6 10.34) rotate(-9.63)"/><rect class="cls-12" x="15.77" y="7.99" width="24.44" height="24.44" transform="translate(-2.99 4.97) rotate(-9.63)"/></g></g><g class="cls-54"><path class="cls-48" d="m1432.25,446.37c0,557.9-396.46,1150.61-885.51,1323.85-489.06,173.25-885.52-138.57-885.52-696.46S57.68-76.83,546.74-250.08c489.05-173.25,885.51,138.57,885.51,696.46Z"/><path class="cls-49" d="m353.84,567.89c50.77,79.6,13.71,197.23-82.8,262.74-96.51,65.51-215.92,54.09-266.7-25.51-50.78-79.6-13.71-197.22,82.78-262.73,96.52-65.5,215.93-54.09,266.72,25.5Z"/><path class="cls-47" d="m1153.89,107.78c71.78,112.54,19.38,278.85-117.04,371.44-136.47,92.63-305.27,76.49-377.07-36.04-71.79-112.54-19.4-278.84,117.04-371.46,136.47-92.61,305.27-76.48,377.07,36.05Z"/></g></g></g></svg>