<?xml version="1.0" encoding="UTF-8"?><svg id="_設計" xmlns="http://www.w3.org/2000/svg" xmlns:xlink="http://www.w3.org/1999/xlink" viewBox="0 0 368.08 101.46"><defs><style>.cls-1{fill:url(#_未命名漸層_2-4);}.cls-2{fill:#fff;}.cls-3{fill:url(#_未命名漸層_2-3);}.cls-4{fill:url(#_未命名漸層_2);}.cls-5{fill:url(#_未命名漸層_2-2);}</style><linearGradient id="_未命名漸層_2" x1="-15.74" y1="-5398.38" x2="42.12" y2="-5498.59" gradientTransform="translate(4.16 5493.15)" gradientUnits="userSpaceOnUse"><stop offset="0" stop-color="#0032ca"/><stop offset="1" stop-color="#f701f7"/></linearGradient><linearGradient id="_未命名漸層_2-2" x1="20.43" y1="-5377.59" x2="78.63" y2="-5478.4" xlink:href="#_未命名漸層_2"/><linearGradient id="_未命名漸層_2-3" x1="12.22" y1="-5382.93" x2="70.25" y2="-5483.44" xlink:href="#_未命名漸層_2"/><linearGradient id="_未命名漸層_2-4" x1="-2.64" y1="-5390.5" x2="55.88" y2="-5491.86" xlink:href="#_未命名漸層_2"/></defs><circle class="cls-2" cx="50.73" cy="50.73" r="50.73"/><path class="cls-4" d="m26.66,61.58v.03S3.14,33.15,3.14,33.15c-5.46,14.82-3.86,31.83,5.31,45.63l19.27-15.92-1.06-1.28Z"/><path class="cls-5" d="m47.69,87.03l-13.21-15.99-19.27,15.92c11.82,11.61,28.22,16.39,43.81,13.82l-11.33-13.75h0Z"/><path class="cls-3" d="m89.84,18.42C71.99-3.18,40.02-6.22,18.42,11.62c-5.01,4.14-9.01,9.03-12,14.38h1.87c.08,0,.17,0,.25,0l65.68.02h.01c.09,0,.18,0,.27,0,.03,0,.06,0,.09,0,.06,0,.12,0,.18.01.04,0,.07,0,.11.01.06,0,.11.01.17.02.03,0,.07.01.1.02.06,0,.12.02.18.03.03,0,.06.01.09.02.07.02.14.03.2.05.02,0,.04,0,.06.01.46.13.89.32,1.31.57,0,0,0,0,0,0,.08.05.15.1.23.15,0,0,.01,0,.02.01.07.05.14.1.21.15,0,0,.02.01.03.02.06.05.13.1.19.16.01,0,.02.02.03.03.06.05.12.1.17.16.01.01.03.02.04.04.05.05.11.11.16.16.01.01.03.03.04.04.06.07.13.14.19.22.06.07.12.15.18.23.01.02.02.03.03.05.04.06.09.12.13.19,0,.01.02.03.03.05.04.07.08.13.12.2,0,.01.01.03.02.04.04.07.08.14.12.22v.03c.05.08.09.16.13.24,0,0,0,.01,0,.02.04.08.07.17.1.25,0,0,0,0,0,0,.17.45.27.92.32,1.39,0,.02,0,.04,0,.06,0,.07,0,.14.01.21,0,.03,0,.06,0,.09v.18s0,.07,0,.11c0,.06,0,.11,0,.17,0,.04,0,.07,0,.11,0,.06-.01.12-.02.18,0,.03,0,.06-.01.09-.01.09-.03.18-.04.27h0s0,0,0,.01c-.23,1.2-.87,2.29-1.82,3.07h0s-11.37,9.41-11.37,9.41l-23.57,19.47,16.09,19.48,5.26-27.43,12.85-10.61-8.28,43.14-1.89,10.04c5.8-1.92,11.34-4.93,16.34-9.05,21.6-17.84,24.64-49.82,6.8-71.42h0Z"/><polygon class="cls-1" points="22.66 36.61 22.66 36.62 19.81 36.62 35.9 56.09 59.47 36.62 22.66 36.61"/><path class="cls-2" d="m162.1,37.19c-3.33-3.65-8.12-5.58-13.84-5.58s-10.83,2.14-14.46,6.19c-3.41,3.8-5.28,9.02-5.28,14.71,0,6.14,1.99,11.39,5.76,15.19,3.64,3.68,8.78,5.7,14.48,5.7,6.49,0,14.21-3.1,18.09-9.78l-4.38-4.6c-4.36,5.57-9.38,7.61-13.7,7.61-3.56,0-6.67-1.07-8.99-3.11-2.28-2-3.73-4.91-4.23-8.46h31.05l.09-.98c0-.08.17-1.91.17-3.6,0-5.22-1.68-9.94-4.74-13.29h0Zm-26.41,11.28c.68-3.3,2.18-5.86,4.47-7.62,2.75-2.12,5.92-2.56,8.1-2.56,6.78,0,11.06,3.78,11.63,10.19h-24.2Z"/><rect class="cls-2" x="171.12" y="54.42" width="16.96" height="5.33"/><path class="cls-2" d="m212.48,73.05c-5.4,0-10.37-1.98-13.99-5.57-3.83-3.8-5.85-9.02-5.85-15.09,0-11.97,8.34-20.67,19.84-20.67,7.02,0,11.2,2.69,13.47,4.95,2.58,2.57,4.34,6.42,4.23,9.72h-7.29c-.59-3.88-3.88-7.84-10.4-7.84-7.09,0-12.44,5.95-12.44,13.83,0,9.51,6.45,13.83,12.44,13.83,7.11,0,11.08-4.06,11.33-8.08l.03-.5h-14.45v-6.15h22.01v2.94c0,5.2-1.71,9.87-4.8,13.16-3.37,3.57-8.25,5.46-14.12,5.46h0Z"/><path class="cls-2" d="m327.54,73.05c-4.3,0-8-1.27-10.69-3.68-2.82-2.52-4.31-6.16-4.31-10.51,0-3.94,1.34-7.52,3.77-10.07,2.56-2.69,6.15-4.12,10.37-4.12s7.7,1.28,10.03,3.69c2.12,2.2,3.24,5.21,3.24,8.73,0,1.51-.16,3-.25,3.69h-20.07l.07.54c.48,3.43,3.36,5.32,8.14,5.32,2.97,0,6.48-1.44,9.3-3.66l2.51,5.46c-3.12,3.2-7.6,4.62-12.11,4.62h0,0Zm-.8-22.64c-3.52,0-6.17,1.86-6.9,4.86l-.14.58h13.37l-.02-.5c-.12-2.28-1.84-4.95-6.3-4.95Z"/><rect class="cls-2" x="268.63" y="45.35" width="6.91" height="27.01"/><ellipse class="cls-2" cx="272.09" cy="35.14" rx="4.54" ry="4.36"/><path class="cls-2" d="m246.97,73.05c-3.32,0-5.87-1.09-7.6-3.22-1.62-2.01-2.48-4.98-2.48-8.58v-15.89h6.91v15.48c0,3.52,1.82,5.71,4.64,5.79,5.7.15,7.1-5.09,7.1-5.09v-16.18h6.91v27.01h-5.98l-.29-3.1h-.2l-.14.12c-2.57,2.38-5.76,3.66-8.87,3.66h0Z"/><path class="cls-2" d="m292.11,73.05c-3.15,0-6.04-1.35-8.14-3.81-2.23-2.61-3.42-6.2-3.42-10.37,0-8.22,5.2-14.19,12.36-14.19,4.38,0,5.86.84,7.12,2.05l.14.13h.28v-18.55h6.91v44.06h-6.1l-.24-2.8h-.27l-.14.13c-2.38,2.34-3.95,3.34-8.49,3.34h0s0,0,0,0Zm2.03-21.95c-3.93,0-6.67,3.19-6.67,7.77s2.67,7.77,6.49,7.77c3.05,0,5.09-1.8,6.36-3.15l.13-.14v-8.06l-.04-.09c-1.11-2.53-3.51-4.1-6.26-4.1h0Z"/><path class="cls-2" d="m345.34,72.36v-27.01h6.46l.4,3.89h.22l.14-.2c2.04-2.98,4.03-4.36,8.26-4.36,4.61,0,7.26,3.31,7.26,9.07v3.55h-6.91v-2.33c0-2.36-1.27-3.88-3.23-3.88s-4.66,1.96-5.67,5.24l-.02.07v15.97h-6.91s0,0,0,0h0Z"/></svg>