<svg id="组_2" data-name="组 2" xmlns="http://www.w3.org/2000/svg" xmlns:xlink="http://www.w3.org/1999/xlink" width="89.73" height="15.936" viewBox="0 0 89.73 15.936">
  <defs>
    <clipPath id="clip-path">
      <rect id="矩形_2" data-name="矩形 2" width="89.73" height="15.936" fill="none"/>
    </clipPath>
  </defs>
  <g id="组_1" data-name="组 1" transform="translate(0 0)" clip-path="url(#clip-path)">
    <path id="路径_1" data-name="路径 1" d="M228.548,16.42v1.35a.619.619,0,0,0,.619.619h1.384a.619.619,0,0,0,.619-.619V16.42a.619.619,0,0,0-.619-.619h-1.384a.619.619,0,0,0-.619.619" transform="translate(-152.692 -10.556)" fill="#00cde6"/>
    <path id="路径_2" data-name="路径 2" d="M220.2,7.985V9.37a.619.619,0,0,0,.619.619h1.35a.619.619,0,0,0,.619-.619V7.985a.619.619,0,0,0-.619-.619h-1.35a.619.619,0,0,0-.619.619" transform="translate(-147.116 -4.921)" fill="#00cde6"/>
    <path id="路径_3" data-name="路径 3" d="M5.669,19.637,4,19.191c-.6-.134-1.116-.446-1.116-.982,0-.647.558-1.116,1.361-1.116a1.255,1.255,0,0,1,1.384,1.161H8.1c.022-2.321-2.076-3.259-3.928-3.259C1.9,14.995.29,16.468.29,18.1c0,1.317.6,2.567,2.946,3.192l1.384.357c.781.179,1.228.447,1.228,1.027,0,.669-.669,1.183-1.7,1.183-1.094,0-1.719-.67-1.719-1.384H0c.045,2.232,2.121,3.482,4.2,3.482,2.12,0,4.241-1.161,4.241-3.281,0-.96-.424-2.433-2.768-3.036" transform="translate(0 -10.018)" fill="#fff"/>
    <path id="路径_4" data-name="路径 4" d="M74.453,21.381a2.513,2.513,0,0,1-2.656,2.7,2.241,2.241,0,0,1-2.165-2.544V15.8H67.043v5.848c0,3.035,1.5,4.843,4.174,4.843a3.617,3.617,0,0,0,3.236-1.9v1.9h2.589V15.8H74.453Z" transform="translate(-44.791 -10.556)" fill="#fff"/>
    <rect id="矩形_1" data-name="矩形 1" width="2.589" height="15.936" transform="translate(34.661)" fill="#fff"/>
    <path id="路径_5" data-name="路径 5" d="M132.06,14.994a3.915,3.915,0,0,0-3.5,2.1,3.6,3.6,0,0,0-3.37-2.1,3.276,3.276,0,0,0-3.1,1.875V15.262h-2.589V25.953h2.589V20.128c0-1.986,1.205-2.7,2.411-2.7,1.116,0,1.986.893,1.986,2.544v5.982h2.589V20.529c0-2.076.848-3.1,2.344-3.1,1.205,0,2.076.871,2.076,2.544v5.982h2.567V19.837c0-3.036-1.384-4.843-4-4.843" transform="translate(-79.833 -10.017)" fill="#fff"/>
    <path id="路径_6" data-name="路径 6" d="M248.648,20.373a5.152,5.152,0,0,0-5.312-5.379,5.3,5.3,0,0,0-5.468,5.468,5.293,5.293,0,0,0,5.468,5.49,5.541,5.541,0,0,0,4.709-2.366L246.3,22.27a3.462,3.462,0,0,1-2.812,1.339,2.749,2.749,0,0,1-2.969-2.232h8.08c.023-.379.045-.714.045-1m-8.124-.8a2.667,2.667,0,0,1,2.835-2.277,2.54,2.54,0,0,1,2.723,2.277Z" transform="translate(-158.919 -10.017)" fill="#fff"/>
    <path id="路径_7" data-name="路径 7" d="M182.938,15.8a5.791,5.791,0,0,0-2.969-.807,5.48,5.48,0,1,0,0,10.959l.056,0v0h5.5V15.262h-2.589Zm-2.969,7.742a2.931,2.931,0,0,1-2.924-3.08,2.937,2.937,0,1,1,5.87,0s0,.007,0,.011h0v3.068h-2.946" transform="translate(-116.539 -10.017)" fill="#fff"/>
    <path id="路径_8" data-name="路径 8" d="M34.249,14.994a5.48,5.48,0,1,0,0,10.959l.056,0v0h5.5V20.607L39.8,20.6c0-.046.007-.089.007-.135a5.4,5.4,0,0,0-5.557-5.468m0,8.549a2.931,2.931,0,0,1-2.924-3.08,2.937,2.937,0,1,1,5.87,0s0,.007,0,.011h0v3.068H34.249" transform="translate(-19.184 -10.017)" fill="#fff"/>
    <path id="路径_9" data-name="路径 9" d="M215.181,16.061a.885.885,0,0,0-.626-.259H212.3V18.39h2.623v8.1h2.589V18.756a.885.885,0,0,0-.259-.626Z" transform="translate(-141.836 -10.556)" fill="#fff"/>
  </g>
</svg>
