<?xml version="1.0" encoding="UTF-8"?><svg id="_設計" xmlns="http://www.w3.org/2000/svg" viewBox="0 0 828.33 510.99"><defs><style>.cls-1{fill:#fff;}.cls-2{fill:#8700f0;}.cls-3{fill:#00cde6;}</style></defs><path class="cls-2" d="m51.25,170.69s.67,36.69,16.07,43.26c10.86,4.63,20.16-6.14,23.9-12.26,3.12-5.11,1.89-11.74-2.78-15.48-7.32-5.88-17.9-15.26-20.64-22.36-4.3-11.16-16.56,6.85-16.56,6.85Z"/><path class="cls-3" d="m72.6,217.56c-2.04,0-4.13-.4-6.25-1.31-7.18-3.06-12.32-11.77-15.28-25.88-2.12-10.11-2.31-19.25-2.31-19.63,0-.52.14-1.02.43-1.45,1.4-2.06,8.77-12.29,15.23-11.55,1.78.21,4.21,1.28,5.73,5.21,1.93,5.01,8.99,12.58,19.87,21.31,5.66,4.54,7.1,12.6,3.35,18.74-4.48,7.33-12.14,14.57-20.76,14.57Zm-18.83-46.11c.33,10.33,3.44,35.47,14.53,40.2,10.72,4.57,19.79-9.63,20.79-11.26,2.44-4,1.49-9.26-2.21-12.23-8.18-6.56-18.53-15.95-21.41-23.41-.34-.88-.9-1.95-1.64-2.04-2.38-.28-7.18,4.71-10.07,8.75Z"/><path class="cls-2" d="m44.58,172.47s5.04,31.79,19.55,40.14c8.06,4.64,14.45-.96,18.54-6.86,3.41-4.92,2.57-11.61-1.87-15.62-6.97-6.29-16.98-16.28-19.3-23.53-3.64-11.39-16.93,5.87-16.93,5.87Z"/><path class="cls-3" d="m70.05,216.83c-2.37,0-4.77-.68-7.17-2.06-15.37-8.84-20.56-40.57-20.77-41.91-.11-.68.07-1.37.49-1.92,1.52-1.98,9.44-11.78,15.88-10.64,1.76.31,4.13,1.52,5.42,5.53,1.63,5.12,8.24,13.08,18.59,22.44,5.38,4.86,6.35,12.99,2.25,18.9-4.43,6.38-9.48,9.66-14.68,9.66Zm-22.81-43.69c1.02,5.48,6.26,30.46,18.14,37.3,7.86,4.52,13.42-3.49,15.24-6.12,2.67-3.85,2.03-9.15-1.49-12.34-7.78-7.03-17.57-17.01-20-24.63-.29-.9-.78-2-1.51-2.13-2.14-.38-6.89,3.66-10.38,7.92Z"/><path class="cls-2" d="m148.91,178.19c-35.36-10.2-68.91-14.85-97.73-5.08-21.05,7.14-43.99-5.61-47.87-27.5-.24-1.33-.43-2.67-.58-4.01-2.1-18.98,11.14-35.94,29.87-39.64,30.95-6.11,58.88-23.49,84.41-49.79l31.9,126.01Z"/><path class="cls-3" d="m148.91,180.69c-.23,0-.46-.03-.69-.1-41.05-11.84-71.63-13.46-96.23-5.11-11,3.73-23.03,2.5-33-3.39-9.6-5.68-16.21-15.16-18.14-26.03-.25-1.38-.45-2.79-.6-4.17-2.23-20.12,11.47-38.34,31.88-42.37,29.1-5.75,57.06-22.26,83.1-49.08.63-.65,1.56-.91,2.44-.67.88.23,1.55.92,1.78,1.8l31.9,126.01c.22.87-.04,1.79-.69,2.41-.47.46-1.1.7-1.74.7Zm-62.76-15.43c17.16,0,36.67,3.1,59.28,9.35l-29.75-117.52c-25.88,25.7-53.64,41.62-82.59,47.34-17.83,3.52-29.82,19.39-27.87,36.91.14,1.28.33,2.57.55,3.85,1.7,9.57,7.3,17.6,15.76,22.6,8.71,5.15,19.22,6.23,28.84,2.96,10.77-3.65,22.58-5.49,35.77-5.49Z"/><path class="cls-2" d="m47.23,98.14c-4.1,1.32-8.25,2.44-12.46,3.34-2.38,17.13-2.51,46.88,17.86,71.18,4.27-1.37,8.64-2.43,13.1-3.21-24.56-24.45-21.39-57.18-18.5-71.32Z"/><path class="cls-3" d="m52.62,175.17c-.73,0-1.43-.32-1.92-.89-21.32-25.44-20.69-56.74-18.42-73.13.14-1.04.92-1.88,1.95-2.1,4.08-.88,8.19-1.98,12.22-3.28.85-.27,1.77-.08,2.43.52.66.59.96,1.49.78,2.36-2.62,12.82-6.13,45.21,17.81,69.05.66.66.9,1.63.62,2.52-.28.89-1.04,1.55-1.96,1.71-4.42.77-8.71,1.82-12.77,3.12-.25.08-.51.12-.76.12Zm-15.61-71.62c-1.92,15.67-1.85,43.36,16.47,66.24,2.38-.72,4.82-1.35,7.32-1.9-20.14-22.8-19.12-51.34-16.77-66.16-2.33.67-4.68,1.28-7.02,1.82Z"/><ellipse class="cls-2" cx="138.74" cy="113.72" rx="39.57" ry="73.37" transform="translate(-23.66 37.52) rotate(-14.2)"/><path class="cls-3" d="m151.3,188.01c-9.48,0-19.5-5.33-28.79-15.45-10.92-11.9-19.64-29.13-24.55-48.52-4.91-19.39-5.44-38.7-1.5-54.36,4.08-16.2,12.48-26.68,23.66-29.51,11.18-2.83,23.55,2.39,34.85,14.7,10.92,11.9,19.64,29.13,24.55,48.52,4.91,19.39,5.44,38.7,1.5,54.36-4.08,16.2-12.48,26.68-23.66,29.51-1.99.5-4.01.75-6.06.75Zm-25.06-143.6c-1.65,0-3.29.2-4.89.6-19.81,5.02-28.13,39.91-18.54,77.79s33.51,64.62,53.32,59.6c19.81-5.02,28.13-39.91,18.54-77.79-8.81-34.81-29.72-60.21-48.43-60.21Z"/><ellipse class="cls-2" cx="144.94" cy="112.15" rx="33.17" ry="73.37" transform="translate(-23.09 38.99) rotate(-14.2)"/><path class="cls-3" d="m159.11,186.24c-8.43,0-17.55-5.71-26.13-16.49-9.69-12.17-17.72-29.52-22.62-48.85-10.44-41.24-3.43-77.39,15.96-82.3,19.39-4.91,42.76,23.55,53.2,64.79,4.89,19.33,6.08,38.42,3.35,53.73-2.86,15.99-9.71,26.14-19.31,28.57-1.46.37-2.94.55-4.45.55Zm-28.35-143.19c-1.09,0-2.16.13-3.21.39-16.12,4.08-21.77,38.99-12.34,76.23,4.72,18.66,12.42,35.34,21.68,46.96,8.7,10.92,17.97,16.1,25.44,14.21,7.47-1.89,13.16-10.86,15.62-24.6,2.61-14.63,1.45-32.96-3.27-51.62-8.81-34.81-28.25-61.57-43.91-61.57Z"/><path class="cls-2" d="m112.78,120.29c1.3,5.12,2.81,10.05,4.49,14.75l19.55-7.68-6.26-24.72-20.85,2.54c.75,4.93,1.77,9.99,3.06,15.11Z"/><path class="cls-3" d="m117.28,137.54c-.35,0-.71-.07-1.03-.22-.62-.28-1.09-.8-1.32-1.43-1.75-4.87-3.28-9.91-4.57-14.98h0c-1.28-5.07-2.33-10.23-3.11-15.35-.1-.67.07-1.35.48-1.89.41-.54,1.02-.89,1.69-.97l20.85-2.54c1.25-.15,2.42.65,2.73,1.87l6.26,24.72c.31,1.22-.34,2.48-1.51,2.94l-19.55,7.68c-.29.12-.6.17-.91.17Zm-2.07-17.86c1.03,4.08,2.23,8.13,3.58,12.09l15.08-5.93-5.18-20.45-16.09,1.96c.7,4.12,1.57,8.26,2.61,12.33h0Z"/><path class="cls-2" d="m138.74,113.72c1.79,7.09.65,13.49-2.55,14.3-3.21.81-7.26-4.28-9.05-11.37-1.79-7.09-.65-13.49,2.55-14.3,3.21-.81,7.26,4.28,9.05,11.37Z"/><path class="cls-3" d="m135.56,130.6c-3.89,0-8.56-4.3-10.85-13.33-2.54-10.02.28-16.31,4.37-17.34,4.08-1.04,9.55,3.16,12.09,13.18h0c.95,3.77,1.18,7.52.63,10.56-.9,5.03-3.52,6.41-5,6.78-.4.1-.82.15-1.24.15Zm-5.16-25.84s-.07,0-.1.01c-.87.22-2.47,4.44-.74,11.27,1.73,6.83,5.13,9.77,6.02,9.56.27-.07.95-.85,1.3-2.81.42-2.33.21-5.41-.56-8.45-1.67-6.6-4.91-9.57-5.92-9.57Z"/><circle class="cls-2" cx="185.42" cy="107.07" r="43.64"/><path class="cls-3" d="m387.22,70.34c-1.23,0-2.3-.91-2.47-2.16-.19-1.37.77-2.63,2.14-2.82l23.83-3.28c1.37-.19,2.63.77,2.82,2.14.19,1.37-.77,2.63-2.14,2.82l-23.83,3.28c-.12.02-.23.02-.34.02Z"/><path class="cls-3" d="m353.77,27.28c-.31,0-.63-.06-.94-.19-1.28-.52-1.89-1.98-1.37-3.26l9.07-22.28c.52-1.28,1.98-1.89,3.26-1.37,1.28.52,1.89,1.98,1.37,3.26l-9.07,22.28c-.39.97-1.33,1.56-2.32,1.56Z"/><path class="cls-3" d="m379.55,41.78c-.75,0-1.48-.33-1.98-.97-.85-1.09-.65-2.66.44-3.51l17.55-13.64c1.09-.85,2.66-.65,3.51.44.85,1.09.65,2.66-.44,3.51l-17.55,13.64c-.46.35-1,.53-1.53.53Z"/><path class="cls-3" d="m175.06,77.92c-.14,4.18-.33,8.04-.49,11.64l10.47-1.43.5,3.64c.98,10.01.24,18.88-2.14,26.69,3.75,2.22,6.88,4.2,9.35,6.07l-3.82,5.85c-2.26-1.77-4.91-3.62-7.91-5.55-2.4,5.27-5.6,9.93-9.71,14.13l-5.37-5.05c3.9-3.78,7.04-7.98,9.25-12.71-3.19-1.97-6.65-3.97-10.37-5.99,1.12-5.61,1.98-11.65,2.66-18.11l-5.87.8-.88-6.45,7.28-.99c.23-4,.39-8.11.47-12.29l6.6-.25Zm4.35,17.54l-5.3.72c-.57,6.32-1.34,11.62-2.3,15.98,2.03,1.02,3.91,2,5.68,3,1.72-5.96,2.38-12.55,1.92-19.7Zm22.49,5.25l-.96-7.02c2.68-3.23,5.23-6.95,7.64-11.18l-20.8,2.84-.89-6.51,28.46-3.89.89,6.51c-2.36,4.61-5.13,9.09-8.32,13.36l.68,4.98,12.19-1.67.89,6.51-12.19,1.67,2.5,18.31c.68,4.98-.89,7.73-4.59,8.23l-9.57,1.31-2.59-6.08c2.56-.29,5.44-.61,8.57-1.04,1.08-.15,1.51-1.31,1.21-3.48l-2.23-16.34-13.59,1.86-.89-6.51,13.59-1.86Z"/><path class="cls-3" d="m241.56,78.91l-4.07,5.43c-3.03-2.64-7.16-5.33-12.48-8.11l4.09-5.24c4.84,2.59,8.97,5.21,12.46,7.92Zm-.37,15.39l-4.08,5.37c-2.89-2.6-6.84-5.37-11.85-8.26l4.09-5.24c4.58,2.62,8.53,5.34,11.84,8.13Zm3,10.06c-1.95,8.59-4.21,16.76-6.93,24.48l-6.5-1.91c2.95-7.94,5.35-16.01,7.24-24.07l6.18,1.5Zm9.69-24.73l-4.88,3.27c-2.71-3.66-5.49-6.86-8.41-9.71l5.07-3.36c2.81,2.93,5.53,6.2,8.23,9.8Zm9.75-13.81l2.24,16.4,14.29-1.95,4.93,36.06c.56,4.08-1.64,6.53-6.49,7.19l-7.02.96-2.65-6.07c2.45-.14,4.77-.33,6.87-.61,1.91-.26,2.82-1.23,2.6-2.89l-.96-7.02c-6.47,2.12-13.34,4.16-20.56,6.06l-2.22-5.81c.12,7.52-1.07,14.06-3.51,19.53l-5.74-3.96c2.72-6.22,3.51-13.81,2.43-22.63l-2.2-16.08,13.91-1.9-2.24-16.4,6.32-.86Zm7.2,34.64c-3.28-.2-6.67-.32-10.19-.36-2.09-.04-4.29,0-6.54.18.3,2.69.45,5.2.53,7.66,7.57-1.68,14.92-3.6,22.02-5.87l-2.04-14.93-21.89,2.99.65,4.79c4.4-.15,7.64-.2,9.78-.23,2.41.06,5.48.16,9.15.37l-1.47,5.4Zm10.52-32.9c-1.46,4.1-3.51,8.09-6.09,12.08l-5.46-1.92c2.62-4.13,4.61-8.11,5.91-11.92l5.64,1.76Z"/><path class="cls-3" d="m303.5,102.62c-.66,6.14-1.99,11.58-4.02,16.28l-6.11-2.87c2.06-4.44,3.31-9.1,3.7-13.83l6.43.42Zm6.25-38.95c.56-1.64.91-3.31,1.07-5.02h7.15c-.2,1.39-.54,2.74-1.01,4.04l19.91-2.72,4.46,32.61-41.22,5.63-4.46-32.61,14.1-1.93Zm21.94,6.43l-.49-3.57-28.33,3.87.49,3.57,28.33-3.87Zm1.2,8.81l-.49-3.57-28.33,3.87.49,3.57,28.33-3.87Zm.71,5.23l-28.33,3.87.51,3.7,28.33-3.87-.51-3.7Zm-18.08,33.67c-4.47.61-7-1.25-7.57-5.47l-1.57-11.49,6.76-.92,1.37,10.02c.17,1.28.84,1.9,2.12,1.73l13.02-1.78c1.02-.14,1.73-.63,2.16-1.33.54-.79.63-3.01.33-6.61l6.67,1.23c.18,5.57-.34,8.95-1.54,10.16-1.15,1.13-2.99,1.9-5.54,2.25l-16.21,2.21Zm13.91-14.32l-4.57,4.13c-2.01-2.33-4.71-4.95-8.01-7.75l4.5-3.73c3.37,2.79,6.11,5.21,8.09,7.35Zm22.71,3.01l-4.85,4.43c-2.59-3.74-6.01-7.82-10.26-12.31l4.79-3.97c4.38,4.47,7.78,8.43,10.33,11.85Z"/><path class="cls-3" d="m362.93,59.14l2.84,32.7-5.42.74-6.03-32.26,8.62-1.18Zm4.33,37.37c1.02.77,1.68,1.85,1.87,3.25.19,1.4-.15,2.69-.92,3.7-.9,1.03-1.99,1.64-3.39,1.83-1.4.19-2.62-.16-3.64-.93-1.14-.75-1.75-1.84-1.94-3.25-.19-1.4.1-2.61,1-3.65.77-1.02,1.86-1.62,3.26-1.81,1.4-.19,2.68.09,3.76.85Z"/><rect class="cls-3" x="489.13" y="190.88" width="16.47" height="16.25" rx="3.89" ry="3.89" transform="translate(-20.54 62.1) rotate(-7)"/><rect class="cls-3" x="469.74" y="175.56" width="16.25" height="16.47" rx="3.89" ry="3.89" transform="translate(-18.84 59.61) rotate(-7)"/><path class="cls-1" d="m54.2,272.9l-10.77-1.5c-3.86-.37-7.3-1.93-7.71-5.27-.5-4.03,2.62-7.38,7.63-8,4.59-.56,8.96,1.72,9.51,6.17l15.44-1.9c-1.64-14.48-15.43-18.72-26.97-17.3-14.19,1.74-23.07,12.15-21.83,22.3,1.01,8.2,5.72,15.53,20.8,17.63l8.9,1.17c5,.52,7.99,1.84,8.43,5.46.51,4.17-3.27,7.88-9.66,8.67-6.81.84-11.22-2.86-11.77-7.31l-15.16,1.86c1.99,13.87,15.88,20.07,28.81,18.49,13.21-1.62,25.54-10.48,23.92-23.69-.73-5.98-4.5-14.84-19.57-16.8Z"/><path class="cls-1" d="m204.62,262.05c1.55,12.66-7.11,17.96-14.48,18.86-7.23.89-14.16-3.77-15.44-14.2l-4.39-35.74-16.13,1.98,4.47,36.44c2.32,18.91,13.02,29.04,29.71,26.99,6.54-.8,16.38-5.68,18.71-14.3l1.45,11.82,16.13-1.98-8.18-66.62-16.13,1.98,4.27,34.77Z"/><rect class="cls-1" x="233.53" y="189.42" width="16.25" height="100.04" transform="translate(-27.38 31.23) rotate(-7)"/><path class="cls-1" d="m340.75,208.35c-6.54.8-16.33,4.97-20.23,15.75-4.9-7.73-13.15-11.66-22.61-10.49-7.93.97-16.04,6.2-17.9,14.06l-1.23-10.01-16.13,1.98,8.18,66.62,16.13-1.98-4.46-36.3c-1.52-12.38,5.44-17.75,12.95-18.67,6.95-.85,13.06,4.04,14.32,14.34l4.58,37.27,16.13-1.98-4.15-33.8c-1.59-12.93,2.91-19.98,12.23-21.12,7.51-.92,13.6,3.84,14.88,14.27l4.58,37.27,15.99-1.96-4.68-38.11c-2.32-18.92-12.33-29.12-28.6-27.12Z"/><path class="cls-1" d="m578.56,213.17c-2.49-20.31-18.72-31.72-37.22-29.45-18.64,2.29-32.43,17.53-29.89,38.26,2.49,20.3,18.94,32.4,38.27,30.03,11.82-1.45,22.72-8.15,27.54-18.35l-11.86-6.87c-3.11,5.75-9.55,9.64-16.5,10.5-9.74,1.2-17.29-2.82-20.21-11.64l50.35-6.18c-.15-2.38-.27-4.49-.49-6.29Zm-51.24,1.21c.73-10.11,7.3-15.3,15.92-16.36,9.04-1.11,16.64,3.32,18.71,12.1l-34.63,4.25Z"/><path class="cls-1" d="m429.68,202.53c-5.82-2.57-12.42-3.58-19.11-2.75-18.5,2.27-32.84,17.73-30.31,38.31,2.53,20.58,20.2,32.25,38.69,29.98.12-.01.23-.04.35-.06v.02s34.29-4.21,34.29-4.21h0l-.93-7.61-7.25-59.01-16.13,1.98.41,3.36Zm-12.57,50.51c-10.01,1.23-19.18-5.55-20.58-16.96-1.37-11.13,5.87-20.06,15.88-21.29,10.01-1.23,19.33,5.67,20.7,16.8,0,.02,0,.05,0,.07h0s2.35,19.12,2.35,19.12l-18.26,2.24s-.06.01-.09.02Z"/><path class="cls-1" d="m109.19,236.78c-18.5,2.27-32.84,17.73-30.31,38.31,2.53,20.58,20.2,32.25,38.69,29.98.12-.01.23-.04.35-.06v.02s34.29-4.21,34.29-4.21h0l-.93-7.61-3.16-25.7-.05-.06c-.03-.29-.03-.56-.06-.85-2.53-20.58-20.32-32.09-38.81-29.82Zm6.54,53.27c-10.01,1.23-19.18-5.55-20.58-16.96-1.37-11.13,5.87-20.06,15.88-21.29s19.33,5.67,20.7,16.8c0,.02,0,.05,0,.07h0s2.35,19.12,2.35,19.12l-18.26,2.24s-.06.01-.09.02Z"/><path class="cls-1" d="m472.75,195.48c-1.16-.91-2.63-1.32-4.1-1.14l-14.06,1.72,1.98,16.13,16.34-2.01.54,4.39,1.47,11.95,4.19,34.14,16.13-1.98-4.19-34.14-1.47-11.95-.26-2.11c-.18-1.46-.93-2.79-2.09-3.7l-14.48-11.31Z"/><path class="cls-3" d="m39.87,370.51l-2.07-16.88-8.66,1.06-.94-7.63,25.01-3.07.94,7.63-8.51,1.04,2.07,16.88,7.18-.88.95,7.71-7.18.88,1.94,15.8c2.74-1.59,5.46-3.25,8.1-4.99l.96,7.79c-6.96,4.46-14.51,8.43-22.65,11.94l-2.72-7.49c3.03-1,5.97-2.14,8.82-3.43l-2.29-18.66-7.62.94-.95-7.71,7.62-.94Zm50.96-32.78l5.45,44.4-7.92.97,1.71,13.95c.13,1.08.58,1.65,1.5,1.77l2.66-.33c.87-.26,1.18-1.4,1.08-3.42-.11-2.1-.38-4.96-.84-8.66l7.13,1.78c.93,7.55.97,12.17.13,13.91-.85,1.67-2.88,2.86-6.25,3.58l-3.33.41c-5.48.67-8.53-1.54-9.13-6.47l-1.92-15.65-5.11.63c.47,11.21-3.72,19.86-12.73,26.05l-4.83-6.29c6.98-4.3,10.42-10.59,10.3-18.87l-7.77.95-5.45-44.4,35.3-4.33Zm-5.86,13.47l-.71-5.78-20.5,2.52.71,5.78,20.5-2.52Zm1.53,12.49l-.76-6.17-20.5,2.52.76,6.17,20.5-2.52Zm.78,6.32l-20.5,2.52.78,6.32,20.5-2.52-.78-6.32Z"/><path class="cls-3" d="m111.46,382.15l-5.78-6.1c7.41-8.19,13.06-17.18,16.91-26.88l-17.24,2.12-.97-7.86,20.94-2.57c.99-3.56,1.75-7.18,2.35-10.85l8.12.02c-.49,3.35-1.15,6.56-1.88,9.78l35.82-4.4.97,7.86-39.22,4.82c-2.09,6.2-4.75,12.09-7.98,17.65l4.63,37.7-7.62.94-3.54-28.83c-1.75,2.25-3.59,4.43-5.5,6.62Zm33.41-17.87l-1.63-13.26,7.84-.96,1.63,13.26,16.95-2.08.96,7.86-16.95,2.08,2.21,18.04,20.13-2.47.97,7.86-46.54,5.71-.97-7.86,18.57-2.28-2.21-18.04-15.91,1.95-.96-7.86,15.91-1.95Z"/><path class="cls-3" d="m210.47,348.55l-21.53,2.64,5.31,43.25-7.7.95-8.46-68.92,29.23-3.59,3.15,25.67Zm-9.94-18.58l-13.99,1.72.5,4.09,13.99-1.72-.5-4.09Zm-12.36,14.98l13.99-1.72-.46-3.78-13.99,1.72.46,3.78Zm15.36,22.29l-.82-6.71-7.03.86-.83-6.78,36.04-4.42.83,6.78-6.29.77.82,6.71,8.58-1.05.85,6.94-8.58,1.05,2.11,17.19-7.03.86-2.11-17.19-9.25,1.14c-.04,4-.52,7.42-1.52,10.28-1.39,3.93-4.07,7.23-8.04,9.75l-4.55-5.86c3.25-2.28,5.33-4.88,6.25-7.81.4-1.61.7-3.45.83-5.5l-8.36,1.03-.85-6.94,8.95-1.1Zm14.86-8.63l-8.81,1.08.82,6.71,8.81-1.08-.82-6.71Zm-3.87-10.71l-3.13-25.52,29.67-3.64,7.36,59.97c.7,5.71-1.6,8.96-6.78,9.6-2.59.32-5.2.48-7.81.65l-2.72-6.86c2.54-.08,4.86-.21,6.93-.46,1.92-.24,2.71-1.74,2.39-4.36l-3.94-32.07-21.98,2.7Zm19.62-21.89l-14.43,1.77.48,3.93,14.43-1.77-.48-3.93Zm-12.83,14.8l14.43-1.77-.45-3.7-14.43,1.77.45,3.7Z"/><path class="cls-3" d="m264.44,324.94c-1.66-3.08-3.44-5.99-5.36-8.81l7.21-3.08c2.36,3.94,4.31,7.53,5.92,10.93l10.58-1.3.96,7.79-17.24,2.12.72,5.86c.13,1.08.19,2.17.32,3.25l14.13-1.74c2.39,19.43,3.48,31.42,3.44,35.96,6.36-4.46,11.19-9.82,14.62-16.12-3.77-5.01-6.91-10.42-9.58-16.27l5.63-4.29c2.07,4.6,4.53,8.76,7.33,12.56,2.28-7.09,3.19-15.02,2.55-23.87l-10.73,1.32c-1.77,7.02-4.33,13.05-7.7,18.08l-5.33-5.45c4.71-8.09,7.35-18.43,7.82-31.09l7.72.46c-.17,3.46-.53,6.72-.96,9.9l20.2-2.48.96,7.79-4.74.58c.87,11.94-.55,22.45-4.15,31.65,4.84,5.2,10.34,9.61,16.59,13.38l-4.46,7.12c-5.94-3.73-11.2-8.01-15.78-12.93-3.8,6.34-8.83,11.88-15.08,16.72l-4.99-6.35c-.45,4.28-3.45,6.76-8.93,7.43-1.04.13-2.76.18-5.31.18l-2.62-6.64c2.24-.12,4.18-.2,5.88-.41,2.29-.28,3.47-1.68,3.63-4.05.01-2.35-.79-10.7-2.38-24.9l-7.18.88c.93,16.16-.69,28.65-4.87,37.45l-6.75-4.81c4.57-9.25,5.69-23.39,3.5-42.45l-.72-5.86-6.88.85-.96-7.79,12.95-1.59Z"/><path class="cls-3" d="m329.75,345.41l-3.57-8.25c6.02-9.66,10.02-20.56,11.97-32.85l7.76,2.65c-1.06,6.08-2.67,11.91-4.89,17.66l6.36,51.8-7.77.95-4.88-39.78c-1.55,2.69-3.19,5.24-4.97,7.81Zm35.02-36.54l-.86-7.02,7.77-.95.86,7.01,19.68-2.42.94,7.63-19.68,2.42.68,5.55,16.95-2.08,2.88,23.43-17.31,2.13c.15,6.09-.3,10.99-1.5,14.74,7.33,2.78,15.5,3.89,24.44,3.26l-.9,7.94c-10,.52-19.05-.95-27.12-4.34-3.6,4.35-9.51,7.58-17.66,9.76l-4.23-6.92c6.52-1.35,11.35-3.58,14.43-6.7-4.3-2.6-8.29-5.71-11.89-9.34l5.4-4.97c3.16,3.13,6.57,5.77,10.2,7.83.79-2.76,1.11-6.24,1.06-10.3l-15.91,1.95-2.88-23.44,16.28-2-.68-5.55-18.2,2.23-.94-7.63,18.2-2.24Zm2.5,20.35l-9.03,1.11,1.12,9.1,9.03-1.11-1.12-9.1Zm17.46-2.14l-9.69,1.19,1.12,9.1,9.69-1.19-1.12-9.1Z"/><path class="cls-3" d="m411.61,367.91l-6.6-4.82c3.57-7.01,4.78-15.53,3.7-25.57l-4.69-38.16,57.35-7.04,7.15,58.2c.73,5.94-1.86,9.31-7.71,10.02l-8.51,1.04-3.04-7.61c3-.05,5.68-.23,8.2-.54,2.22-.27,3.21-1.96,2.85-4.89l-1.32-10.71-17.61,2.16,2.67,21.74-7.84.96-2.67-21.74-16.65,2.04c.21,9.68-1.54,18.03-5.28,24.91Zm1.14-61.65l1.32,10.79,16.28-2-1.33-10.79-16.28,2Zm3.6,29.29l16.28-2-1.36-11.1-16.28,2,1.36,11.1Zm38.14-34.42l-17.61,2.16,1.32,10.79,17.61-2.16-1.33-10.79Zm2.23,18.19l-17.61,2.16,1.36,11.1,17.61-2.16-1.36-11.1Z"/><path class="cls-3" d="m499.19,350.03l-6.96.85-.54-4.39-4.14.51.77,6.24-6.96.85-7.38-60.13,18.06-2.22,7.16,58.28Zm-8.35-10.48l-4.91-40.01-4.14.51,4.91,40.01,4.14-.51Zm11.2,16.54l-2.48-6.74c1.36.07,2.71.06,3.97-.1,1.78-.22,2.56-1.17,2.35-2.87l-2.04-16.65c-1.41.72-2.9,1.45-4.32,2.1l-2.77-7.25c2.09-.73,4.16-1.61,6.16-2.48l-1.94-15.8-5.4.66-.91-7.4,5.4-.66-1.58-12.87,7.1-.87,1.58,12.87,4.66-.57.91,7.4-4.66.57,1.6,13.03c1.53-.97,3.13-2.03,4.65-3.15l.94,7.63c-1.52,1.05-3.13,2.03-4.66,3l2.63,21.43c.59,4.78-1.62,7.55-6.51,8.15l-4.66.57Zm21.38-62.02c-1.79-2.36-3.9-4.84-6.47-7.42l5.23-4.48c3.26,3.28,5.79,6.18,7.61,8.77l-2.9,2.7,13.02-1.6.91,7.4-26.86,3.3-.91-7.4,10.36-1.27Zm5.9,43.17l-6.33,1.64c-2.61-11.5-5.21-21.66-7.72-30.43l6.48-1.66c2.6,8.92,5.11,19.01,7.57,30.45Zm1.39,5.78c1.4-10.58,2.22-23.51,2.3-38.78l7.05,1.09c-.13,13.63-.95,25.94-2.39,36.84l9.32-1.14.95,7.71-31.01,3.81-.95-7.71,14.73-1.81Z"/><path class="cls-3" d="m585.46,283.02l2.97,39.47-6.29.77-6.67-39.01,9.99-1.23Zm4.64,45.13c1.17.95,1.93,2.27,2.14,3.96.21,1.7-.2,3.23-1.11,4.44-1.05,1.22-2.32,1.93-3.94,2.13-1.63.2-3.04-.25-4.2-1.21-1.32-.93-2-2.26-2.21-3.95-.21-1.7.14-3.15,1.19-4.37.9-1.21,2.17-1.91,3.8-2.11,1.63-.2,3.1.17,4.34,1.11Z"/><path class="cls-3" d="m48.66,453.75c.8,7.73.88,15.15.41,22.25l-6.44-1.09c.69-6.66.73-13.63.06-20.9l5.98-.26Zm21.62,12.14l-5.94,2.37c-1.77-5.26-3.82-10.33-6.21-15.12l6.74,54.89-7.62.94-8.71-70.92,7.62-.94,1.82,14.8,5.04-2.42c2.53,4.7,5.01,10.18,7.27,16.4Zm8.96-20.66l-1.33-10.87,7.55-.93,1.33,10.87,15.69-1.93,2.83,23.05,4.81-.59.96,7.86-22.64,2.78c-1.55,13.65-7.11,24.11-16.71,31.55l-5.55-6.05c8.15-5.78,13.01-13.96,14.64-24.57l-13.02,1.6-.97-7.86,14.58-1.79c.07-3.14-.11-6.4-.53-9.79l-.72-5.86-12.28,1.51-.92-7.48,12.28-1.51Zm8.97,10.64c.49,4.01.67,7.9.67,11.58l9.03-1.11-1.91-15.57-8.29,1.02.5,4.08Zm2.84,26.8l4.41-5.71c5.47,4.18,12.27,10.62,20.4,19.33l-4.84,6.46c-5.98-7.09-12.66-13.78-19.97-20.08Z"/><path class="cls-3" d="m145.12,441.52l-26.34,3.23-.96-7.79,26.34-3.23-.9-7.32,7.84-.96.9,7.32,26.42-3.24.96,7.79-26.42,3.24,2.48,20.2c8.75,9.49,19.9,16.49,33.39,21.1l-3.29,8.07c-10.62-3.94-20.21-9.8-28.68-17.61l2.96,24.13-7.84.96-2.95-24.05c-5.79,9.16-13.58,17.24-23.39,24.23l-4.97-6.82c12.08-8.06,21.06-17.53,27-28.51l-2.55-20.74Zm-19.4,31.02l-5.56-5.5c5.3-5.81,8.38-13.08,9.4-21.97l7.27.44c-.43,3.81-1.12,7.42-2.07,10.66,3.46,1.3,6.67,2.94,9.76,4.83l-3.32,7.22c-3.04-2.13-6.04-3.95-9.07-5.3-1.74,3.58-3.89,6.82-6.4,9.63Zm38.72-7.02l-5.59-5.73c4.26-5.06,6.79-11.4,7.57-19.08l7.34.43c-.32,3.48-.9,6.76-1.72,9.84,3.96,1.63,7.73,3.59,11.25,5.97l-3.44,7.47c-3.49-2.7-6.99-4.93-10.35-6.63-1.45,2.84-3.08,5.46-5.06,7.74Z"/><path class="cls-3" d="m204.13,427.86l7.1-.87.89,7.25-22.64,2.78-.89-7.25,8.14-1c-1.19-2.36-2.53-4.7-3.92-6.87l7.06-3.06c1.76,3.31,3.18,6.34,4.26,9.02Zm6.39,11.03l.83,6.78-17.98,2.21-.83-6.78,17.98-2.21Zm1.33,10.79l.83,6.78-17.98,2.21-.83-6.78,17.98-2.21Zm5.29,35.11l-12.73,1.56.44,3.55-6.96.85-3.34-27.21,19.68-2.42,2.91,23.67Zm-7.7-5.79l-1.3-10.56-5.85.72,1.3,10.56,5.85-.72Zm7.27-52.15l-.87-7.09,36.11-4.43c1.94,17.05,2.24,27.42.73,31.05-1.59,3.56-4.79,5.67-9.52,6.26-1.33.16-2.91.2-4.71.19l-2.7-6.71,4.93-.21c3.1-.46,4.88-1.85,5.48-4.27.46-2.4.24-8.48-.82-18.29l-6.73.83c-.54,6.01-1.75,11.41-3.63,16.33-2.68,5.73-6.97,11.11-12.88,16.21l-5.53-5.89c4.13-3.09,7.4-6.39,9.67-9.95-3.26-2.1-6.88-4.01-10.91-5.62l3.43-5.74c3.8,1.57,7.25,3.41,10.35,5.38.99-2.94,1.64-6.23,1.95-9.79l-14.36,1.76Zm9.52,36.55c-.12,8.78-.83,16.46-2.2,23.04l-6.64-3.33c1.46-6.44,2.28-13.27,2.3-20.39l6.54.68Zm11.09,22.43c-4.44.54-6.97-1.73-7.58-6.66l-2.39-19.43,7.03-.86,2.19,17.81c.16,1.31.84,1.93,2.02,1.79l6.51-.8c.74-.09,1.28-.55,1.63-1.37.34-.9.33-3.41-.02-7.51l6.85,1.35c.36,6.61-.04,10.65-1.08,12.03-1.12,1.31-2.89,2.16-5.26,2.45l-9.92,1.22Zm10.9-20.12l-5.65,3.51c-2.36-4.56-4.81-8.57-7.33-11.93l5.81-2.83c2.67,3.43,5.01,7.13,7.17,11.25Zm15.49,8.66l-5.99,3.79c-2.7-7.26-5.58-13.63-8.5-19.07l6.31-3.04c2.87,5.67,5.57,11.76,8.18,18.32Z"/><path class="cls-3" d="m277.85,418.26l6.81-.84.9,7.32-22.13,2.72-.9-7.32,8.07-.99c-1.09-2.14-2.25-4.26-3.48-6.3l7.07-2.98c1.51,3.1,2.75,5.84,3.66,8.39Zm6.52,11.48l.81,6.63-17.98,2.21-.81-6.63,17.98-2.21Zm1.34,10.95l.81,6.63-17.98,2.21-.81-6.63,17.98-2.21Zm5.55,38.44l-6.96.85-.39-3.16-5.55.68.4,3.24-6.96.85-3.34-27.21,19.46-2.39,3.33,27.13Zm-8.2-9.24l-1.26-10.25-5.55.68,1.26,10.25,5.55-.68Zm31.28-3.45c1.75-2.88,3.42-5.82,4.85-8.81-1.31-4.53-2.78-12.26-4.43-23.24l-27.23,3.34-.89-7.25,5.77-.71c-.9-3.02-1.77-5.89-2.69-8.43l-2.37.29-.85-6.94,7.7-.94c-.88-1.69-1.83-3.3-2.76-4.75l7.25-2.14c.82,1.78,1.74,3.78,2.62,6.02l7.84-.96.85,6.94-2.22.27c.08,3.12-.01,6.03-.12,8.78l6.07-.75c-.92-6.3-1.8-13.4-2.75-21.18l6.81-.84c.98,7.94,1.85,15.03,2.75,21.18l10.73-1.32.89,7.25-10.66,1.31c.73,4.76,1.39,8.91,1.98,12.43.99-3.56,1.82-7.19,2.49-10.95l6.46,1.87c-1.58,7.94-3.71,15.09-6.31,21.43,1.31,4.53,2.43,6.98,3.39,7.41.8-.25,1.16-3.43,1.02-9.44l6.06,3.48c-.12,9.41-2,14.33-5.55,14.77-1.92.24-3.79-.86-5.59-3.3-1.16-1.5-2.19-3.17-3.02-5.03-2.08,3.86-4.29,7.26-6.76,10.38l-5.68-4.08c1.17-1.47,2.34-2.95,3.36-4.48l-12.14,1.49.46,3.78-6.36.78-4.08-33.23,19.68-2.42,3.44,27.98Zm-12.85-46.55l-5.77.71c.78,2.64,1.57,5.44,2.39,8.47l3.48-.43c.03-2.82-.03-5.79-.1-8.75Zm4.39,30.84l-.65-5.32-6.88.84.65,5.32,6.88-.84Zm1.44,11.72l-.71-5.78-6.88.84.71,5.78,6.88-.84Zm22.93-41.47l-5.3,2.14c-1.6-4.5-3.48-8.73-5.61-12.69l5.25-2.52c1.96,3.75,3.85,8.13,5.66,13.08Z"/><path class="cls-3" d="m341.68,441.33l-3.65-8.32c6.55-9.65,10.92-20.59,13.17-32.84l7.61,2.67c-1.19,6.25-3,12.26-5.45,18.04l6.29,51.19-7.7.94-4.88-39.78c-1.69,2.71-3.46,5.43-5.39,8.1Zm22.13-10l-7.19-3.5c4.42-9.23,7.16-18.8,8.19-28.71l7.45.73c-.31,2.39-.69,4.78-1.08,7.1l30.86-3.79.64,5.24c-.54,4.76-1.39,9.48-2.53,14.24l-7.67-1.33c1.16-2.8,1.97-5.95,2.59-9.47l-25.6,3.14c-1.53,5.9-3.41,11.37-5.66,16.34Zm10.88.54c-1.29,10.88-3.49,20.54-6.51,28.97l-7.58-1.81c2.98-7.57,5.27-17,6.89-28.31l7.2,1.15Zm.28,37.76l-2.63-7.35c3-.05,5.91-.18,8.58-.51,1.78-.22,2.54-1.33,2.3-3.26l-4.82-39.24,7.47-.92,5.05,41.17c.65,5.32-1.53,8.33-6.56,8.94l-9.4,1.15Zm35.24-15.83l-6.42,4c-4.03-10.77-8.27-20.27-12.65-28.42l6.51-3.23c4.58,8.51,8.79,17.78,12.56,27.64Z"/><path class="cls-3" d="m445.2,456.71l-7.4.91-.47-3.85-10.95,1.34.75,6.09-7.4.91-6.91-56.27,7.1-.87c.83-4.25,1.27-8.61,1.32-13.07l7.9.12c-.3,4.26-.93,8.33-1.83,12.04l11.25-1.38,6.63,54.04Zm-11.45-32.08l-1.66-13.49-10.95,1.34,1.66,13.49,10.95-1.34Zm2.67,21.74l-1.79-14.57-10.95,1.34,1.79,14.57,10.95-1.34Zm45.28,1.72c-.08,5.49-3.3,8.62-9.66,9.4-1.48.18-4.16.35-8.05.52l-2.75-7.1c3.28-.17,6.19-.37,8.63-.67,2.66-.33,4.03-2.06,4.1-5.12,0-3.75-1.35-16.5-3.88-38.34l-17.91,2.2c-1.43,4.87-3.29,9.32-5.57,13.36l-5.45-5.83c4-7.85,6.15-17.19,6.63-27.97l7.74.07c-.23,4.25-.71,8.3-1.36,12.14l22.5-2.76c3.31,26.98,4.99,43.68,5.02,50.09Zm-14.39-13.18l-5.67,5.23c-3.36-4.75-7.75-9.92-13.1-15.53l5.79-4.86c5.5,5.66,9.8,10.69,12.98,15.15Z"/><path class="cls-3" d="m546.44,378.24l.74,6.01-25.46,3.13.28,2.31,28.34-3.48,1.71,13.95-7.1.87-1.01-8.25-21.24,2.61,1.6,13.03-7.25.89-1.6-13.03-21.24,2.61,1.01,8.25-7.1.87-1.71-13.95,28.34-3.48-.28-2.31-25.53,3.13-.74-6.01,58.24-7.15Zm-37.12,34.14l1.63,13.26-18.35,2.25-1.63-13.26,18.35-2.25Zm43.08,10.67l.74,6.01-7.92.97c-.13.8-.26,1.52-.46,2.33,3,1.2,6.02,2.55,9.06,4.05l-2.22,4.58,6.37-.78.79,6.4-65.86,8.09-.79-6.4,8.21-1.01-4.52-3.2c3.55-2.94,5.89-5.89,7.03-8.84l-8.66,1.06-.74-6.01,58.98-7.24Zm-38.49-14.29c-2.89.9-7.79,1.97-14.78,3.22l-1.9-4.46c6.94-1.01,11.86-1.92,14.76-2.75l1.92,3.99Zm-1.01-9.42l-1.11,4.44c-4.68-.21-9.47-.09-14.4.2l1.55-4.5c4.77-.27,9.43-.3,13.95-.15Zm-9.02,18.32l-6.22.76.51,4.16,6.22-.76-.51-4.16Zm-1.87,29.42l11.99-1.47c-3.15-1.8-5.64-3.06-7.54-3.85-1.27,1.88-2.71,3.62-4.45,5.32Zm6.84-10.39c2.75.99,5.52,2.14,8.38,3.43l-2.57,5.4,6.88-.84-1.42-11.56-10.73,1.32c-.13.8-.34,1.53-.55,2.26Zm21.34-26.88l1.63,13.26-18.28,2.24-1.63-13.26,18.28-2.24Zm-5.44,5.28l-6.29.77.51,4.16,6.29-.77-.51-4.16Zm1.48-17.32c4.99-.93,9.44-2.02,13.33-3.36l2.26,4.34c-3.99,1.12-8.74,2.25-14.17,3.23l-1.42-4.21Zm16.94,4.57l-1.29,4.77c-4.84-.27-9.73-.29-14.81-.14l1.45-4.09c5.07-.31,9.93-.51,14.66-.55Zm-10.86,37.56c3.31-2.99,5.42-5.99,6.4-9.08l-11.47,1.41,1.42,11.56,7.7-.94-4.04-2.95Zm18.75-32.66l1.63,13.26-18.28,2.24-1.63-13.26,18.28-2.24Zm-12.34,35.32l10.8-1.33c-2.91-1.68-5.17-2.96-6.92-3.77-1.06,1.77-2.35,3.5-3.88,5.09Zm6.75-30.02l-6.14.75.51,4.16,6.14-.75-.51-4.16Z"/><path class="cls-3" d="m587.51,397.06l.95,7.71-10.43,1.28c-1.08,10.15-2.17,17.79-3.34,22.95,3.07-1.32,6.11-2.86,9.05-4.55-1.62-3.4-3.21-6.57-4.75-9.35l5.55-3.73c3.18,5.71,6.35,11.97,9.61,18.93l-6.03,4.11c-.62-1.41-1.16-2.75-1.69-3.94-5.64,3.04-11.69,5.74-18.32,8.04l-2.48-6.74c.57-.23,1.06-.52,1.4-.8,1.34-3.14,2.61-11.2,3.89-24.03l-9.18,1.13-.95-7.71,26.71-3.28Zm-4.64-18.84l.93,7.56-21.24,2.61-.93-7.56,21.24-2.61Zm14.1-1.42c.63-2.19,1.04-4.35,1.22-6.57l7.83.13c-.36,1.92-.9,3.71-1.58,5.52l17.32-2.13,4.21,34.3-11.84,1.45,1.52,12.41c1.08-3.42,1.78-7.5,2.25-12.25l5.31,1.07c-.22,1.28-.45,2.48-.67,3.68l3.28-1.42c2.55,3.68,4.55,7.11,6,10.3l-4.16,2.23c-.4-.81-.73-1.63-1.12-2.37-2.94,1.77-5.92,3.15-9.05,4.01l-1.58-3.09.66,5.4c.2,1.62,1.12,2.37,2.75,2.17l5.11-.63c.59-.07,1.16-.38,1.71-.76.48-.37.66-1.96.62-4.69l6.47,1.32c-.17,4.72-.64,7.59-1.51,8.48-1.09.92-2.73,1.59-4.8,1.92l-8.66,1.06c-4.74.58-7.42-1.67-8.04-6.76l-2.61-21.28-1.7.21c1.29,11.74-2.17,22.72-10.38,32.89l-6.17-4.41c7.8-8.63,11.1-17.87,10.05-27.68l-8.29,1.02-4.21-34.3,10.06-1.24Zm5.39,13.34l-.84-6.86-7.03.86.84,6.86,7.03-.86Zm.83,6.78l-7.03.86.84,6.86,7.03-.86-.84-6.86Zm5.98-7.62l7.55-.93-.84-6.86-7.55.93.84,6.86Zm8.38,5.86l-7.55.93.84,6.86,7.55-.93-.84-6.86Zm3.01,26.39c1.43-.57,2.77-1.28,4.02-2.14-.76-1.32-1.53-2.63-2.28-3.87-.48,2.17-1.06,4.2-1.74,6Z"/><path class="cls-3" d="m653.7,366.55c-1.06,6.08-2.73,11.99-4.9,17.58l6.36,51.8-7.62.94-4.89-39.86c-1.54,2.69-3.18,5.32-4.96,7.89l-3.65-8.32c6.04-9.58,10.03-20.48,11.98-32.77l7.7,2.73Zm16.05,15.09l-7.02,2.82c-2.17-4.82-4.69-9.44-7.56-13.86l7.02-3.37c2.68,4.13,5.22,8.91,7.55,14.41Zm4.19,4.18l-2.98-24.28,7.84-.96,2.98,24.28,18.5-2.27.94,7.63-18.5,2.27,1.24,10.1,20.5-2.52.96,7.86-20.5,2.52,2.63,21.43-7.84.96-2.63-21.43-20.05,2.46-.96-7.86,20.05-2.46-1.24-10.1-17.91,2.2-.94-7.63,17.91-2.2Zm22.65-22.34c-.83,6.67-2.29,12.57-4.27,17.82l-7.43-1.75c1.84-4.61,3.17-10.33,4.05-17.17l7.65,1.1Z"/><path class="cls-3" d="m711.53,395.76l-3.43-7.72c6.32-9.7,10.6-20.71,12.7-33.02l7.45,2.53c-1.08,5.85-2.65,11.44-4.84,16.87l6.43,52.34-7.7.94-4.98-40.55c-1.75,2.88-3.58,5.76-5.63,8.59Zm23.78-11.29l-3.35-27.29,36.33-4.46,3.35,27.29-15.83,1.94c-.16,2.37-.34,4.58-.6,6.73l20.42-2.51,4.2,34.23-7.7.94-.51-4.16-27.68,3.4.51,4.16-7.47.92-4.2-34.23,14.8-1.82c.4-2.24.64-4.54.82-6.75l-13.1,1.61Zm26.33-23.58l-21.46,2.64,1.59,12.95,21.46-2.64-1.59-12.95Zm9.08,48.89l-1.88-15.34-27.68,3.4,1.88,15.34,27.68-3.4Z"/><path class="cls-3" d="m819.24,351.63l2.97,39.46-6.29.77-6.67-39.01,9.99-1.23Zm4.64,45.13c1.17.95,1.93,2.27,2.14,3.96.21,1.7-.2,3.23-1.11,4.44-1.05,1.23-2.32,1.93-3.94,2.13-1.63.2-3.04-.25-4.21-1.21-1.32-.93-2-2.26-2.21-3.95-.21-1.7.14-3.15,1.19-4.37.9-1.21,2.17-1.91,3.8-2.11,1.63-.2,3.1.17,4.34,1.11Z"/></svg>