<?xml version="1.0" encoding="UTF-8"?><svg id="_設計" xmlns="http://www.w3.org/2000/svg" xmlns:xlink="http://www.w3.org/1999/xlink" viewBox="0 0 705.01 118"><defs><style>.cls-1{fill:#5f00ae;}.cls-2{fill:#00cde6;}.cls-3,.cls-4{fill:none;}.cls-4{clip-path:url(#clippath);}.cls-5{fill:#f3f3f3;}</style><clipPath id="clippath"><rect class="cls-3" x="-2275.79" y="-306.51" width="1124" height="1439.7"/></clipPath></defs><path class="cls-1" d="m666.63,63.72v-11.97c0-21.4-17.35-38.75-38.75-38.75H43.75C22.35,13,5,30.35,5,51.75v22.5c0,21.4,17.35,38.75,38.75,38.75h584.13c8.22,0,15.83-2.57,22.11-6.93,6.94,4.39,21.17,6.93,29.99,6.93,4.17,0,8.2-.58,12.03-1.64-12.11-5.99-25.38-26.16-25.38-47.64Z"/><path class="cls-1" d="m679.98,118c-7.61,0-21.02-1.91-29.78-6.12-6.74,4.01-14.4,6.12-22.32,6.12H43.75C19.63,118,0,98.37,0,74.25v-22.5C0,27.63,19.63,8,43.75,8h584.13c24.12,0,43.75,19.63,43.75,43.75v11.97c0,19.14,11.68,37.77,22.59,43.16,1.86.92,2.96,2.89,2.76,4.95-.2,2.06-1.64,3.79-3.64,4.35-4.36,1.21-8.86,1.82-13.37,1.82ZM43.75,18c-18.61,0-33.75,15.14-33.75,33.75v22.5c0,18.61,15.14,33.75,33.75,33.75h584.13c6.92,0,13.58-2.09,19.25-6.03,1.65-1.15,3.83-1.2,5.53-.12,5.71,3.61,18.34,6.06,26.83,6.15-9.74-10.09-17.86-26.69-17.86-44.28v-11.97c0-18.61-15.14-33.75-33.75-33.75H43.75Z"/><path class="cls-5" d="m674.63,55.72v-11.97c0-21.4-17.35-38.75-38.75-38.75H51.75C30.35,5,13,22.35,13,43.75v22.5c0,21.4,17.35,38.75,38.75,38.75h584.13c8.22,0,15.83-2.57,22.11-6.93,6.94,4.39,21.17,6.93,29.99,6.93,4.17,0,8.2-.58,12.03-1.64-12.11-5.99-25.38-26.16-25.38-47.64Z"/><path class="cls-5" d="m687.98,110c-7.61,0-21.02-1.91-29.78-6.12-6.74,4.01-14.4,6.12-22.32,6.12H51.75c-24.12,0-43.75-19.63-43.75-43.75v-22.5C8,19.63,27.63,0,51.75,0h584.13c24.12,0,43.75,19.63,43.75,43.75v11.97c0,19.14,11.68,37.77,22.59,43.16,1.86.92,2.96,2.89,2.76,4.95-.2,2.06-1.64,3.79-3.64,4.35-4.36,1.21-8.86,1.82-13.37,1.82ZM51.75,10c-18.61,0-33.75,15.14-33.75,33.75v22.5c0,18.61,15.14,33.75,33.75,33.75h584.13c6.92,0,13.58-2.09,19.25-6.03,1.65-1.15,3.83-1.2,5.53-.12,5.71,3.61,18.34,6.06,26.83,6.15-9.74-10.09-17.86-26.69-17.86-44.28v-11.97c0-18.61-15.14-33.75-33.75-33.75H51.75Z"/><g class="cls-4"><path class="cls-2" d="m-760,1080.93c-40.84-7.44-79.89-21.45-116.54-41.83-44.99-25.03-85.71-59.4-121.03-102.16-54.61-66.13-92.06-154.82-117.83-279.11-19.52-94.14-30.27-198.51-40.65-299.44-9.81-95.29-19.95-193.82-36.97-274.67-19.04-90.43-40.7-130.43-55.52-148.06-17.72-21.08-45.7-37.17-78.8-45.32-33.97-8.36-70.15-7.24-99.26,3.08-5.13,1.82-21.05,8.73-58.04,33.55-32.3,21.68-71.25,50.68-112.49,81.39-93.86,69.89-210.67,156.87-343.66,229.16-75.62,41.1-147.54,72.85-219.87,97.06-84.58,28.31-169.23,45.62-251.59,51.44-3.28.23-6.51.47-9.68.7-39.42,2.88-84.1,6.15-132.43-5.68-63.43-15.51-116.47-52.98-157.66-111.37l260.69-183.9c-6.78-7.08-22.11-14.73-31.65-15.6,5.98.54,24.36-.8,37.79-1.78,3.42-.25,6.9-.5,10.44-.75,247.07-17.46,478.23-189.6,647.01-315.28,99.61-74.18,178.29-132.77,254.53-159.79,44.72-15.85,92.32-24.81,141.47-26.64,47.21-1.75,94.55,3.12,140.71,14.48,47.25,11.63,91.88,29.74,132.65,53.8,44.05,26.01,82.46,58.33,114.18,96.06,32.22,38.34,58.5,83.8,80.34,139,17.08,43.16,31.2,91.79,43.18,148.67,20.48,97.26,31.49,204.27,42.14,307.75,10.01,97.25,19.46,189.11,35.68,267.3,18.9,91.13,40.33,127.27,51.41,140.69,23.44,28.38,42.26,33.16,56.04,34.15,32.28,2.32,77.97-15.33,128.66-49.71,30.08-20.4,59.86-42.7,88.67-64.27,43.61-32.65,88.7-66.41,137.65-95.95,60.76-36.67,119.31-61.63,178.99-76.32,35.16-8.65,71.51-13.88,108.04-15.53,37.82-1.71,77.16.34,116.94,6.11,80.08,11.61,163.9,37.96,256.25,80.58,3.79,1.75,11.82,4.9,18.9,7.67,38.03,14.91,90.12,35.33,130.53,78.21l-232.27,218.9c8.22,8.72,14.55,12.4,14.82,12.55-5.05-2.9-20.4-8.91-29.57-12.51-11.72-4.59-23.83-9.34-36.14-15.02-149.2-68.85-226.24-62.1-271.21-51.03-28.38,6.98-57.09,19.59-90.36,39.67-35.31,21.31-72.2,48.93-111.26,78.17-31.74,23.77-64.56,48.34-100.81,72.93-112.95,76.61-224.21,111.57-330.7,103.91-14.08-1.01-27.98-2.77-41.67-5.27ZM-2450.32,86.94s0,0,0,0c0,0,0,0,0,0Z"/></g></svg>