<?xml version="1.0" encoding="UTF-8"?><svg id="_設計" xmlns="http://www.w3.org/2000/svg" viewBox="0 0 753.96 118"><defs><style>.cls-1{fill:#5f00ae;}.cls-2{fill:#f3f3f3;}</style></defs><path class="cls-1" d="m38.38,63.72v-11.97c0-21.4,17.35-38.75,38.75-38.75h633.09c21.4,0,38.75,17.35,38.75,38.75v22.5c0,21.4-17.35,38.75-38.75,38.75H77.13c-8.22,0-15.83-2.57-22.11-6.93-6.94,4.39-21.17,6.93-29.99,6.93-4.17,0-8.2-.58-12.03-1.64,12.11-5.99,25.38-26.16,25.38-47.64Z"/><path class="cls-1" d="m710.21,118H77.12c-7.92,0-15.57-2.11-22.32-6.12-8.76,4.21-22.17,6.12-29.78,6.12-4.51,0-9-.61-13.37-1.82-2-.55-3.45-2.28-3.64-4.35-.2-2.06.9-4.03,2.76-4.95,10.91-5.39,22.59-24.02,22.59-43.16v-11.97c0-24.12,19.63-43.75,43.75-43.75h633.09c24.12,0,43.75,19.63,43.75,43.75v22.5c0,24.12-19.63,43.75-43.75,43.75ZM55.02,101.07c1,0,2,.3,2.86.9,5.67,3.95,12.33,6.03,19.25,6.03h633.09c18.61,0,33.75-15.14,33.75-33.75v-22.5c0-18.61-15.14-33.75-33.75-33.75H77.12c-18.61,0-33.75,15.14-33.75,33.75v11.97c0,10.74-3.12,22.15-8.8,32.11-2.63,4.62-5.71,8.76-9.02,12.17,8.49-.1,21.09-2.55,26.79-6.15.82-.52,1.75-.77,2.67-.77Z"/><path class="cls-2" d="m30.38,55.72v-11.97c0-21.4,17.35-38.75,38.75-38.75h633.09c21.4,0,38.75,17.35,38.75,38.75v22.5c0,21.4-17.35,38.75-38.75,38.75H69.13c-8.22,0-15.83-2.57-22.11-6.93-6.94,4.39-21.17,6.93-29.99,6.93-4.17,0-8.2-.58-12.03-1.64,12.11-5.99,25.38-26.16,25.38-47.64Z"/><path class="cls-2" d="m702.21,110H69.12c-7.92,0-15.57-2.11-22.32-6.12-8.76,4.21-22.17,6.12-29.78,6.12-4.51,0-9-.61-13.37-1.82-2-.55-3.45-2.28-3.64-4.35-.2-2.06.9-4.03,2.76-4.95,10.91-5.39,22.59-24.02,22.59-43.16v-11.97C25.37,19.63,45,0,69.12,0h633.09c24.12,0,43.75,19.63,43.75,43.75v22.5c0,24.12-19.63,43.75-43.75,43.75ZM47.02,93.07c1,0,2,.3,2.86.9,5.67,3.95,12.33,6.03,19.25,6.03h633.09c18.61,0,33.75-15.14,33.75-33.75v-22.5c0-18.61-15.14-33.75-33.75-33.75H69.12c-18.61,0-33.75,15.14-33.75,33.75v11.97c0,10.74-3.12,22.15-8.8,32.11-2.63,4.62-5.71,8.76-9.02,12.17,8.49-.1,21.09-2.55,26.79-6.15.82-.52,1.75-.77,2.67-.77Z"/></svg>