<?xml version="1.0" encoding="UTF-8"?><svg id="_設計" xmlns="http://www.w3.org/2000/svg" viewBox="0 0 615.35 118"><defs><style>.cls-1{fill:#5f00ae;}.cls-2{fill:#f3f3f3;}</style></defs><path class="cls-1" d="m576.97,63.72v-11.97c0-21.4-17.35-38.75-38.75-38.75H43.75C22.35,13,5,30.35,5,51.75v22.5c0,21.4,17.35,38.75,38.75,38.75h494.47c8.22,0,15.83-2.57,22.11-6.93,6.94,4.39,21.17,6.93,29.99,6.93,4.17,0,8.2-.58,12.03-1.64-12.11-5.99-25.38-26.16-25.38-47.64Z"/><path class="cls-1" d="m590.32,118c-7.61,0-21.02-1.91-29.78-6.12-6.74,4.01-14.4,6.12-22.32,6.12H43.75C19.63,118,0,98.37,0,74.25v-22.5C0,27.63,19.63,8,43.75,8h494.47c24.12,0,43.75,19.63,43.75,43.75v11.97c0,19.14,11.68,37.77,22.59,43.16,1.86.92,2.96,2.89,2.76,4.95-.2,2.06-1.64,3.79-3.64,4.35-4.36,1.21-8.86,1.82-13.37,1.82ZM43.75,18c-18.61,0-33.75,15.14-33.75,33.75v22.5c0,18.61,15.14,33.75,33.75,33.75h494.47c6.92,0,13.58-2.09,19.25-6.03,1.65-1.15,3.83-1.2,5.53-.12,5.71,3.61,18.3,6.05,26.79,6.15-3.3-3.41-6.38-7.55-9.02-12.17-5.67-9.96-8.8-21.36-8.8-32.11v-11.97c0-18.61-15.14-33.75-33.75-33.75H43.75Z"/><path class="cls-2" d="m584.97,55.72v-11.97c0-21.4-17.35-38.75-38.75-38.75H51.75C30.35,5,13,22.35,13,43.75v22.5c0,21.4,17.35,38.75,38.75,38.75h494.47c8.22,0,15.83-2.57,22.11-6.93,6.94,4.39,21.17,6.93,29.99,6.93,4.17,0,8.2-.58,12.03-1.64-12.11-5.99-25.38-26.16-25.38-47.64Z"/><path class="cls-2" d="m598.32,110c-7.61,0-21.02-1.91-29.78-6.12-6.74,4.01-14.4,6.12-22.32,6.12H51.75c-24.12,0-43.75-19.63-43.75-43.75v-22.5C8,19.63,27.63,0,51.75,0h494.47c24.12,0,43.75,19.63,43.75,43.75v11.97c0,19.14,11.68,37.77,22.59,43.16,1.86.92,2.96,2.89,2.76,4.95-.2,2.06-1.64,3.79-3.64,4.35-4.36,1.21-8.86,1.82-13.37,1.82ZM51.75,10c-18.61,0-33.75,15.14-33.75,33.75v22.5c0,18.61,15.14,33.75,33.75,33.75h494.47c6.92,0,13.58-2.09,19.25-6.03,1.65-1.15,3.83-1.2,5.53-.12,5.71,3.61,18.3,6.05,26.79,6.15-3.3-3.41-6.38-7.55-9.02-12.17-5.67-9.96-8.8-21.36-8.8-32.11v-11.97c0-18.61-15.14-33.75-33.75-33.75H51.75Z"/></svg>