<svg xmlns="http://www.w3.org/2000/svg" xmlns:xlink="http://www.w3.org/1999/xlink" width="148.004" height="139.285" viewBox="0 0 148.004 139.285">
  <defs>
    <clipPath id="clip-path">
      <rect id="矩形_11" data-name="矩形 11" width="148.004" height="139.285" fill="#7600da"/>
    </clipPath>
  </defs>
  <g id="组_63" data-name="组 63" transform="translate(-185.998 -2958)">
    <g id="组_20" data-name="组 20" transform="translate(185.998 2958)">
      <g id="组_19" data-name="组 19">
        <g id="组_18" data-name="组 18" clip-path="url(#clip-path)">
          <path id="路径_50" data-name="路径 50" d="M134.728,139.285H13.276A13.243,13.243,0,0,1,0,126.075V13.21A13.243,13.243,0,0,1,13.276,0H134.728A13.243,13.243,0,0,1,148,13.21V126.075a13.243,13.243,0,0,1-13.276,13.21" fill="#7600da"/>
        </g>
      </g>
    </g>
    <text id="醫美解密" transform="translate(230.998 3077.866)" fill="#fff" font-size="14" font-family="SourceHanSansTC-Regular, Source Han Sans TC"><tspan x="0" y="0" letter-spacing="0.05em">醫美解</tspan><tspan y="0">密</tspan></text>
    <g id="组_58" data-name="组 58" transform="translate(-46.644)">
      <path id="路径_51" data-name="路径 51" d="M128.132,150.633c-3.5,0-5.668-2.161-5.668-5.638q0-14.7,0-29.4c0-3.465,2.178-5.619,5.684-5.621h3.318V81.738c0-1.185.119-1.307,1.274-1.307h37.2c1.108,0,1.247.142,1.248,1.266v3.214h2.265l1.153,0c.89,0,1.082.195,1.082,1.08,0,3.9,0,11.6,0,15.5v5.125l1.659,0c.242,0,.482,0,.722.006.343.006.687.008,1.031.008l1.533,0a29.081,29.081,0,0,1,3.361.15,6.161,6.161,0,0,1,5.177,5.868,3.967,3.967,0,0,1-.185,1.117q-2.707,9.8-5.421,19.6l-3.244,11.723a8.28,8.28,0,0,0-.186.933,5.24,5.24,0,0,1-5.382,4.616q-5.328,0-10.656,0Zm46.371-1.456c2.724,0,4.225-1.484,4.225-4.179q0-11.9,0-23.8a3.794,3.794,0,0,0-4.167-4.166H163.843q-8.284,0-16.568.011A1.614,1.614,0,0,1,146,116.53c-1.671-1.7-3.173-3.193-4.591-4.553a2.016,2.016,0,0,0-1.294-.524c-2.527-.018-5.049-.02-6.963-.02l-5.065,0a3.794,3.794,0,0,0-4.159,4.173q0,14.7,0,29.4c0,2.691,1.5,4.172,4.232,4.172H174.5Zm6.1-41.111c-.787,0-1.573.009-2.36.017-.679.007-1.358.015-2.038.017a.481.481,0,0,0-.367.19l-.127.116-.007.181v6.963l.268.09c3.035,1.019,4.218,2.641,4.218,5.784V137.36l.589-.338a.746.746,0,0,0,.377-.48l.31-1.116q3.086-11.121,6.165-22.244a2.211,2.211,0,0,0,.062-.839,4.781,4.781,0,0,0-4.445-4.233c-.795-.03-1.635-.044-2.645-.044m-39.884,1.9a1.715,1.715,0,0,1,1.354.562c.781.8,1.588,1.6,2.368,2.377.7.695,1.4,1.389,2.091,2.093a1.876,1.876,0,0,0,1.442.59q6.219-.014,12.426-.012h9.28V81.937H132.962v28.042l4.45.005c1.1,0,2.184,0,3.272-.017Zm30.519,5.578h2.949V86.4H171.24Z" transform="translate(151.179 2904.131)" fill="#00cde6"/>
      <path id="路径_52" data-name="路径 52" d="M185.532,229.575c-.706,0-.879-.174-.881-.883,0-1.015,0-2.03,0-3.076V223.9l-3.257,0q-.817,0-1.635,0c-.6,0-.8-.2-.8-.782q-.01-3.6,0-7.2c0-.613.2-.8.841-.8.617,0,1.234,0,1.856,0h3v-2.129c0-.917,0-1.835,0-2.753,0-.571.2-.784.739-.786q1.839-.006,3.678-.007t3.677.007c.533,0,.732.216.734.791.005,1.051,0,2.1,0,3.179v1.7h3.043l1.759,0c.719,0,.895.172.9.869q.005,3.513,0,7.025c0,.726-.175.893-.931.895h-4.767v4.618c0,.935-.12,1.053-1.068,1.053h-3.885l-3,0m-.765-6.9c1.024,0,1.118.094,1.118,1.12v4.526h6.363v-1.68c0-1.071,0-2.124,0-3.176,0-.591.2-.782.8-.788q.493,0,.986,0l1.5,0H197.9v-6.333h-4.531c-1.025,0-1.119-.094-1.119-1.119V210.71h-6.363v1.677c0,1.064,0,2.115,0,3.166,0,.585-.205.784-.8.789q-.513,0-1.027,0l-1.58,0h-2.241v6.333h4.531Z" transform="translate(113.441 2817.728)" fill="#00cde6"/>
      <path id="路径_53" data-name="路径 53" d="M178.932,117.547v-.493q0-1.009,0-2.023c0-.942-.205-1.9-1.694-1.9-.068,0-.139,0-.213.006-.108.005-.215.008-.32.008a3.161,3.161,0,0,1-3.27-2.084l-.1-.248h-3.1l-.1.247a3,3,0,0,1-2.337,2,5.957,5.957,0,0,1-1.014.056c-.157,0-.314,0-.47,0a1.542,1.542,0,0,0-1.674,1.686c-.008.713-.006,1.426,0,2.157v.584h-1.4c0-.277-.013-.555-.021-.833a17.423,17.423,0,0,1,.055-2.671,2.816,2.816,0,0,1,2.885-2.378h.042c.1,0,.2.006.3.013.117.007.234.014.349.014a1.783,1.783,0,0,0,.532-.07,1.982,1.982,0,0,0,1.22-.847,1.875,1.875,0,0,0-.134-1.558,4.594,4.594,0,0,1-.786-2.554c.008-.294.007-.59.006-.885a11.371,11.371,0,0,1,.113-2.051,4.015,4.015,0,0,1,3.988-3.263c.115,0,.23,0,.347.014a4.093,4.093,0,0,1,3.755,4c.015.644.011,1.3.006,1.938l0,.359a4.142,4.142,0,0,1-.827,2.446,1.529,1.529,0,0,0-.167,1.541,1.547,1.547,0,0,0,1.282.885c.154.015.323.021.531.021l.569-.005c.086,0,.171,0,.257,0a2.945,2.945,0,0,1,2.84,2.743c.037.788.028,1.57.019,2.4q0,.366-.007.737Zm-7.145-15.625a2.644,2.644,0,0,0-2.637,2.5c-.016.285-.012.569-.008.843,0,.123,0,.245,0,.367s0,.26,0,.39c0,.29-.008.589.008.89a2.638,2.638,0,0,0,5.267.038c.041-.842.042-1.7,0-2.555a2.619,2.619,0,0,0-2.61-2.473Z" transform="translate(123.968 2890.716)" fill="#00cde6"/>
      <path id="路径_54" data-name="路径 54" d="M229.4,106.4h-2.513q-.852,0-1.7,0c-.793,0-1.011-.221-1.014-1.009,0-1.1-.009-2.538,0-3.984,0-.7.242-.937.94-.939q2.12-.005,4.241-.005,2.168,0,4.336.005c.7,0,.938.238.943.937.01,1.334.01,2.7,0,4.053,0,.7-.243.936-.943.94q-.877.005-1.753,0Zm-3.726-1.505h7.464v-2.938h-7.464Z" transform="translate(83.231 2890.716)" fill="#00cde6"/>
      <rect id="矩形_12" data-name="矩形 12" width="10.395" height="1.377" transform="translate(307.444 3000.173)" fill="#00cde6"/>
      <rect id="矩形_13" data-name="矩形 13" width="10.379" height="1.386" transform="translate(307.451 3004.66)" fill="#00cde6"/>
      <rect id="矩形_14" data-name="矩形 14" width="10.375" height="1.382" transform="translate(307.441 3009.13)" fill="#00cde6"/>
      <rect id="矩形_15" data-name="矩形 15" width="10.377" height="1.373" transform="translate(307.434 3013.615)" fill="#00cde6"/>
    </g>
  </g>
</svg>
