<svg xmlns="http://www.w3.org/2000/svg" xmlns:xlink="http://www.w3.org/1999/xlink" width="148.004" height="139.573" viewBox="0 0 148.004 139.573">
  <defs>
    <clipPath id="clip-path">
      <rect id="矩形_21" data-name="矩形 21" width="148.004" height="139.573" fill="#7600da"/>
    </clipPath>
  </defs>
  <g id="组_65" data-name="组 65" transform="translate(-185.998 -3117)">
    <g id="组_34" data-name="组 34" transform="translate(185.998 3117)">
      <g id="组_33" data-name="组 33">
        <g id="组_32" data-name="组 32" clip-path="url(#clip-path)">
          <path id="路径_58" data-name="路径 58" d="M134.728,139.573H13.276A13.257,13.257,0,0,1,0,126.336V13.238A13.257,13.257,0,0,1,13.276,0H134.728A13.257,13.257,0,0,1,148,13.238v113.1a13.257,13.257,0,0,1-13.276,13.237" transform="translate(0 -0.001)" fill="#7600da"/>
        </g>
      </g>
    </g>
    <text id="傾聽關懷" transform="translate(230.998 3236.792)" fill="#fff" font-size="14" font-family="SourceHanSansTC-Regular, Source Han Sans TC"><tspan x="0" y="0" letter-spacing="0.05em">傾聽關</tspan><tspan y="0">懷</tspan></text>
    <g id="组_59" data-name="组 59" transform="translate(-47.235)">
      <path id="路径_59" data-name="路径 59" d="M131.383,147.391c.006-1.123-.008-2.26-.022-3.362a77.125,77.125,0,0,1,.184-8.109c.726-7.733,4.649-13.757,11.657-17.9a21.648,21.648,0,0,1,7.036-2.591,2.444,2.444,0,0,0,.362-.106c.052-.019.109-.038.17-.058l.3-.1v-1.187c0-.9,0-1.827-.017-2.741a1.031,1.031,0,0,0-.66-.889,9.146,9.146,0,0,1-5.129-3.489l-.338-.438-.343.435a3.654,3.654,0,0,1-3.238,1.3c-.124,0-.249,0-.375-.006-.613-.018-1.268-.027-2.061-.027-.531,0-1.058,0-1.577.008-.5,0-1,.007-1.479.007h-.431v.43q0,1.66,0,3.307c0,2.551.008,5.19-.011,7.773a3.218,3.218,0,0,1-3.263,3.224c-1.428.019-2.88.021-4.285.023q-1.011,0-2.022,0a.531.531,0,0,0-.246.066l-.054.025-.193.084-.241.959c-.147.587-.3,1.188-.456,1.786a2.387,2.387,0,0,1-4.7.008c-.157-.591-.305-1.184-.457-1.793l-.292-1.159h-6.362a3.313,3.313,0,0,1-3.66-3.677q0-4.528,0-9.057a3.274,3.274,0,0,1,3.58-3.6c.788,0,4.138,0,4.138,0h2.182V95.916l-.41-.02-.311-.017c-.2-.012-.373-.022-.545-.022l-3.268,0c-.7,0-1.41,0-2.115-.013a3.221,3.221,0,0,1-3.244-3.242c-.023-3.128-.023-6.431,0-9.819a3.19,3.19,0,0,1,3.219-3.259q4.967-.015,9.934-.016,4.925,0,9.849.015a3.2,3.2,0,0,1,3.224,3.258c.017,1.788.013,3.608.01,5.368,0,.768,0,3.653,0,3.653h2.895c1.305,0,2.6,0,3.887-.017a1,1,0,0,0,.822-.651c.042-.133.086-.266.129-.4a10.1,10.1,0,0,0,.493-1.944,12.934,12.934,0,0,0,.04-1.894c-.007-.211-.013-.408-.013-.584v-.211l-.168-.129c-.366-.281-.727-.535-1.076-.781a11.344,11.344,0,0,1-1.883-1.527,6.88,6.88,0,0,1,4.73-11.47c2.588-.079,4.968-.118,7.277-.118,2.26,0,4.463.039,6.548.115A16.436,16.436,0,0,1,174.7,86.92c.649,7.333-1.593,14.122-6.663,20.177-.471.563-1.013,1.1-1.537,1.614-.321.317-.643.634-.953.96a1.556,1.556,0,0,0-.53.956c-.029,1.06-.025,2.123-.021,3.15l0,1.333.308.092c.472.141.94.271,1.4.4.984.274,1.913.533,2.82.871A23.14,23.14,0,0,1,184.7,138.183c.013,2.186.009,4.373.006,6.576q0,1.311,0,2.631Zm11.44-1.583h8.245l.125-.213c.012-.021.024-.038.033-.052a.663.663,0,0,0,.112-.241q1.632-7.564,3.254-15.132a1.815,1.815,0,0,0-.009-.984c-.3-.811-.621-1.6-.958-2.426l-.526-1.3-3.112,1.513-1.2-9.537-.481.134c-.107.029-.2.054-.29.076a4.672,4.672,0,0,0-.5.148,21.548,21.548,0,0,0-14.088,16,26.581,26.581,0,0,0-.465,6.362c0,.509.008,1.018,0,1.526-.005.84,0,1.68,0,2.529V145.8h8.279V131.144h1.581ZM162.8,125.874c-.113.283-.22.561-.326.833-.239.618-.464,1.2-.728,1.764a3.112,3.112,0,0,0-.189,2.119c.46,2.054.905,4.148,1.335,6.174q.291,1.368.583,2.736.436,2.033.879,4.062l.485,2.238h8.434V131.17h1.608V145.8H183.1s0-1.987,0-2.76c0-1.642.007-3.34-.006-5a21.6,21.6,0,0,0-13.424-19.826c-.407-.168-.818-.309-1.253-.457-.2-.07-.41-.141-.623-.217l-.505-.18-1.218,9.618-3.1-1.529ZM152.874,145.8h10.318l-3.333-15.5H156.2Zm5.159-22.665a1.165,1.165,0,0,0-.481.1c-.654.3-1.287.622-1.958.961l-1.065.535,1.57,3.833,3.02.091a.376.376,0,0,0,.063,0h.124l.131-.072a1.887,1.887,0,0,1,.173-.092,1.126,1.126,0,0,0,.595-.506c.309-.691.579-1.385.866-2.119.1-.258.454-1.151.454-1.151l-1.07-.537c-.657-.332-1.278-.646-1.913-.94a1.232,1.232,0,0,0-.509-.1M120.2,121.273c.283,0,.285.009.337.248.269,1.256.6,2.5.919,3.664a1.667,1.667,0,0,0,.357.6c.046.057.093.113.132.171l.346.5.359-.5c.04-.056.088-.111.135-.165a1.544,1.544,0,0,0,.372-.605c.278-1.031.53-2.053.8-3.135l.194-.78h4.639q1.588,0,3.176,0a1.629,1.629,0,0,0,1.844-1.6c.023-1.522.019-3.069.015-4.565,0-.6,0-2.3,0-2.3l-.492.07a8.433,8.433,0,0,1-1.175.1c-1.448,0-2.013-.585-2.515-2.609-.108-.434-.224-.866-.341-1.3l-.247-.927-8.382,0q-4.1,0-8.179.009c-1.076,0-1.7.7-1.7,1.916q-.009,4.565,0,9.13c0,1.5.583,2.085,2.077,2.086l3.684,0q1.815,0,3.629-.012Zm31.1,3.267,6.2-3.086-1.7-1.375c-1.28-1.04-2.489-2.023-3.739-3a1.351,1.351,0,0,0-.866-.2,3.19,3.19,0,0,1-.334-.013l-.541-.058Zm13.816-7.752c-.15.049-.289.086-.418.119a2.382,2.382,0,0,0-.807.321c-.542.387-1.064.81-1.568,1.219-.186.151-.372.3-.559.451l-3.2,2.556,6.205,3.085.991-7.963Zm-5.767-9.507a18.676,18.676,0,0,1-1.482,1.447,8.685,8.685,0,0,1-4.811,1.861l-.382.044,0,1.389c0,1.018-.006,1.98.019,2.961a1.37,1.37,0,0,0,.516.929c.646.534,1.3,1.06,1.95,1.586.723.583,1.446,1.167,2.161,1.761a1.149,1.149,0,0,0,.724.307,1.182,1.182,0,0,0,.743-.319c1.375-1.131,2.649-2.147,3.894-3.105a1.708,1.708,0,0,0,.724-1.5q-.022-6.92-.013-13.84V96.716l1.052,0c.283,0,.56,0,.838,0a2.888,2.888,0,1,0,.023-5.77c-.267,0-.533,0-.8,0l-.979,0c-.933-4.075-3.043-6.606-5.822-6.963l-.289-.037-.142.253a3.467,3.467,0,0,1-3.331,1.848l-.175,0c-.658-.019-1.363-.027-2.22-.027q-.853,0-1.707.007c-.568,0-1.135.007-1.7.007h-2.626l-.106.277c-.016.041-.029.072-.04.1a.674.674,0,0,0-.07.263l-.008.182a4.8,4.8,0,0,0,0,.633,8.59,8.59,0,0,1-1.229,5.251,22.953,22.953,0,0,0-1.039,2.063,1.178,1.178,0,0,0,1.076,1.842c.2.013.4.017.609.017.157,0,.317,0,.482,0l.1,0v4.9l.4.029c.3.022.569.033.824.033,2.04,0,3.2-.693,4.466-2.717l1.5.5a6.392,6.392,0,0,1-6.345,3.855l-.741-.008.191.572a6.985,6.985,0,0,0,4.774,4.833,8.159,8.159,0,0,0,2.3.352,7.237,7.237,0,0,0,5.725-3.025l1.367.892c-.134.139-.264.275-.392.41m-29.312-.75c.282,0,.3.007.367.3.254,1.2.565,2.368.916,3.663a1.539,1.539,0,0,0,.335.569c.042.051.084.1.12.155l.333.484.362-.462c.042-.054.091-.1.139-.157a1.474,1.474,0,0,0,.4-.6c.374-1.352.673-2.493.918-3.666.058-.276.072-.287.378-.287,1.29.011,2.556.015,3.822.015h.005q1.831,0,3.662-.008a1.681,1.681,0,0,0,1.887-1.885c0-.811,0-1.622,0-2.433,0-1.029,0-2.058.008-3.087A1.057,1.057,0,0,0,142.927,98a2.256,2.256,0,0,1-1.5-1.573,7.177,7.177,0,0,1-.053-1.705c.007-.146.013-.293.018-.44h.009v-.43c0-.3-.221-.453-.657-.453l-9.843,0q-4.193,0-8.387,0a1.69,1.69,0,0,0-1.867,1.906q-.01,4.6,0,9.2c0,1.439.6,2.026,2.057,2.028,0,0,2.928.006,3.744.006q1.784,0,3.568-.015ZM154.17,79.52c1.521,0,2.435.618,3.26,2.207a1.559,1.559,0,0,0,.873.67,9.336,9.336,0,0,1,6.29,6.1,1.176,1.176,0,0,0,1.186.871,4.453,4.453,0,0,1,4.139,4.567c-.045,2.392-1.767,4.083-4.493,4.413l-.379.046v9.378l.71-.6c.05-.042.091-.076.127-.1a1.731,1.731,0,0,0,.2-.181A25.8,25.8,0,0,0,173.2,87.9,14.931,14.931,0,0,0,158.94,73.788c-1.782-.051-3.731-.076-5.957-.076-1.995,0-4.021.02-5.981.038l-1.467.014a5.322,5.322,0,0,0-.29,10.624c1.168.048,2.419.07,3.936.07,1.03,0,2.06-.01,3.09-.02q1.037-.01,2.073-.018a1.616,1.616,0,0,0,1.65-1.653,1.661,1.661,0,0,0-1.636-1.643c-.159-.009-.318-.012-.476-.012l-.305,0V79.548c.21-.019.408-.028.594-.028M116.022,94.258q1.111,0,2.221.009h0a1.215,1.215,0,0,0,1.213-.707,3.134,3.134,0,0,1,2.934-1.754q.947-.008,1.895-.007l2.874,0h6.665l0-2.853c0-2.107,0-4.1-.01-6.126-.008-1.083-.7-1.7-1.909-1.7q-4.89,0-9.781,0l-9.388,0a1.7,1.7,0,0,0-1.946,1.907q-.011,4.645,0,9.289a1.7,1.7,0,0,0,1.91,1.942q.717,0,1.435,0Z" transform="translate(160.054 3068.772)" fill="#00cde6"/>
      <rect id="矩形_22" data-name="矩形 22" width="1.507" height="1.509" transform="translate(308.702 3160.555)" fill="#00cde6"/>
      <rect id="矩形_23" data-name="矩形 23" width="1.479" height="1.529" transform="translate(276.698 3182.7)" fill="#00cde6"/>
      <rect id="矩形_24" data-name="矩形 24" width="1.519" height="1.501" transform="translate(281.609 3182.724)" fill="#00cde6"/>
      <rect id="矩形_25" data-name="矩形 25" width="1.498" height="1.507" transform="translate(286.548 3182.735)" fill="#00cde6"/>
      <rect id="矩形_26" data-name="矩形 26" width="1.493" height="1.529" transform="translate(276.695 3155.715)" fill="#00cde6"/>
      <rect id="矩形_27" data-name="矩形 27" width="1.479" height="1.529" transform="translate(281.626 3155.677)" fill="#00cde6"/>
      <rect id="矩形_28" data-name="矩形 28" width="1.493" height="1.529" transform="translate(286.537 3155.702)" fill="#00cde6"/>
      <rect id="矩形_29" data-name="矩形 29" width="16.286" height="1.51" transform="translate(284.085 3170.451)" fill="#00cde6"/>
      <rect id="矩形_30" data-name="矩形 30" width="6.432" height="1.504" transform="translate(284.06 3165.527)" fill="#00cde6"/>
      <rect id="矩形_31" data-name="矩形 31" width="3.983" height="1.503" transform="translate(293.915 3165.541)" fill="#00cde6"/>
    </g>
  </g>
</svg>
