<svg xmlns="http://www.w3.org/2000/svg" xmlns:xlink="http://www.w3.org/1999/xlink" width="148.004" height="139.573" viewBox="0 0 148.004 139.573">
  <defs>
    <clipPath id="clip-path">
      <rect id="矩形_18" data-name="矩形 18" width="148.004" height="139.573" fill="#7600da"/>
    </clipPath>
  </defs>
  <g id="组_64" data-name="组 64" transform="translate(-18.998 -3117)">
    <g id="组_27" data-name="组 27" transform="translate(18.998 3117)">
      <g id="组_26" data-name="组 26">
        <g id="组_25" data-name="组 25" clip-path="url(#clip-path)">
          <path id="路径_55" data-name="路径 55" d="M134.728,139.573H13.276A13.257,13.257,0,0,1,0,126.336V13.238A13.257,13.257,0,0,1,13.276,0H134.728A13.257,13.257,0,0,1,148,13.238v113.1a13.257,13.257,0,0,1-13.276,13.237" transform="translate(0 -0.001)" fill="#7600da"/>
        </g>
      </g>
    </g>
    <text id="減重訣竅" transform="translate(63.998 3236.792)" fill="#fff" font-size="14" font-family="SourceHanSansTC-Regular, Source Han Sans TC"><tspan x="0" y="0" letter-spacing="0.05em">減重訣</tspan><tspan y="0">竅</tspan></text>
    <g id="组_61" data-name="组 61" transform="translate(-48.818)">
      <path id="路径_56" data-name="路径 56" d="M154.912,148.952a1.009,1.009,0,0,1-1.1-.832c-.541-1.717-1.11-3.454-1.66-5.134l-.564-1.724c-.056-.172-.118-.342-.181-.513l-.19-.527-.809.008-.1.307-2.337,7.228c-.371,1.147-.417,1.18-1.645,1.18H127.336c-1.165,0-1.317-.132-1.483-1.291q-.27-1.885-.534-3.771c-.555-3.94-1.129-8.015-1.794-12.009a18.676,18.676,0,0,0-.911-3.146c-.234-.662-.477-1.345-.658-2.021-.39-1.45-.751-2.935-1.1-4.372-.276-1.133-.562-2.3-.859-3.455a2.65,2.65,0,0,0-.776-1.24c-.365-.329-.754-.635-1.13-.93a13.594,13.594,0,0,1-1.531-1.327,9.47,9.47,0,0,1,.469-13.536c1.584-1.461,3.234-2.909,4.83-4.307,1.155-1.012,2.348-2.059,3.51-3.1a3.443,3.443,0,0,0,.952-1.507c1.132-3.775,2.261-7.619,3.352-11.337l1.136-3.868c.27-.916.394-1.01,1.336-1.01h10.813q13.376,0,26.75-.01a1.772,1.772,0,0,1,1.337.538q3.742,3.546,7.494,7.081,4.224,3.986,8.44,7.978a10.029,10.029,0,0,1,3.317,7.311,10.184,10.184,0,0,1-3.457,7.38q-3.718,3.452-7.423,6.918-3.746,3.5-7.5,6.989a1.813,1.813,0,0,0-.633,1.7q.675,5.459,1.322,10.923l.541,4.507q.232,1.925.467,3.849.351,2.887.7,5.774a.979.979,0,0,1-.168.785,1.373,1.373,0,0,1-.988.32q-6,.072-12,.129l-2.311.023c-.453,0-.907.007-1.36.008-.821,0-1.67.006-2.507.028Zm-32.9-27.885c.129.452.252.889.371,1.313.254.905.495,1.76.754,2.611.228.748.482,1.5.728,2.228a38.291,38.291,0,0,1,1.309,4.463c.437,2.126.728,4.328,1.009,6.457.126.955.252,1.91.391,2.863q.3,2.024.6,4.048l.315,2.132.338.043c.056.007.1.015.147.021a1.905,1.905,0,0,0,.291.029h4.483q6.364,0,12.728.015a1.122,1.122,0,0,0,1.185-.928c1.1-3.454,2.041-6.33,2.948-9.053a1.272,1.272,0,0,0-.445-1.5l-.416-.356a23.97,23.97,0,0,1-2.036-1.881,2.118,2.118,0,0,1-.55-1.228c-.075-2.133-.047-4.257-.019-6.312a1.145,1.145,0,0,0-1.074-1.333c-4.785-.873-9.645-1.785-14.347-2.667l-4.361-.818c-.836-.156-1.672-.31-2.557-.473l-1.988-.367Zm27.3,3.689c-.234.029-.467.068-.724.111l-.783.126v1.343c0,.7,0,1.388,0,2.07,0,.357-.023.726-.051,1.117a5.9,5.9,0,0,0,.234,2.778,5.217,5.217,0,0,0,1.731,1.85,10.183,10.183,0,0,1,.979.827,3.78,3.78,0,0,1,.892,1.321c1.089,3.108,2.2,6.4,3.294,9.777a1.47,1.47,0,0,0,1.582,1.209h.062c3.582-.065,7.225-.1,10.748-.135l4.125-.042a4.273,4.273,0,0,0,.47-.039c.067-.008.136-.017.209-.024l.457-.046-2.975-24.728s-14.9,1.826-20.251,2.484m-1.464-6.422v4.937l16.416-2.039-.915-3.6Zm-26.213.3L146.1,123.2v-4.881l-24.79-3.367Zm45.409-12.5a3.224,3.224,0,0,0-.885.129l-.44.125.134.437c.057.187.111.368.162.544.116.393.225.764.358,1.135a.929.929,0,0,1-.439,1.26c-.213.137-.422.28-.631.424-.349.239-.678.465-1.027.665a1.11,1.11,0,0,0-.545,1.425c.17.591.317,1.205.458,1.8.078.328.156.655.239.982.338,1.339.679,2.678,1.023,4.028l.5,1.948,1.266-.15c.771-.09,1.5-.174,2.235-.288a1.786,1.786,0,0,0,.91-.5l1.378-1.284c4.669-4.352,9.5-8.852,14.228-13.3a8.151,8.151,0,0,0,2.664-5.916,7.926,7.926,0,0,0-2.514-5.789c-4.029-3.868-8.167-7.754-12.17-11.512q-1.827-1.715-3.652-3.431a1.659,1.659,0,0,0-.968-.459c-.372-.016-.765-.023-1.274-.023-.248,0-1.292.007-1.57.007h-.555l.188.887c.048.227.089.422.132.616q.186.843.37,1.687c.35,1.6.712,3.258,1.1,4.881a3.391,3.391,0,0,0,.808,1.56c2.611,2.636,5.282,5.3,7.866,7.873q1.547,1.541,3.094,3.084c.716.714.614,1.05.1,1.577-2.374,2.414-4.851,4.912-7.572,7.637a1.053,1.053,0,0,1-.693.386,1.257,1.257,0,0,1-.747-.369c-.206-.174-.408-.353-.609-.533-.3-.263-.6-.534-.919-.787a3.14,3.14,0,0,0-2-.754m-29.9-9.217q.142.776.278,1.54c.228,1.272.443,2.473.69,3.7a3.559,3.559,0,0,1-.125,1.945c-.881,2.542-1.749,5.134-2.59,7.641l-.719,2.141c-.068.2-.125.406-.189.635l-.1.344-.143.5.514.071a114.33,114.33,0,0,0,15.595,1.088,110.161,110.161,0,0,0,12.021-.661l.511-.056s-.328-1.323-.425-1.72c-.225-.916-.437-1.782-.669-2.646a.973.973,0,0,1,.452-1.232c.195-.126.386-.255.577-.386.324-.22.629-.427.951-.617a1.172,1.172,0,0,0,.58-1.57c-.505-1.451-.951-2.88-1.323-4.247a3.544,3.544,0,0,1-.072-1.445c.192-1.183.421-2.344.663-3.573q.141-.715.282-1.446l.1-.533H137.047ZM132.2,78.963c-.057.174-.114.345-.165.518l-1.043,3.552c-1.053,3.594-2.143,7.309-3.243,10.954a3.036,3.036,0,0,1-.824,1.3c-1.174,1.059-2.386,2.118-3.559,3.142-1.6,1.4-3.263,2.85-4.852,4.325-3.927,3.644-3.859,7.617.208,12.146l.785.874V114.6c0-.234,0-.467.009-.7.01-.533.02-1.084-.023-1.632-.073-.94.28-1.256.6-1.427a3.605,3.605,0,0,0,1.865-4.412c-.129-.553.061-.94.656-1.337,2.628-1.75,5.286-3.549,7.856-5.288l2.267-1.534q.817-.552,1.629-1.112l1.076-.738-.2-.357A14.47,14.47,0,0,1,133.992,84.2c.363-1.178.655-2.4.937-3.58.131-.549.263-1.1.4-1.655l.141-.558h-3.1Zm-7.232,31.34a4.139,4.139,0,0,0-3.291,1.409,2.047,2.047,0,0,0-.307.492c-.028.057-.056.114-.087.168l-.238.421.439.206c.048.022.1.049.144.075a1.731,1.731,0,0,0,.5.2c.628.124,1.266.234,1.884.339l8.488,1.461,1.663-4.731h-.634c-.849,0-1.684.008-2.509.016-.8.008-1.595.015-2.381.015-1.305,0-2.369-.022-3.347-.068-.109-.006-.217-.008-.323-.008m10.292-11.026-.272.151c-.167.092-.309.17-.446.255q-4.137,2.568-8.273,5.141l-.386.24c-.161.1-.33.194-.5.288a5.274,5.274,0,0,0-1.258.87,2.065,2.065,0,0,0-.378,1.4l-.006.169a.709.709,0,0,0,.23.515,1.035,1.035,0,0,0,.663.338c2.15.016,4.3.018,6.472.018h3.641l.106-.3q.192-.542.394-1.1c.349-.968.71-1.968,1.028-2.986a4.519,4.519,0,0,0,.167-1.8c-.073-.667-.2-1.316-.344-2-.058-.289-.118-.584-.176-.889l-.115-.617Zm31.719,5.176a5.3,5.3,0,0,1,3.784,1.682l.312.308,6.771-6.473-9.94-9.9-.221.709c-.083.267-.158.553-.234.846a9.147,9.147,0,0,1-.647,1.9,18.792,18.792,0,0,0-1.556,5.246l-.012.062c-.065.339-.124.678-.184,1.019-.122.695-.248,1.413-.419,2.1a3.223,3.223,0,0,0,.468,2.455l.167.3.335-.084a5.708,5.708,0,0,1,1.375-.175M137.113,78.746q-.294,1.149-.589,2.28c-.452,1.742-.879,3.388-1.285,5.081a12.327,12.327,0,0,0,.7,7.647,1.354,1.354,0,0,0,1.423.934q6.58-.014,13.142-.014,6.5,0,13,.013a1.358,1.358,0,0,0,1.39-.85,12.143,12.143,0,0,0,1.046-7.689c-.344-1.727-.749-3.466-1.141-5.148-.174-.747-.348-1.494-.518-2.241l-.079-.349H137.2Z" transform="translate(-10.121 3065.681)" fill="#00cde6"/>
      <path id="路径_57" data-name="路径 57" d="M223.378,168.858c-.485-.013-.79-.371-.815-.959,0-.118,0-.237,0-.355V167.2c0-.1,0-.205,0-.307.024-.612.334-.976.829-.976.512.012.817.37.84.956.013.322.013.661,0,1.008-.022.6-.339.976-.829.976Z" transform="translate(-82.691 3005.989)" fill="#00cde6"/>
    </g>
  </g>
</svg>
