<svg xmlns="http://www.w3.org/2000/svg" xmlns:xlink="http://www.w3.org/1999/xlink" width="148.004" height="139.284" viewBox="0 0 148.004 139.284">
  <defs>
    <clipPath id="clip-path">
      <rect id="矩形_8" data-name="矩形 8" width="148.004" height="139.284" fill="#7600da"/>
    </clipPath>
  </defs>
  <g id="组_62" data-name="组 62" transform="translate(-18.998 -2958)">
    <g id="组_13" data-name="组 13" transform="translate(18.998 2958)">
      <g id="组_12" data-name="组 12">
        <g id="组_11" data-name="组 11" clip-path="url(#clip-path)">
          <path id="路径_32" data-name="路径 32" d="M134.728,139.284H13.276A13.243,13.243,0,0,1,0,126.074V13.21A13.243,13.243,0,0,1,13.276,0H134.728A13.243,13.243,0,0,1,148,13.21V126.074a13.243,13.243,0,0,1-13.276,13.21" fill="#7600da"/>
        </g>
      </g>
    </g>
    <text id="保養攻略" transform="translate(63.998 3077.866)" fill="#fff" font-size="14" font-family="SourceHanSansTC-Regular, Source Han Sans TC"><tspan x="0" y="0" letter-spacing="0.05em">保養攻</tspan><tspan y="0">略</tspan></text>
    <g id="组_60" data-name="组 60" transform="translate(-46.798)">
      <path id="路径_33" data-name="路径 33" d="M169.083,120.517a9.375,9.375,0,0,1-9.765.024c-.187,1.05-.311,1.978-.522,2.888a8.049,8.049,0,0,1-2.239,3.964,2.114,2.114,0,0,0-.448.88,17.419,17.419,0,0,1-.437,1.722c-1.34,3.175-1.907,6.556-2.72,9.872-.041.168-.077.339-.129.5a.885.885,0,1,1-1.714-.439c.375-1.667.709-3.347,1.161-4.994.49-1.788,1.033-3.566,1.664-5.309a6.265,6.265,0,0,0-.151-5.057,34.882,34.882,0,0,0-2.306-3.714c-.53-.807-1.151-1.555-1.682-2.361a3.3,3.3,0,0,1-.386-2.435c.334-2.1.625-4.215.927-6.324a1.345,1.345,0,0,0,.007-.589c-.062-.183-.236-.46-.362-.46a1.022,1.022,0,0,0-.576.322c-.1.089-.113.269-.164.409q-1.117,3.034-2.234,6.068a10.076,10.076,0,0,0,.226,7.874,47.141,47.141,0,0,1,1.866,5.552,5.138,5.138,0,0,1-.191,3.433c-1.075,2.665-2.164,5.324-3.246,7.986-.227.56-.6.856-1.224.645-.531-.181-.685-.714-.416-1.366q1.432-3.47,2.867-6.939c.138-.337.24-.688.381-1.1-4.1,1.055-7.538,2.88-9.545,6.718-.345.658-.652,1.336-.967,2.008-.3.632-.793.9-1.291.643-.586-.305-.584-.8-.36-1.342,1.749-4.237,4.557-7.406,9.039-8.9,1.081-.36,2.148-.763,3.432-1.221-.665-1.815-1.295-3.6-1.988-5.366a2.4,2.4,0,0,0-.809-.955,6.035,6.035,0,0,1-2.375-6.134,41.385,41.385,0,0,1,1.58-5.78,4.934,4.934,0,0,1,.834-1.4,2.063,2.063,0,0,1,2.21-.9,2.548,2.548,0,0,0,.51,0l.041-.231c-.232-.089-.462-.186-.7-.266a7.772,7.772,0,0,1-5.128-8.027,14.432,14.432,0,0,1,.805-2.214,2.943,2.943,0,0,0,.215-1.154c-.272-2.908-.674-5.807-.864-8.72a17.926,17.926,0,0,1,4.775-13.288c3.473-4.009,7.57-7.034,12.791-8.319,6.092-1.5,11.648-.112,16.745,3.353a27.113,27.113,0,0,1,8.706,9.845,16.1,16.1,0,0,1,1.516,7.217,47.637,47.637,0,0,1-.891,10.057,1.331,1.331,0,0,0,.156.877,5.709,5.709,0,0,1,.762,4.841,8.024,8.024,0,0,1-5.212,5.6.771.771,0,0,0-.456.378,1.375,1.375,0,0,0,.444.053,2.054,2.054,0,0,1,2.446,1.137,30.478,30.478,0,0,1,1.782,4.381,10.086,10.086,0,0,1,.4,5.065,4.535,4.535,0,0,1-1.54,2.9,7.994,7.994,0,0,0-2.657,4.364c-.281.891-.507,1.8-.763,2.723,1.291.469,2.5.918,3.715,1.347,4.269,1.511,6.9,4.628,8.59,8.667.311.744.172,1.232-.372,1.447s-.977-.032-1.285-.785a14.657,14.657,0,0,0-3.814-5.535c-1.866-1.65-4.238-2.306-6.746-3.2.605,1.544,1.116,2.9,1.664,4.233.535,1.307,1.113,2.6,1.663,3.9.276.653.126,1.188-.4,1.373a.9.9,0,0,1-1.23-.631q-1.625-3.992-3.25-7.985a6.623,6.623,0,0,1,.06-4.594,41.747,41.747,0,0,1,1.658-4.532,9.654,9.654,0,0,0,.279-7.45q-1.154-3.257-2.4-6.483c-.1-.26-.435-.431-.661-.643-.13.306-.4.629-.366.916.26,2.114.541,4.228.9,6.327a3.649,3.649,0,0,1-.5,2.843c-.608.875-1.306,1.69-1.907,2.57a25.04,25.04,0,0,0-1.8,2.9,7.393,7.393,0,0,0-.135,5.9c1.063,3.239,1.818,6.579,2.676,9.884a.8.8,0,0,1-.7,1.039c-.6.109-.922-.228-1.056-.791-.529-2.217-1.018-4.444-1.613-6.643-.439-1.621-1.087-3.186-1.508-4.81a3.843,3.843,0,0,0-.963-1.832,8.515,8.515,0,0,1-2.153-5.04c-.052-.412-.1-.825-.174-1.395M148.949,92.743a4.638,4.638,0,0,0-.164.547,30.238,30.238,0,0,0,.775,13.174c.043.172.373.348.593.387a2.135,2.135,0,0,1,1.955,2.015,9.04,9.04,0,0,1-.118,2.293,2.022,2.022,0,0,0,.463,1.777,19.208,19.208,0,0,0,10.951,7.156,3.329,3.329,0,0,0,1.4.022,18.815,18.815,0,0,0,11.288-7.507,2.182,2.182,0,0,0,.264-1.232c0-.815-.154-1.633-.122-2.446a2.041,2.041,0,0,1,1.975-2.043c.488-.034.612-.246.717-.645a34.874,34.874,0,0,0-.3-18.295,7.975,7.975,0,0,0-5.075-5.913,6.382,6.382,0,0,1-2.668-1.816,9.622,9.622,0,0,0-7.551-3.48c-3.391.093-5.564,2.01-6.654,5.081a15.745,15.745,0,0,1-5.975,8.3,9.4,9.4,0,0,0-1.617,1.857c1.9-.439,3.635-.92,5.4-1.225a8.273,8.273,0,0,1,4.754.6.978.978,0,0,1,.5.64.811.811,0,0,1-.377.641,1.469,1.469,0,0,1-.789.038,26.541,26.541,0,0,0-8.7.175,3.022,3.022,0,0,1-.931-.1m34.835,3.707a.743.743,0,0,0,.1-.192,41.9,41.9,0,0,0,.743-9.692,13.537,13.537,0,0,0-1.4-6.032,25.635,25.635,0,0,0-8.674-9.363c-4.916-3.123-10.175-4.194-15.83-2.348a23.4,23.4,0,0,0-11.151,8.037,15.207,15.207,0,0,0-3.717,7.973,38.672,38.672,0,0,0,.205,8.829c.123.942.293,1.878.448,2.859a4.093,4.093,0,0,1,1.044-.28c1,.033,1.1-.537,1.148-1.355a8.12,8.12,0,0,1,3.69-6.852,10.421,10.421,0,0,0,3.921-5.126,31.981,31.981,0,0,1,1.332-3.144,8.65,8.65,0,0,1,8.957-4.748,12.246,12.246,0,0,1,7.691,4.035,5.473,5.473,0,0,0,1.864,1.263,9.156,9.156,0,0,1,5,4.254,14.665,14.665,0,0,1,1.442,3.721c.486,2.347.727,4.743,1.092,7.115.039.25.174.628.352.687a13.219,13.219,0,0,0,1.744.358m-11.366,28.919a15.13,15.13,0,0,1,3.792-6.527c1.119-1.258,1.16-2.566.5-4.237-.1.212-.121.358-.207.433-1.571,1.362-3.1,2.783-4.753,4.036a1.666,1.666,0,0,0-.826,1.745,9.134,9.134,0,0,0,1.5,4.55m-16.431.016a6.921,6.921,0,0,0,.709-1.373c.3-1.245.5-2.51.752-3.766.084-.426-.135-.63-.461-.892-1.7-1.365-3.357-2.778-5.027-4.177-.142-.119-.27-.255-.376-.356a3.575,3.575,0,0,0,.874,4.406,5.874,5.874,0,0,1,.84,1.041c.785,1.312,1.544,2.64,2.289,3.975a7.853,7.853,0,0,1,.4,1.142m-8.281-18.6c-.233-1.2-.494-2.372-.682-3.558-.123-.775-.461-1.212-1.292-1.232a.8.8,0,0,1-.839-.857.842.842,0,0,1,.819-.891,7.324,7.324,0,0,1,.98-.008c-.039-.779-.076-1.532-.113-2.273a2.911,2.911,0,0,0-3.01,2.348c-.641,2.492,1.535,5.925,4.137,6.471m33.01-.023a6.292,6.292,0,0,0,4.095-4.547,3.977,3.977,0,0,0-.52-2.995,2.808,2.808,0,0,0-2.458-1.3c-.042.825-.08,1.579-.118,2.326a1.444,1.444,0,0,0,.222.026c.971-.082,1.491.159,1.514.764.031.8-.524.894-1.174,1.025a1.362,1.362,0,0,0-.838.865c-.306,1.244-.485,2.518-.723,3.837m3.141,12.753.257-.019a15.451,15.451,0,0,0,.074-2.4,16.838,16.838,0,0,0-1.712-5.656,4.33,4.33,0,0,0-.723-.82l-.221.172c.9,2.875,2.469,5.57,2.324,8.727m-37.02-8.778c-1.582.222-3.319,6.778-2.333,8.94-.159-3.325,1.408-6.007,2.333-8.94" transform="translate(-24.17 2913.708)" fill="#00cde6"/>
      <path id="路径_34" data-name="路径 34" d="M214.659,197.961a13.64,13.64,0,0,1-1.4.362,5.677,5.677,0,0,1-1.381.052c-.652-.061-1.3-.188-1.944-.31a17.965,17.965,0,0,1-2.167-.48c-.217-.069-.329-.464-.488-.71.264-.167.517-.454.794-.479a13.891,13.891,0,0,1,2.737-.073,23.919,23.919,0,0,0,3.46,0,18.7,18.7,0,0,1,2.519.087,2.915,2.915,0,0,1,.892.433c-.195.27-.336.693-.593.78a23.423,23.423,0,0,1-2.369.565q-.028-.115-.057-.229" transform="translate(-72.481 2826.541)" fill="#00cde6"/>
      <path id="路径_35" data-name="路径 35" d="M239.811,140.223a17.323,17.323,0,0,1,6.5,1.428c.209.1.314.415.467.631-.237.067-.5.235-.707.187a26.907,26.907,0,0,0-8.77-.179,1.416,1.416,0,0,1-.99-.266c-.365-.334-.153-.911.431-1.074,1.163-.326,2.353-.561,3.066-.726" transform="translate(-91.759 2864.086)" fill="#00cde6"/>
      <path id="路径_36" data-name="路径 36" d="M189.176,162.854c-1.084-.387-2.169-.772-3.251-1.163-.57-.206-1.129-.445-1.707-.625-.462-.144-.56-.429-.226-.821a1.989,1.989,0,0,1,2.218-.295,21.708,21.708,0,0,0,2.751.879,15.367,15.367,0,0,0,2.056.023,3.827,3.827,0,0,1,.953.321c-.149.3-.221.767-.46.879a21.175,21.175,0,0,1-2.332.8" transform="translate(-56.792 2851)" fill="#00cde6"/>
      <path id="路径_37" data-name="路径 37" d="M240.132,162.885c-.75-.276-1.521-.511-2.238-.856a.838.838,0,0,1-.288-.779.863.863,0,0,1,.76-.352,7.526,7.526,0,0,0,4.553-.7,4.62,4.62,0,0,1,1.573-.345,2.152,2.152,0,0,1,1.038.469.55.55,0,0,1,.157.507c-.051.133-.291.215-.462.281a9.81,9.81,0,0,0-1.363.5A7.269,7.269,0,0,1,240.2,162.7l-.066.182" transform="translate(-92.73 2850.936)" fill="#00cde6"/>
      <path id="路径_38" data-name="路径 38" d="M217.711,181.992c-.8-.4-1.524-.7-2.177-1.115a.809.809,0,0,1-.178-1.291.842.842,0,0,1,1.258-.1c.974.67,1.257.672,2.2.013a.848.848,0,0,1,1.307.129.8.8,0,0,1-.193,1.237c-.675.42-1.419.731-2.213,1.127" transform="translate(-77.717 2837.945)" fill="#00cde6"/>
      <path id="路径_39" data-name="路径 39" d="M219.3,208.112a4.421,4.421,0,0,1-1.341-.459,1.338,1.338,0,0,1-.41-1.041c.047-.473.492-.611.973-.575a12.949,12.949,0,0,1,1.583.063c.36.073.867.3.958.575a1.181,1.181,0,0,1-.423,1.019,4.336,4.336,0,0,1-1.341.419" transform="translate(-79.339 2820.01)" fill="#00cde6"/>
      <path id="路径_40" data-name="路径 40" d="M194.534,207.812a12.118,12.118,0,0,1-1.156,1.028,1.116,1.116,0,0,1-.54-.528c-.1-.431.533-1.187.884-1.092.24.065.432.3.812.591" transform="translate(-62.827 2819.22)" fill="#00cde6"/>
      <path id="路径_41" data-name="路径 41" d="M262.325,181.767c-.294-.4-.611-.637-.615-.878-.012-.671.62-.633,1.036-.64.221,0,.449.369.673.571l-1.094.947" transform="translate(-108.847 2837.278)" fill="#00cde6"/>
      <path id="路径_42" data-name="路径 42" d="M249.3,191.991c-.158-.234-.5-.549-.44-.686a5.982,5.982,0,0,1,.8-1.1c.2.2.605.461.568.6a5.8,5.8,0,0,1-.62,1.2l-.307-.007" transform="translate(-100.255 2830.614)" fill="#00cde6"/>
      <path id="路径_43" data-name="路径 43" d="M189.26,184.521c-.457.307-.817.656-.913.595a6.785,6.785,0,0,1-1.015-.94c.192-.183.465-.557.561-.517a9.815,9.815,0,0,1,1.367.862" transform="translate(-59.156 2834.997)" fill="#00cde6"/>
      <path id="路径_44" data-name="路径 44" d="M194.782,191.337a5.423,5.423,0,0,1-.854.55,4.048,4.048,0,0,1-.8-1.091c-.041-.087.368-.382.571-.581l1.079,1.122" transform="translate(-63.029 2830.604)" fill="#00cde6"/>
      <path id="路径_45" data-name="路径 45" d="M194.547,199.6c.361-.407.565-.848.824-.884.54-.075.65.4.649.855,0,.429-.106.88-.6.825-.267-.03-.493-.433-.87-.8" transform="translate(-63.976 2824.915)" fill="#00cde6"/>
      <path id="路径_46" data-name="路径 46" d="M246.241,199.488c.433-.353.685-.729.954-.742.512-.024.563.443.554.866s-.109.9-.611.809c-.284-.051-.5-.5-.9-.933" transform="translate(-98.513 2824.89)" fill="#00cde6"/>
      <path id="路径_47" data-name="路径 47" d="M179.949,179.27l1.088,1.01c-.218.189-.447.547-.651.533-.442-.03-1.1.033-1.077-.692.008-.227.321-.443.64-.851" transform="translate(-53.795 2837.934)" fill="#00cde6"/>
      <path id="路径_48" data-name="路径 48" d="M249.6,206.21a8.52,8.52,0,0,1,.75,1.428c.034.111-.395.361-.611.547a7.162,7.162,0,0,1-.771-1.148c-.05-.114.3-.4.632-.828" transform="translate(-100.334 2819.891)" fill="#00cde6"/>
      <path id="路径_49" data-name="路径 49" d="M255.821,184.249a9.53,9.53,0,0,1-1.343.862c-.079.034-.362-.4-.55-.613a7.927,7.927,0,0,1,1.093-.84c.091-.05.395.283.8.592" transform="translate(-103.648 2834.999)" fill="#00cde6"/>
    </g>
  </g>
</svg>
