<?xml version="1.0" encoding="UTF-8"?><svg xmlns="http://www.w3.org/2000/svg" xmlns:xlink="http://www.w3.org/1999/xlink" viewBox="0 0 943.07 997.39"><defs><style>.cls-1{fill:#fff;}.cls-2{stroke:#8700f0;stroke-width:5px;}.cls-2,.cls-3,.cls-4,.cls-5,.cls-6,.cls-7,.cls-8{fill:none;}.cls-2,.cls-4{stroke-linecap:round;stroke-linejoin:round;}.cls-9{fill:url(#_未命名漸層_91);}.cls-3{filter:url(#drop-shadow-1);}.cls-10{fill:#8700f0;}.cls-11{fill:#00cde6;}.cls-12{fill:#ffefe9;}.cls-13{fill:#fffaf6;}.cls-4{stroke:#00cde6;stroke-width:7px;}.cls-6{clip-path:url(#clippath);}.cls-7{filter:url(#drop-shadow-2);}.cls-8{clip-path:url(#clippath-1);}</style><clipPath id="clippath"><rect class="cls-5" x="-1421.43" y="-1539.61" width="1124" height="2680.9"/></clipPath><linearGradient id="_未命名漸層_91" x1="-4284.98" y1="1276.17" x2="-5590.34" y2="2382.36" gradientTransform="translate(-6650.57 1112.09) rotate(156.33) scale(1.05 -1.02) skewX(-3.52)" gradientUnits="userSpaceOnUse"><stop offset=".44" stop-color="#00cde6"/><stop offset=".97" stop-color="#0076ad"/></linearGradient><filter id="drop-shadow-1" filterUnits="userSpaceOnUse"><feOffset dx="-15" dy="15"/><feGaussianBlur result="blur" stdDeviation="0"/><feFlood flood-color="#2d0075" flood-opacity="1"/><feComposite in2="blur" operator="in"/><feComposite in="SourceGraphic"/></filter><filter id="drop-shadow-2" filterUnits="userSpaceOnUse"><feOffset dx="-10" dy="10"/><feGaussianBlur result="blur-2" stdDeviation="0"/><feFlood flood-color="#2d0075" flood-opacity="1"/><feComposite in2="blur-2" operator="in"/><feComposite in="SourceGraphic"/></filter><clipPath id="clippath-1"><path class="cls-5" d="m634.71,224.14v-24.55h124.49v14.66l49.22,19.16s107.74-53.33,105.97-55.55c-1.77-2.22-19.51-123.26-19.51-123.26l-47.44-48.77-269.58-19.95-124.53,44.78-8.82,67.84,8.02,63.26,25.3,53.8,64.12,40.02,50.55-13.77,42.22-17.66Z"/></clipPath></defs><g id="_底色"><g class="cls-6"><path class="cls-9" d="m-1083.22,1401.12c-120.44-28.97-231.2-96.55-329.2-200.85-31.45-33.48-59.12-65.8-85.87-97.05-32.92-38.46-64.01-74.78-95.58-105.1-29.74-28.56-57.06-49.11-85.99-64.67-45.84-24.65-128.66-56.29-317.82-46.4-15.6.82-30.67.89-45.23.96-11.4.05-30.49.15-37.09.97.35-.04,8.64-1.12,20.79-5.94l-179.99-267.78c59.73-23.72,124.5-24.03,171.79-24.25,8.8-.04,18.78-.09,23.59-.34,117.08-6.12,219.02-.97,311.64,15.74,46.01,8.3,90.23,19.68,131.45,33.81,39.82,13.66,78.18,30.36,114.02,49.63,60.84,32.72,116.82,73.98,171.13,126.15,43.76,42.02,81.76,86.43,118.52,129.37,24.28,28.36,49.39,57.7,75.48,85.47,43.97,46.8,88.3,77.42,124.81,86.2,15.58,3.75,38.08,5.9,73.96-10.91,16.97-7.95,53.35-32.16,106.25-104.98,45.39-62.48,88.09-139.08,133.3-220.18,48.11-86.3,97.86-175.54,154.64-253.15,33.21-45.38,65.9-82.88,99.93-114.65,43.52-40.63,88.55-71.32,137.64-93.83,48.32-22.16,102.15-37.37,159.99-45.23,53.53-7.26,109.23-8.06,165.57-2.35,55.02,5.57,109.08,17.18,160.67,34.49,53.71,18.03,103.19,41.73,147.08,70.45,74.82,48.97,141.25,126.16,225.36,223.9,142.51,165.6,337.69,392.4,604.76,490.2,3.83,1.4,7.58,2.79,11.28,4.15,14.5,5.34,34.36,12.66,41.16,14.19-10.86-2.44-30.49-.93-40.47,2.96l223.7,246.89c-66.04,36.92-137.85,51.72-213.43,43.97-57.59-5.9-105.85-23.68-148.43-39.37-3.43-1.26-6.91-2.55-10.46-3.85-89.03-32.61-176.56-75.95-260.14-128.82-71.48-45.22-139.87-96.85-209.05-157.84-121.69-107.26-220.31-221.86-299.56-313.95-34.82-40.46-67.71-78.68-95.81-108.31-32.19-33.93-47.37-45.26-52.4-48.55-28.57-18.7-68.18-31.78-108.68-35.88-39.46-4-76.06.62-103.05,12.99-22.57,10.35-60.57,37.84-113.37,110-47.21,64.51-93.01,146.68-137.31,226.15-46.92,84.17-95.44,171.21-150.08,246.42-72.14,99.31-144.68,163.8-228.28,202.95-54.06,25.32-111.15,41.55-169.69,48.23-47.68,5.44-95.78,4.54-143.56-2.66-16.02-2.41-32.01-5.54-47.93-9.37Zm2266-288.36s0,0,0,0c0,0,0,0,0,0Z"/></g></g><g id="_設計"><path class="cls-4" d="m705.07,204.13c-73.47,0-122.33,47.65-122.33,106.43,0,38.91,21.42,72.94,57.22,91.5-2.26,6.36-5.59,13.21-10.35,17.98,0,0,17.78,1.02,31.89-9.26,13.24,4.01,27.84,6.2,43.58,6.2,73.47,0,122.33-47.65,122.33-106.43s-48.86-106.43-122.33-106.43Z"/><path class="cls-11" d="m281.52,243.8c5.92,0,9.45,2.2,9.45,5.89s-3.53,5.89-9.45,5.89-9.45-2.26-9.45-5.89,3.62-5.89,9.45-5.89m0-7c-11.36,0-16.45,6.47-16.45,12.89s5.09,12.89,16.45,12.89c4.27,0,7.85-.88,10.64-2.62,3.69-2.3,5.81-6.04,5.81-10.27s-2.12-7.97-5.8-10.27c-2.79-1.74-6.37-2.62-10.65-2.62h0Z"/><path class="cls-11" d="m347.82,44.58c53.03,0,91.52,36.58,91.52,86.99s-38.49,86.99-91.52,86.99c-7.27,0-14.42-.69-21.25-2.06-.19-.04-.37-.06-.55-.06-1.04,0-2.03.58-2.6,1.57-2.48,4.3-6.6,6.5-11.83,6.5-2.96,0-6.26-.7-9.83-2.12-10.72-4.27-15.83-12.02-13.68-20.73.33-1.34-.12-2.76-1.13-3.59-19.48-16-30.65-40.24-30.65-66.49,0-50.4,38.49-86.99,91.52-86.99m0-7c-27.45,0-52.48,9.42-70.47,26.52-18.09,17.19-28.05,41.15-28.05,67.47,0,27.61,11.47,53.18,31.55,70.51-1.78,11.39,5.06,21.53,18.31,26.81,4.37,1.74,8.55,2.62,12.43,2.62,6.81,0,12.51-2.69,16.32-7.64,6.46,1.12,13.14,1.69,19.91,1.69,27.45,0,52.48-9.42,70.47-26.52,18.09-17.19,28.05-41.15,28.05-67.47s-9.96-50.28-28.05-67.47c-17.99-17.1-43.02-26.52-70.47-26.52h0Z"/><path class="cls-12" d="m525.33,568.31c.97.54,1.94,1.14,2.91,1.74,2.27,1.41,4.57,2.81,7.03,3.26,1.69.31,3.45.57,5.13.2,1.68-.37,3.29-1.5,3.78-3.15.73-2.45.37-4.53-.63-6.32-2.04-3.66-6.77-6.1-10.37-8.01l-.72-.5c-.54.78-1.09,1.54-1.67,2.29-2.59,3.43-5.63,6.84-8.97,9.74,1.13.31,2.27.63,3.41.95l.11-.2Z"/><path class="cls-1" d="m529.79,609.02c2.63-13.98-2.99-24.71-2.49-38.92l.95-.04c-.97-.6-1.93-1.2-2.91-1.74l-.11.2c-1.14-.31-2.27-.63-3.41-.95-10.07,8.76-22.95,13.03-35.03.24l-.28.27c-1.15.22-2.29.48-3.43.77-3.88.99-7.68,2.33-11.52,3.48-6.46,1.95-13.03,3.49-19.65,4.82l.2.98c-.2,11.27-1.31,19.37-2.33,30.59v.38c26.66,0,53.33,0,80,0v-.06Z"/><path class="cls-1" d="m374.58,593.38c-2.23-.13-4.46-.4-6.66-.8-.08.27-.17.54-.24.81l.2.06c.32,4.91.34,10.37-.25,15.25v1.25c27.39,0,54.78,0,82.16,0v-1.25c1.02-11.22,2.13-19.32,2.33-30.59l-.2-.98c-7.85,1.57-15.76,2.85-23.64,4.16-14.04,2.33-27.98,5.55-42.21,6.57-.39.43-.79.85-1.2,1.26l.74.73c-1.09,1.51-2.81,2.53-4.62,3.05-2.07.59-4.25.59-6.4.46Z"/><path class="cls-12" d="m386.07,587.87c14.22-1.02,28.17-4.25,42.21-6.57,7.89-1.31,15.79-2.58,23.64-4.16,6.62-1.33,13.18-2.87,19.65-4.82,3.84-1.16,7.64-2.49,11.52-3.48l-.3-1.18c.92-.41,1.84-.82,2.76-1.23-2.04-2.38-4.06-5.27-6.04-8.72l-.3-.09c-.22.61-.22,1.31-.45,1.93-.26.72-1.09,1.37-1.75.99-.24-.13-.39-.37-.54-.6-1.24-1.94-2.48-3.87-3.72-5.81-.91-1.42-1.84-3.17-1.56-4.73h-.08c.07-1.03.14-2.05.21-3.06-.74-1.27-1.39-2.62-1.96-3.95-.1.07-.2.13-.31.2l-.78-.06c-4.75-.42-9.54.09-14.29.49-.05,0-.1,0-.14.01-16.33,1.37-32.74,1.58-49.13,1.79-1.21.02-2.43.03-3.64.05-.49-.98-1.37-1.53-2.36-1.97.32.6.38,1.32.2,1.98l-.25-.07c-1.74.23-2.85,1.93-3.68,3.48-6.43,11.97-10.52,25.2-11.98,38.71-.1.9.09,2.15,1,2.21l.41.41c.16-.15.31-.31.47-.47.41-.42.81-.84,1.2-1.26Z"/><path class="cls-1" d="m417.74,366.89c-.07-3.27.01-6.55.25-9.81h-.16c-.5.42-.98.88-1.43,1.37-15.79,6.81-31.59,13.62-47.38,20.43-4.61,1.99-9.28,4.01-13.28,7.06-11.7,8.91-15.48,24.59-18.23,39.04-6.74,35.39-11.9,71.08-15.47,106.93-.52,5.23-1.01,10.51-.32,15.71,1.41,10.65,7.57,19.99,13.57,28.91l3.39,3.27c4.24,2.78,9.03,4.7,14.01,5.63.6-.14,1.18-.32,1.75-.54.23,1.03.6,2,1.24,2.84,1.28,1.7,3.39,2.53,5.42,3.17,2.24.7,4.52,1.26,6.83,1.68,2.2.4,4.42.67,6.66.8,2.15.13,4.34.13,6.4-.46,1.81-.52,3.53-1.55,4.62-3.05l-.74-.73c-.15.16-.31.31-.47.47l-.41-.41c-.91-.06-1.09-1.31-1-2.21,1.46-13.51,5.56-26.74,11.98-38.71.83-1.55,1.94-3.25,3.68-3.48l.25.07c.18-.66.12-1.38-.2-1.98.98.44,1.87.99,2.36,1.97,1.21-.01,2.42-.03,3.64-.05,16.39-.21,32.8-.41,49.13-1.79l-.03-.38c4.45-28.76-4.96-58.22-1.34-87.1l.59-.1c-2.9-15.18-5.53-28.22-6.59-32.23-1.13-4.53-4.63-6.59-7.65-9.79-2.62-2.77-5.03-5.76-7.23-8.87-1.69-2.39-2.66-5.19-3.62-7.95-1.76-5.1-3.52-10.21-5.29-15.31-.58.05-1.15.14-1.73.25-1.76-1.09-2.86-3.12-3.21-5.18-.38-2.28.02-4.62.57-6.87.02-.08.04-.17.06-.25l-.31-.08c-.47-.63-.8-1.35-.98-2.11l.66-.15Z"/><path class="cls-1" d="m418.38,369.23c.47-1.8,1.27-3.74,3.01-4.33.21-.07.42-.12.63-.14l-.04-.35c.3-1.37.4-3.77.7-5.14.54-2.41,1.31-5.14,3.42-6.33.11-.06.22-.12.33-.17.51-.23,1.05-.36,1.6-.39l-.03-.46c.34-2.18.54-5.29,1.55-7.26.6-1.19,1.37-2.36,2.34-3.26l-.58-.26c.12-.7.24-1.41.37-2.11l-.61-.11c-5.02,2.92-10.44,6.33-12.17,11.86-.45,1.44-.62,2.95-.76,4.46-.06.61-.11,1.21-.14,1.82h0c-.24,3.26-.32,6.54-.25,9.81l-.66.15c.18.76.51,1.49.98,2.11l.31.08Z"/><path class="cls-12" d="m470.96,234.8c5.75.84,10.79,4.18,16.3,6.05l1.34-.28c3.08.15,5.78,2.21,7.65,4.66,1.87,2.45,3.12,5.31,4.72,7.95,1.14,1.87,2.45,3.64,3.92,5.26,1.38,4.16,1.65,8.68.77,12.98h.07c-.88,4.21.09,8.62.88,12.88.85,4.65,1.41,9.72-.84,13.88h-.12c-.18,1.36-.09,2.81.03,4.2.07.82.19,1.73.86,2.21.64.45,1.5.3,2.24.06,1.39-.46,2.68-1.22,3.76-2.21l-.02-.07c2.86-.95,6.38.43,7.7,3.17,1.14,2.35.69,5.18-.31,7.59-2.06,4.98-6.45,9.44-11.62,10.96-2.39.7-5.44,1.47-7.8.71-.24.78-.42,1.58-.55,2.39-2.64,6.33-4.2,13.1-4.61,19.95-.08,1.26-.12,2.53-.11,3.8h0c.17.87.54,1.9,1.01,2.9-3.7,11.57-7.96,23.85-17.66,31.15-1.7,1.27-3.52,2.37-5.3,3.54l-.32-.57c-1.14.67-2.24,1.43-3.27,2.27-.32-6.57-.02-13.25.09-19.77.05-2.57.09-5.18-.46-7.7-.57-2.58-1.75-4.98-2.93-7.35-2.3-4.65-4.6-9.31-6.89-13.96-.19-.38-.38-.77-.58-1.15-.53-1.01-1.1-2-1.84-2.87-1.05-1.24-2.4-2.19-3.76-3.1-5.54-3.7-11.78-7.48-17.9-10.11-1.71-.73-3.34-1.69-5.02-.9-.08.04-.16.08-.24.12l-.91-.08c-1.6-13.95-3.2-29.7,3.13-42.64l-.35-.15c1.47-3.36,2.74-6.82,3.77-10.34.69-.84,1.24-1.84,1.7-2.8,3.05-6.37,4.99-13.44,9.5-18.87l-.21-.18c2.16-4.6,4.25-6.03,6.7-8.07,2.75-2.28,5.91-4.19,9.44-4.94,2.6-.73,5.35-.92,8.03-.54Zm-22.61,35.86c.01-.28-.05-.51-.22-.64-.79-.62-1.56,0-2.02.55-.65.78-1.61,2.01-.84,2.87,1.08,1.21,3-1.32,3.08-2.78Zm31.15,7.72c.01-.29-.05-.52-.21-.65-.79-.62-1.56,0-2.02.55-.65.78-1.61,2.01-.84,2.87,1.08,1.21,3-1.31,3.08-2.78Z"/><path class="cls-10" d="m531.53,259.52c-1.33-3.59-2.39-7.31-3.76-10.89-2.11-5.54-5.25-11.05-10.33-14.04-1.1-2.6-2.84-4.94-5.01-6.74-4.09-1.97-7.74-4.77-11.81-6.79-12-5.94-26.54-4.84-36.89,3.64l.02.11c-4.13.77-8.18,2.16-11.19,4.97-2.53.91-5.14,2.44-6.82,4.33-3.29,3.69-5.67,8.24-7.06,12.98-.69,2.34-1.14,4.76-1.26,7.2-.12,2.37.56,4.88.14,7.21l.27.05c-.51,2.91-1.19,5.79-2.03,8.63.69-.84,1.24-1.84,1.7-2.8,3.05-6.37,4.99-13.44,9.5-18.87l-.21-.18c2.16-4.6,4.25-6.03,6.7-8.07,2.75-2.28,5.91-4.19,9.44-4.94,2.6-.73,5.35-.92,8.03-.54,5.75.84,10.79,4.18,16.3,6.05l1.34-.28c3.08.15,5.78,2.21,7.65,4.66,1.87,2.45,3.12,5.31,4.72,7.95,1.14,1.87,2.45,3.64,3.92,5.26,1.38,4.16,1.65,8.68.77,12.98h.07c-.88,4.21.09,8.62.88,12.88.85,4.65,1.41,9.72-.84,13.88h-.12c-.18,1.36-.09,2.81.03,4.2.07.82.19,1.73.86,2.21.64.45,1.5.3,2.24.06,1.39-.46,2.68-1.22,3.76-2.21l-.02-.07c2.86-.95,6.38.43,7.7,3.17l1.06-.81c1.15-1.48,2.15-3.1,2.93-4.8.16-1.9,1.07-3.71,2.07-5.37,1.99-3.31,4.4-6.38,6.09-9.85,1.7-3.47,2.67-7.51,1.55-11.21l-.89-.04c.12-2.39.23-4.78.34-7.16.03-.76.07-1.52.03-2.27-.7-1.45-1.31-2.95-1.87-4.47Z"/><path class="cls-12" d="m458.9,340.25c-.53-1.01-1.1-2-1.84-2.87-1.05-1.24-2.4-2.19-3.76-3.1-5.54-3.7-11.78-7.48-17.9-10.11-1.71-.73-3.34-1.69-5.02-.9-.08.04-.16.08-.24.12-2.22,1.25-1.71,4.25-.67,6.33.72,1.43,1.8,2.63,3,3.72,1.2,1.09,2.52,2.09,3.7,3.11,1.91,1.67,4,3.38,5.95,5.25l-.06.06c-.02.08-.04.17-.05.25-.51-.42-1.05-.81-1.62-1.15-1.95-1.16-4.42-1.67-6.53-.83-.75.3-1.41.74-1.99,1.28-.97.9-1.74,2.07-2.34,3.26-1,1.97-1.21,5.08-1.55,7.26l.03.46c-.55.03-1.09.16-1.6.39-.12.05-.23.11-.33.17-2.11,1.19-2.88,3.91-3.42,6.33-.3,1.37-.4,3.77-.7,5.14l.04.35c-.21.02-.42.07-.63.14-1.74.59-2.54,2.52-3.01,4.33-.02.08-.04.17-.06.25-.55,2.25-.96,4.59-.57,6.87.35,2.06,1.45,4.09,3.21,5.18.57-.12,1.14-.2,1.73-.25,1.76,5.1,3.52,10.21,5.29,15.31.96,2.76,1.93,5.56,3.62,7.95,2.21,3.11,4.61,6.1,7.23,8.87,3.02,3.2,6.53,5.26,7.65,9.79,1.06,4.01,3.69,17.05,6.59,32.23,4.69,24.47,10.11,54.49,10.94,61.12.84,6.71,1.41,13.5,3.3,19.98.49,1.67,1.17,3.73,2.06,5.83.57,1.33,1.22,2.68,1.96,3.95,2.41,4.12,5.76,7.43,10.22,6.8,5.98-.85,11.25-6.35,15.63-10.09,6.41-5.47,11.93-11.98,16.23-19.23,2.73-4.6,4.27-10.24,3.56-15.53l-.5-.05c.06-.54.11-1.07.18-1.61.06-.58.14-1.16.22-1.74-.89-4.86-3.79-9.26-6.5-13.48-2.67-4.16-5.07-8.48-7.29-12.9-4.6-9.14-8.42-18.7-12.18-28.14-4.59-11.52-8.31-23.99-14.61-34.71-4.64-7.89-6.18-16.58-6.6-25.46-.32-6.57-.02-13.25.09-19.77.05-2.57.09-5.18-.46-7.7-.57-2.58-1.75-4.98-2.93-7.35-2.3-4.65-4.6-9.31-6.89-13.96-.19-.38-.38-.77-.58-1.15Z"/><path class="cls-1" d="m468.27,542.51l.78.06c.11-.06.21-.13.31-.2-.89-2.1-1.57-4.16-2.06-5.83-1.89-6.49-2.46-13.27-3.3-19.98-.83-6.63-6.25-36.65-10.94-61.12l-.59.1c-3.63,28.88,5.79,58.34,1.34,87.1l.03.38s.1,0,.14-.01c4.76-.41,9.54-.91,14.29-.49Z"/><path class="cls-12" d="m482.79,567.65l.3,1.18c1.14-.29,2.27-.55,3.43-.77l.28-.27c-.42-.44-.83-.9-1.24-1.37-.92.41-1.84.82-2.76,1.23Z"/><path class="cls-1" d="m547.38,524.41c10.75-31.2,16.59-63.94,20.01-96.78,1.06-10.18,1.72-21.15-3.52-29.93-3.93-6.58-10.65-10.96-17.37-14.67-12.5-6.91-24.15-12.1-37.34-17.46-.58-.06-1.15-.1-1.73-.13,0-.09-.01-.19-.03-.29-.22-1.71-1.11-3.26-1.97-4.75-1.44-2.47-2.87-4.95-4.31-7.42-1.14-1.97-2.45-4.07-4.44-5.05-.43-.32-.89-.6-1.37-.84-.08,1.26-.12,2.53-.11,3.8h0c.17.87.54,1.9,1.01,2.9-3.7,11.57-7.96,23.85-17.66,31.15-1.7,1.27-3.52,2.37-5.3,3.54l-.32-.57c-1.14.67-2.24,1.43-3.27,2.27.42,8.88,1.96,17.57,6.6,25.46,6.3,10.71,10.02,23.19,14.61,34.71,3.76,9.44,7.58,19,12.18,28.14,2.22,4.42,4.63,8.75,7.29,12.9,2.71,4.22,5.61,8.62,6.5,13.48.1.53.17,1.06.22,1.59-.15.04-.3.09-.44.15-.07.54-.12,1.07-.18,1.61l.5.05c.71,5.3-.84,10.94-3.56,15.53-4.3,7.25-9.82,13.76-16.23,19.23-4.38,3.74-9.65,9.24-15.63,10.09-4.45.63-7.81-2.68-10.22-6.8-.07,1.02-.14,2.03-.21,3.05h.08c-.28,1.57.65,3.32,1.56,4.74,1.24,1.94,2.48,3.87,3.72,5.81.15.23.3.47.54.6.66.39,1.49-.27,1.75-.99.23-.62.23-1.31.45-1.93l.3.09c1.97,3.46,4,6.34,6.04,8.72.42.48.83.94,1.24,1.37,12.08,12.79,24.96,8.52,35.03-.24,3.35-2.9,6.38-6.31,8.97-9.74.57-.76,1.13-1.52,1.67-2.29,2.03-2.89,3.87-5.9,5.55-9.01,1.76-3.25,3.35-6.61,4.79-10.02,1.36-3.17,2.59-6.4,3.73-9.64.24-.7.49-1.39.73-2.09.05-.12.09-.24.12-.36Z"/><path class="cls-12" d="m551.11,541.58c-1.91-1.95-4.81-3.35-7.36-4.68l-.95-.4c-1.44,3.41-3.03,6.77-4.79,10.02,2.35,2.45,6.01,2.99,8.87,4.72h0c.52.08,1.14.15,1.8.16,1.56,0,3.27-.36,3.85-1.85,1.39-3.53.48-6.02-1.43-7.97Z"/><path class="cls-12" d="m544.36,562.94c4.78-.67,7.66-7.28,4.01-10.6-.02-.02-.04-.04-.06-.06-.44-.39-.91-.73-1.42-1.04h0c-2.86-1.73-6.52-2.27-8.87-4.72-1.68,3.11-3.52,6.12-5.55,9.01l.72.5c3.6,1.91,8.33,4.35,10.37,8.01.3-.35.57-.72.81-1.11Z"/><path class="cls-12" d="m546.89,551.25c.5.3.98.65,1.42,1.04.13-.29.26-.59.38-.88-.66,0-1.28-.07-1.8-.16Z"/><path class="cls-12" d="m543.74,536.91c2.56,1.33,5.46,2.73,7.36,4.68.84-.79,1.69-1.58,2.53-2.37l-.03-.03c2.1-1.88,2.73-5.37,1.55-8.04-1.41-3.22-4.36-5.65-7.79-6.34l-.11-.04c-.24.7-.48,1.4-.73,2.09-1.14,3.24-2.38,6.46-3.73,9.64l.95.4Z"/><path class="cls-2" d="m479.5,278.39c.01-.29-.05-.52-.21-.65-.79-.62-1.56,0-2.02.55-.65.78-1.61,2.01-.84,2.87,1.08,1.21,3-1.31,3.08-2.78Z"/><path class="cls-2" d="m448.35,270.66c.01-.28-.05-.51-.22-.64-.79-.62-1.56,0-2.02.55-.65.78-1.61,2.01-.84,2.87,1.08,1.21,3-1.32,3.08-2.78Z"/><path class="cls-2" d="m461.65,271.42c-.83,2.01-1.81,4.13-3.68,5.22-1.14.66-2.51.89-3.54,1.69-.96.74-1.51,1.91-1.74,3.11-.24,1.19-.18,2.41-.13,3.63"/><path class="cls-2" d="m494.84,271.42c-1.65-2.82-3.63-4.92-6.23-6.91-2.6-1.98-6.63-3.65-10.16-3.11"/><path class="cls-2" d="m456.78,255.57c-2.16-2.98-7.45-2.96-10.43-1.76"/><path class="cls-2" d="m457.7,310.93c-2.31-1.5-11.71-3.73-14.34-4.56"/><path class="cls-2" d="m511.73,302.66c.25-.13.51-.24.78-.32,2.86-.95,6.38.43,7.7,3.17,1.14,2.35.69,5.18-.31,7.59-2.06,4.98-6.45,9.44-11.62,10.96-2.39.7-5.44,1.47-7.8.71-.5-.16-.96-.39-1.38-.71"/><path class="cls-2" d="m511.01,312.52c-1.97-.84-3.27-.33-5.21.58"/><path class="cls-2" d="m477.9,234.26c1.21-1.3,3.01-1.88,4.75-2.24,6.75-1.4,14-.18,19.92,3.34"/><path class="cls-2" d="m488.59,240.57c3.08.15,5.78,2.21,7.65,4.66,1.87,2.45,3.12,5.31,4.72,7.95,1.14,1.87,2.45,3.64,3.92,5.26,2.32,2.56,5.03,4.78,8.01,6.53"/><path class="cls-2" d="m506.02,270.25c-.12.39-.22.78-.3,1.17-.88,4.19.09,8.61.88,12.86.85,4.65,1.41,9.72-.84,13.88"/><path class="cls-2" d="m524.19,300.82c-.02-.31-.01-.62.01-.92.16-1.9,1.07-3.71,2.07-5.37,1.99-3.31,4.4-6.38,6.09-9.85,1.7-3.47,2.67-7.51,1.55-11.21"/><path class="cls-2" d="m534.26,265.67c-.3-.55-.59-1.11-.86-1.67-.7-1.45-1.31-2.95-1.87-4.47-1.33-3.59-2.39-7.31-3.76-10.89-2.11-5.54-5.25-11.05-10.33-14.04-.14-.08-.28-.16-.42-.24"/><path class="cls-2" d="m513,228.11c-.19-.09-.38-.18-.56-.27-4.09-1.97-7.74-4.77-11.81-6.79-12-5.94-26.54-4.84-36.89,3.64"/><path class="cls-2" d="m454.31,229.24c-.57.15-1.16.33-1.75.55-2.53.91-5.14,2.44-6.82,4.33-3.29,3.69-5.67,8.24-7.06,12.98-.69,2.34-1.14,4.76-1.26,7.2-.12,2.37.56,4.88.14,7.21"/><path class="cls-2" d="m463.3,235.26c-.12.02-.25.05-.37.08-3.53.75-6.69,2.65-9.44,4.94-2.45,2.04-4.54,3.47-6.7,8.07"/><path class="cls-2" d="m435.19,275.89c-1.08,1.54-2.01,3.14-2.82,4.78-6.33,12.94-4.73,28.69-3.13,42.64"/><path class="cls-2" d="m483.55,334.75c-7.14,3.98-15.46,5.82-23.61,5.2"/><path class="cls-2" d="m445.59,345.58c-1.05-1.35-2.22-2.6-3.46-3.78-1.95-1.87-4.04-3.58-5.95-5.25-1.18-1.03-2.5-2.02-3.7-3.11-1.2-1.09-2.29-2.29-3-3.72-1.04-2.07-1.55-5.08.67-6.33.07-.04.15-.08.24-.12,1.69-.78,3.31.17,5.02.9,6.12,2.63,12.36,6.41,17.9,10.11,1.35.91,2.7,1.86,3.76,3.1.74.87,1.31,1.85,1.84,2.87.19.38.39.77.58,1.15,2.3,4.65,4.6,9.31,6.89,13.96,1.18,2.37,2.36,4.77,2.93,7.35.55,2.52.51,5.12.46,7.7-.11,6.52-.41,13.2-.09,19.77.42,8.88,1.96,17.57,6.6,25.46,6.3,10.71,10.02,23.19,14.61,34.71,3.76,9.44,7.58,19,12.18,28.14,2.22,4.42,4.63,8.75,7.29,12.9,2.71,4.22,5.61,8.62,6.5,13.48.1.53.17,1.06.22,1.59.02.2.03.41.04.61"/><path class="cls-2" d="m444.5,364.99c-3.02-3.66-6.45-7-10.19-9.92-1.14-.89-2.32-1.75-3.67-2.25-.83-.31-1.73-.48-2.61-.42-.55.03-1.09.16-1.6.39-.12.05-.23.11-.33.17-2.11,1.19-2.88,3.91-3.42,6.33-.3,1.37-.4,3.77-.7,5.14"/><path class="cls-2" d="m432.45,373.16c-1.39-2.39-3.44-4.3-5.51-6.13-1.4-1.22-3.15-2.49-4.91-2.27-.21.02-.42.07-.63.14-1.74.59-2.54,2.52-3.01,4.33-.02.08-.04.17-.06.25-.55,2.25-.96,4.59-.57,6.87.35,2.06,1.45,4.09,3.21,5.18.18.12.38.23.58.32"/><path class="cls-2" d="m421.55,378.02c.37,1.09.75,2.18,1.13,3.27,1.76,5.1,3.52,10.21,5.29,15.31.96,2.76,1.93,5.56,3.62,7.95,2.21,3.11,4.61,6.1,7.23,8.87,3.02,3.2,6.53,5.26,7.65,9.79,1.06,4.01,3.69,17.05,6.59,32.23,4.69,24.47,10.11,54.49,10.94,61.12.84,6.71,1.41,13.5,3.3,19.98.49,1.67,1.17,3.73,2.06,5.83.57,1.33,1.22,2.68,1.96,3.95,2.41,4.12,5.76,7.43,10.22,6.8,5.98-.85,11.25-6.35,15.63-10.09,6.41-5.47,11.93-11.98,16.23-19.23,2.73-4.6,4.27-10.24,3.56-15.53"/><path class="cls-2" d="m455.03,359.03c-2.92-4.69-6.15-9.18-9.68-13.43-1.03-1.24-2.09-2.47-3.33-3.5-.51-.42-1.05-.81-1.62-1.15-1.95-1.16-4.42-1.67-6.53-.83-.75.3-1.41.74-1.99,1.28-.97.9-1.74,2.07-2.34,3.26-1,1.97-1.21,5.08-1.55,7.26"/><path class="cls-2" d="m434.76,351.63c-.3.91-.36,1.91-.15,2.85"/><path class="cls-2" d="m500.36,326.15c-.14.33-.29.66-.43,1-2.64,6.33-4.2,13.1-4.61,19.95-.08,1.26-.12,2.53-.11,3.8"/><path class="cls-2" d="m496.3,353.53c-.03.09-.06.18-.08.26-3.7,11.57-7.96,23.85-17.66,31.15-1.7,1.27-3.52,2.37-5.3,3.54-.81.53-1.6,1.08-2.36,1.67"/><path class="cls-2" d="m495.93,347.63c.26.08.51.18.75.3,1.99.97,3.3,3.08,4.44,5.05,1.43,2.47,2.87,4.95,4.31,7.42.86,1.49,1.75,3.04,1.97,4.75.01.1.02.19.03.29.17,1.97-.53,3.94-1.22,5.8-3.43,9.28-6.87,18.56-10.3,27.84-2.29-4.66-4.57-9.32-6.86-13.97l-3.04,1.18c-2.21.99-4.3,2.23-6.23,3.7"/><path class="cls-2" d="m508.44,365.27c.24.1.48.19.72.29,13.19,5.37,24.84,10.55,37.34,17.46,6.71,3.71,13.44,8.09,17.37,14.67,5.25,8.78,4.58,19.76,3.52,29.93-3.42,32.83-9.26,65.57-20.01,96.78-.04.12-.08.24-.12.36-.24.7-.48,1.4-.73,2.09-1.14,3.24-2.38,6.46-3.73,9.64-1.44,3.41-3.03,6.77-4.79,10.02-1.68,3.11-3.52,6.12-5.55,9.01-.54.78-1.09,1.54-1.67,2.29-2.59,3.43-5.63,6.84-8.97,9.74-10.07,8.76-22.95,13.03-35.03.24-.42-.44-.83-.9-1.24-1.37-2.04-2.38-4.06-5.27-6.04-8.72"/><path class="cls-2" d="m518.23,504.97c4.7.94,8.08,4.92,11.08,8.66,2.61,3.26,5.34,6.82,5.54,10.99.15,3.03-1.08,5.94-2.36,8.69-4.93,10.64-10.86,20.82-17.7,30.35-1.6,2.22-3.61,4.62-6.35,4.74-1.68.07-3.25-.76-4.72-1.57-5.36-2.97-10.65-6.05-15.88-9.26"/><path class="cls-2" d="m479.33,557.32c-.05.09-.09.19-.12.29-.22.61-.22,1.31-.45,1.93-.26.72-1.09,1.37-1.75.99-.24-.13-.39-.37-.54-.6-1.24-1.94-2.48-3.87-3.72-5.81-.91-1.42-1.84-3.17-1.56-4.73.06-.35.18-.69.37-1.01"/><path class="cls-2" d="m531.44,426.37c-11.9,15.74-21.41,33.28-28.12,51.83"/><path class="cls-2" d="m432.3,333.43c.03.14.05.3.06.46.12,1.14,0,2.7-.18,4.1-.1.82-.22,1.58-.32,2.17"/><path class="cls-2" d="m431.07,338.94c-5.02,2.92-10.44,6.33-12.17,11.86-.45,1.44-.62,2.95-.76,4.46-.06.61-.11,1.21-.14,1.82h0c-.24,3.26-.32,6.54-.25,9.81"/><path class="cls-2" d="m398.67,544.79c-1.74.23-2.85,1.93-3.68,3.48-6.43,11.97-10.52,25.2-11.98,38.71-.1.9.09,2.15,1,2.21"/><path class="cls-2" d="m547.37,524.81c3.44.69,6.39,3.12,7.79,6.34,1.18,2.67.55,6.15-1.55,8.04-.42.39-.91.71-1.45.94-.28.12-.6.22-.9.16"/><path class="cls-2" d="m543.74,536.91c2.56,1.33,5.46,2.73,7.36,4.68,1.91,1.95,2.82,4.44,1.43,7.97-.59,1.49-2.29,1.85-3.85,1.85-.66,0-1.28-.07-1.8-.16"/><path class="cls-2" d="m537.97,546.49l.04.04c2.35,2.45,6.01,2.99,8.87,4.72h0c.5.3.98.65,1.42,1.04.02.02.04.04.06.06,3.65,3.32.77,9.92-4.01,10.6-.22.03-.43.05-.66.06"/><path class="cls-2" d="m533.18,556.03c3.6,1.91,8.33,4.35,10.37,8.01,1,1.79,1.36,3.87.63,6.32-.49,1.65-2.1,2.77-3.78,3.15-1.68.37-3.43.12-5.13-.2-2.46-.45-4.75-1.85-7.03-3.26-.97-.6-1.93-1.2-2.91-1.74-.81-.45-1.62-.84-2.45-1.16"/><path class="cls-2" d="m468.27,542.51c-4.75-.42-9.54.09-14.29.49-.05,0-.1,0-.14.01-16.33,1.37-32.74,1.58-49.13,1.79-1.21.02-2.43.03-3.64.05-.47,0-.93.01-1.39.02"/><path class="cls-2" d="m401.08,544.86s0-.01,0-.02c-.49-.98-1.37-1.53-2.36-1.97-.52-.24-1.08-.45-1.61-.68-1.55-.68-3.25-.98-4.92-1.25-3.4-.55-6.81-1-10.24-1.35-1.91-.19-3.82-.36-5.74-.49"/><path class="cls-2" d="m486.51,568.07c-1.15.22-2.29.48-3.43.77-3.88.99-7.68,2.33-11.52,3.48-6.46,1.95-13.03,3.49-19.65,4.82-7.85,1.57-15.76,2.85-23.64,4.16-14.04,2.33-27.98,5.55-42.21,6.57-.61.05-1.23.08-1.84.12"/><path class="cls-2" d="m386.04,589.19c-.13.24-.27.46-.43.68-1.09,1.51-2.81,2.53-4.62,3.05-2.07.59-4.25.59-6.4.46-2.23-.13-4.46-.4-6.66-.8-2.31-.42-4.59-.98-6.83-1.68-2.03-.64-4.13-1.47-5.42-3.17-.64-.84-1.01-1.81-1.24-2.84-.27-1.24-.32-2.56-.36-3.83-.23-8.06-.34-16.29,2.13-23.96,2.46-7.67,7.99-14.82,15.71-17.11"/><path class="cls-2" d="m353.74,585.61c-.35-.06-.7-.12-1.05-.18-4.98-.93-9.77-2.85-14.01-5.63l-3.39-3.27c-6-8.92-12.16-18.26-13.57-28.91-.69-5.2-.2-10.49.32-15.71,3.58-35.85,8.74-71.53,15.47-106.93,2.75-14.45,6.53-30.13,18.23-39.04,4-3.05,8.67-5.07,13.28-7.06,15.79-6.81,31.59-13.62,47.38-20.43.29-.12.59-.25.88-.38"/><path class="cls-2" d="m375.55,411.46c3.23,26.9,6.08,53.86,8.52,80.84.38,4.22.76,8.45.73,12.69-.07,11.44-3.05,22.84-1.91,34.23"/><path class="cls-2" d="m452.46,455.54c-3.63,28.88,5.79,58.34,1.34,87.1"/><path class="cls-2" d="m527.3,570.09c-.5,14.21,5.12,24.94,2.49,38.92"/><path class="cls-2" d="m452.12,578.12c-.2,11.27-1.31,19.37-2.33,30.59"/><path class="cls-2" d="m367.88,593.45c.32,4.91.34,10.37-.25,15.25"/><path class="cls-1" d="m236.11,457.52c-1.11-6.43-1.86-20.07-3.06-24.74-1.01-3.94-2.01-7.89-3.49-11.68-2.08-5.31-5.05-10.22-8.14-15.04-.31-.78-.6-1.56-.88-2.35.65.43,1.33.82,2.02,1.17,3.26,1.66,6.91,2.37,10.28,3.79,1.79.76,3.49,1.7,5.07,2.84,1.19.83,2.31,1.79,3.34,2.83.31.54.66,1.05,1.04,1.56l.13.48c8.82-2.25,17.03-6.87,23.52-13.24l.44.09c.07-.33.08-.68.03-1.01-.09-.77-.42-1.48-.73-2.18-.26-.58-.53-1.16-.79-1.74l-.11.05c-5.38-9.26-7.37-20.02-10.46-30.3.99.26,1.98.44,2.99.56l.04-.29c11.47-1.15,23.18.16,34.11,3.82,3.17,1.06,6.34,2.36,8.86,4.56,4.15,3.65,5.92,9.22,7.46,14.53,8.17,28.04,14.89,56.48,21.61,84.89,1.16,4.93,2.34,9.88,2.9,14.91.52,4.72.5,9.48.35,14.22-.32,9.96-1.41,20.38-6.92,28.7-5.51,8.32-16.7,13.65-25.78,9.51-3.2-1.45-5.83-3.91-8.39-6.33-2.15-2.05-4.29-4.11-6.38-6.23-5.9-5.93-11.38-12.24-15.44-19.52-6.56-11.78-11.99-34.27-15.9-49l-1.88.5c-.08-.37-.23-.71-.5-.99-.65-.66-1.72-.65-2.64-.6-4.27.25-8.54.51-12.81.78.09-1.51.12-3.03.12-4.54Z"/><path class="cls-1" d="m120.36,575.03c-.13.02-.25.03-.37.03-6.93.44-14.01-1.63-19.58-5.79-6.18-4.62-10.42-11.75-11.52-19.39-.66-4.56-.25-9.2.18-13.79,3.97-43.28,3.79-86.99,13.27-129.41,3.14-14.05,14.75-20.93,27.18-26.44,8.28-3.67,16.18-8.2,23.54-13.5l1.68-.34c-.17-.88-.22-1.78.08-2.62.3-.84.93-1.53,1.54-2.18,3.22-3.48,6.46-6.97,9.91-10.22,2.03-1.91,4.13-3.74,6.35-5.43,1.9-1.46,4.39-2.88,6.59-1.92l.43-.09c.54,2.44,1.07,4.88,1.61,7.32l-.23.05c0,2.98.35,5.95,1.03,8.85l.42-.09c.64,2.48,2.24,4.68,3.87,6.69,4.36,5.36,9.34,10.2,14.81,14.43l.6-.79c1.67.98,3.56,1.59,5.49,1.79-.12.49-.21,1-.28,1.5l.05.04c-1.78,1.98-3.05,4.79-1.86,7.11.51.98,1.39,1.71,2.24,2.41,2.75,2.25,5.5,4.51,8.25,6.75,1.59,1.3,3.2,2.61,4.91,3.71.27.78.57,1.56.88,2.35,3.09,4.82,6.06,9.72,8.14,15.04,1.48,3.79,2.48,7.74,3.49,11.68,1.2,4.68,1.95,18.31,3.06,24.74,0,1.51-.03,3.03-.12,4.54-9.66.61-19.32,1.29-28.97,2.03-2.18.17-4.56.43-6.08,2.01-.93.95-1.38,2.25-1.78,3.51-1.05,3.32-1.9,6.7-2.55,10.12l-.97-.19c-2.6-.25-5.26.09-7.73.98l.27,1.1c-2.65.64-5.25,1.46-7.58,2.86-12.18,7.25-12.31,26.33-24.04,34.29l.33.47c-.62.45-1.19.97-1.69,1.56-.6,4.62-.82,9.32.03,13.89.89,4.75,3.02,9.37,6.59,12.63.91.82,1.91,1.56,2.98,2.16,2.23-.15,4.39-.99,6.17-2.35,11.73-5.31,25.22-5.86,37.2-10.72,11.83-4.8,21.86-13.92,27.78-25.23l.15.03c.09-.55.18-1.11.26-1.66,2.72-2.34,5.43-4.68,8.15-7.03,1.31-1.12,2.65-2.29,3.49-3.79.85-1.5,1.13-3.45.26-4.95-.82-1.42-2.9-2.11-4.25-1.2-.03-.26-.08-.51-.13-.77.27-.39.47-.81.54-1.28.06-.37.04-.72-.04-1.05l.26-.03c3.54-7.85,5.99-16.19,7.25-24.72.09-.6.15-1.25.03-1.84l1.88-.5c3.9,14.73,9.33,37.22,15.9,49,4.05,7.28,9.54,13.58,15.44,19.52-.31.83-.6,1.66-.91,2.49-.24,8.76-.48,17.5-.71,26.27-.14,4.76-.26,9.52-.12,14.28.2,6.53.28,24.23,1.43,32.4l-.12.02c.16,1.05.28,2.12.35,3.19H115.37c.65-3.5,1.22-15.87,1.25-17.42.09-5.29,1.13-10.56,3.07-15.48.21-.54.44-1.08.67-1.62Z"/><path class="cls-10" d="m153.57,352.36l-.18.31c-3.92-.94-9.15-4.11-11.26-7.54-2.12-3.43-3.19-7.39-3.92-11.35l.31-.1c-1.2-3.66-1.39-7.68-.7-11.5h0c3.54-4.96,2.77-12.05,1.32-17.96-.65-2.64-1.8-5.14-2.32-7.8-1.39-7.24,1.78-17.2,5.41-24.06h0c.22-1.79-.14-3.65-.16-5.46,0-.14,0-.27,0-.41,4.61-3.7,5.99-10.1,7.81-15.77,2.18-6.8,3.28-13.11,8.02-18.45,4.51-5.08,12.35-9.26,19.11-11.02,1.1-1.1,2.52-1.92,3.94-2.59,2.79-1.33,5.75-2.25,8.79-2.76,5.36-2.52,11.64-3.06,17.52-2.04,7.07,1.22,13.65,4.52,19.63,8.51,9.71,6.46,18.29,15.11,22.82,25.85,2.57,6.09,3.88,12.89,8.02,18.02,3.43,4.24,8.44,6.9,12.12,10.91,2.74,2.99,4.68,6.71,5.56,10.66,1.05,4.68.64,9.55,1.2,14.32.44,3.78,1.7,7.74,4.28,10.43.09.77.16,1.54.24,2.31.17,1.61.33,3.26-.14,4.79-.48,1.63-1.6,2.94-2.95,4,.29,3.41-.81,6.95-2.91,9.66l-.5-.31c-.56.71-1.24,1.33-1.98,1.84-1.47,1.03-3.17,1.69-4.85,2.35-2.35.92-4.79,1.85-7.32,1.75-.49-.03-.99-.09-1.48-.17-3.11,1.81-6.65,2.86-10.23,2.93l-.03-.29c-2.11.18-4.24.07-6.32-.35-.81-3.37-.92-6.97-2.64-9.96l-.31-.14c.63-1.27,1.19-2.57,1.68-3.88,3.11-8.3,3.82-13.09,3.46-21.95h.14c-.13-2.76-.03-5.52.31-8.25l.26-.03c-2.14-5.64.56-9.96-3.45-15.19-3.54-4.61-9.19-7.17-12.59-12.01-3.75-5.35-6.43-11.82-10.96-16.24-4.8-4.7-14.2-13.21-21.18-8.45-.04.03-.08.06-.12.09-.14.09-.27.2-.41.31-2.21,1.67-4.42,3.33-6.63,5-.71.54-1.44,1.08-2.3,1.31-.8.21-1.64.14-2.47.11-1.99-.05-4,.24-5.89.84l-.02.39c-2.27,0-6.72,2.02-7.32,3.73-2.99,8.46-1.85,18.17-6.17,26.17-2.23,4.13-6.05,6.66-9.99,9.04l.11.19c-.34,1.67-.67,3.32-1,4.98-.09.48-.19.95-.28,1.43l-.31-.06c-2.5,9.56,2.38,18.19,13.73,19.66l.04-.09c.83.43,1.74.71,2.67.84l.63-.29c1.45,3.2,3.11,5.73,4.62,10.45.94,2.93,1.61,5.95,2.27,8.96.34,1.52.67,3.05,1.01,4.57.09.45.2.9.3,1.35l-.43.09c-2.2-.96-4.68.46-6.59,1.92-2.22,1.69-4.32,3.52-6.35,5.43-2.31,1.27-4.94,1.99-7.58,2.08-1.3.04-2.62-.06-3.84-.51-.44-.16-.87-.37-1.28-.6Z"/><path class="cls-12" d="m208.73,356.39c-5.79-2.21-11.57-4.45-17.34-6.69-1.63-.64-3.49-1.51-3.88-3.22-.35-1.53.74-3.11,2.15-3.8,1.42-.7,3.06-.69,4.63-.57,6.98.54,13.63,3.05,20.18,5.53.29.11.59.22.88.33,6.94,2.63,13.91,5.3,20.51,8.64,0-.48.04-.97.1-1.45-1.62-4-2.52-8.29-2.65-12.61-.23-.56-.43-1.12-.6-1.7,2.75-2.9,5.02-6.27,6.78-9.89l.31.14c1.72,2.99,1.83,6.59,2.64,9.96.07.28.14.55.21.82,1.25,4.45,4.04,8.3,6.23,12.37,2.35,4.36,4,9.02,5.43,13.77,3.09,10.29,5.08,21.05,10.46,30.3l.11-.05c.26.59.53,1.16.79,1.74.31.7.64,1.41.73,2.18.04.33.03.68-.03,1.01l-.44-.09c-6.49,6.38-14.7,10.99-23.52,13.24l-.13-.48c-.37-.5-.72-1.02-1.04-1.56-1.03-1.05-2.15-2-3.34-2.83-1.58-1.14-3.28-2.08-5.07-2.84-3.37-1.42-7.01-2.13-10.28-3.79-.7-.36-1.37-.75-2.02-1.17-1.72-1.11-3.32-2.41-4.91-3.71-2.75-2.24-5.49-4.5-8.25-6.75-.85-.7-1.73-1.43-2.24-2.41-1.19-2.32.09-5.13,1.86-7.11l-.05-.04c.07-.5.16-1.01.28-1.5,0-.05,0-.11.03-.16-.99-.58-1.9-1.28-2.64-2.16-1.11-1.34-1.72-3.18-1.28-4.86.4-1.55,1.42-2.54,2.7-3.32.33-.71.65-1.42.98-2.13-.06-.03-.12-.07-.18-.1-1.29-.77-2.65-1.83-2.81-3.32-.07-.65.09-1.29.32-1.9.84-2.3,2.22-4.23,4.11-5.39,1-.63,2.15-1.04,3.44-1.16l.03-.08c-1.06-.41-2.13-.81-3.19-1.22Z"/><path class="cls-11" d="m235.99,462.06c4.27-.27,8.54-.54,12.81-.78.93-.05,1.99-.06,2.64.6.27.28.43.62.5.99.12.59.05,1.24-.03,1.84-1.26,8.53-3.71,16.86-7.25,24.72l-.26.03c-.47-1.9-3.1-3.05-5.28-3.06-5.31-.03-10.15,2.81-14.76,5.46-7.57,4.35-15.32,8.42-23.2,12.17-.26-.77-.41-1.56-.46-2.35,2.83-3,5.65-6,8.47-9.01,2.4-2.56,4.96-5.53,4.79-9.02-.03-.61-.18-1.28-.67-1.65-.36-.26-.82-.32-1.26-.35-3.93-.25-7.79,1.18-11.2,3.14-1.83,1.05-3.56,2.26-5.28,3.49l-.14-.2c.26-2.8.66-5.58,1.21-8.35.65-3.42,1.5-6.8,2.55-10.12.4-1.26.85-2.56,1.78-3.51,1.51-1.57,3.9-1.84,6.08-2.01,9.65-.74,19.3-1.42,28.97-2.03Z"/><path class="cls-12" d="m156.9,519.22l-.33-.47c11.73-7.96,11.86-27.04,24.04-34.29,2.33-1.39,4.93-2.22,7.58-2.86l-.27-1.1c2.47-.88,5.13-1.22,7.73-.98l.97.19c-.54,2.76-.94,5.55-1.21,8.35l.14.2c1.72-1.22,3.45-2.43,5.28-3.49,3.41-1.96,7.28-3.38,11.2-3.14.44.03.9.09,1.26.35.49.37.65,1.04.67,1.65.17,3.49-2.39,6.46-4.79,9.02-2.82,3.01-5.64,6.01-8.47,9.01.05.8.2,1.59.46,2.35,7.88-3.76,15.62-7.82,23.2-12.17,4.61-2.64,9.44-5.48,14.76-5.46,2.18,0,4.81,1.16,5.28,3.06.09.33.1.68.04,1.05-.08.47-.27.88-.54,1.28.05.26.09.52.13.77,1.35-.91,3.43-.22,4.25,1.2.88,1.5.6,3.44-.26,4.95-.84,1.5-2.18,2.67-3.49,3.79-2.72,2.35-5.43,4.69-8.15,7.03-.09.55-.18,1.11-.26,1.66l-.15-.03c-5.92,11.31-15.95,20.43-27.78,25.23-11.98,4.86-25.47,5.41-37.2,10.72-1.78,1.35-3.94,2.19-6.17,2.35-1.07-.6-2.07-1.33-2.98-2.16-3.57-3.26-5.7-7.88-6.59-12.63-.85-4.57-.63-9.27-.03-13.89.5-.59,1.07-1.11,1.69-1.56Z"/><path class="cls-12" d="m154.69,298.54c.09-.48.19-.95.28-1.43.33-1.66.66-3.32,1-4.98l-.11-.19c3.94-2.37,7.76-4.9,9.99-9.04,4.32-8.01,3.18-17.71,6.17-26.17.6-1.71,5.05-3.73,7.32-3.73l.02-.39c1.9-.6,3.9-.89,5.89-.84.82.03,1.67.1,2.47-.11.86-.23,1.59-.77,2.3-1.31,2.21-1.67,4.42-3.33,6.63-5l.41-.31s.08-.06.12-.09c6.99-4.76,16.38,3.75,21.18,8.45,4.53,4.43,7.21,10.9,10.96,16.24,3.4,4.85,9.05,7.4,12.59,12.01,4.01,5.23,1.31,9.55,3.45,15.19l-.26.03c-.33,2.74-.43,5.49-.31,8.25h-.14c.36,8.87-.35,13.65-3.46,21.96-.49,1.32-1.05,2.62-1.68,3.88-1.76,3.61-4.04,6.99-6.78,9.89-2.36,2.5-5.07,4.65-8.12,6.29-1.83.98-6.61,1.71-8.53.89v-.09c-.24,0-.48.02-.71.02-.29-.11-.59-.22-.88-.33-6.55-2.48-13.2-4.99-20.18-5.53-1.57-.12-3.21-.13-4.63.57-1.41.69-2.5,2.27-2.15,3.8.4,1.71,2.25,2.58,3.88,3.22,5.77,2.24,11.55,4.48,17.34,6.69-.2.81-.29,1.64-.28,2.47-1.89,1.16-3.26,3.09-4.11,5.39-.23.6-.39,1.25-.32,1.9.16,1.5,1.52,2.55,2.81,3.32.06.03.12.07.18.1-.32.71-.65,1.42-.98,2.13-1.28.77-2.3,1.77-2.7,3.32-.43,1.68.18,3.52,1.28,4.86.73.88,1.64,1.58,2.64,2.16-.03.05-.03.11-.03.16-1.93-.2-3.82-.81-5.49-1.79l-.6.79c-5.47-4.23-10.45-9.08-14.81-14.43-1.63-2.01-3.23-4.21-3.87-6.69l-.42.09c-.68-2.9-1.03-5.87-1.03-8.85l.23-.05c-.54-2.44-1.07-4.88-1.61-7.32-.1-.45-.2-.9-.3-1.35-.34-1.52-.67-3.05-1.01-4.57-.66-3.01-1.33-6.03-2.27-8.96-1.5-4.72-3.17-7.24-4.62-10.45l-.63.29c-.93-.13-1.84-.42-2.67-.84l-.04.09c-11.35-1.47-16.23-10.1-13.73-19.66l.31.06Zm72.69-5.58c1.02-.44.14-2.15-.43-2.58-.61-.46-.88-.11-.93.46-.06.94.52,2.48,1.35,2.12Zm-36.03,7.1c.96-.55-.09-2.16-.71-2.52-.65-.39-.89-.02-.87.56.04.94.78,2.41,1.57,1.96Z"/><path class="cls-13" d="m235.96,355.16c-.06.48-.09.97-.1,1.45-6.6-3.34-13.58-6.02-20.51-8.64.24,0,.48,0,.71-.02v.09c1.91.82,6.7.09,8.53-.89,3.04-1.64,5.75-3.79,8.12-6.29.18.58.37,1.14.6,1.7.14,4.32,1.03,8.61,2.65,12.61Z"/><path class="cls-2" d="m189.77,298.11c-.03-.58.21-.95.87-.56.61.36,1.67,1.96.71,2.52-.79.45-1.53-1.02-1.57-1.96Z"/><path class="cls-2" d="m226.02,290.85c.04-.57.31-.92.93-.46.57.43,1.45,2.13.43,2.58-.83.37-1.41-1.18-1.35-2.12Z"/><path class="cls-2" d="m209.13,291.65c-.12,2.33.05,4.68.49,6.97.17.86.39,1.74.97,2.39.62.69,1.55,1,2.21,1.65.84.82,1.14,2.07,1.05,3.25-.09,1.16-.52,2.29-.94,3.38"/><path class="cls-2" d="m178.08,287.26c4.85-4.85,14.55-4.57,18.3-6.66"/><path class="cls-2" d="m216.36,359.31c-1.48-.56-2.96-1.13-4.44-1.7-1.06-.41-2.13-.81-3.19-1.22-5.79-2.21-11.57-4.45-17.34-6.69-1.63-.64-3.49-1.51-3.88-3.22-.35-1.53.74-3.11,2.15-3.8,1.42-.7,3.06-.69,4.63-.57,6.98.54,13.63,3.05,20.18,5.53.29.11.59.22.88.33,6.94,2.63,13.91,5.3,20.51,8.64,3.04,1.52,6,3.19,8.86,5.05"/><path class="cls-2" d="m216.06,348.04c1.91.82,6.7.09,8.53-.89,3.04-1.64,5.75-3.79,8.12-6.29,2.75-2.9,5.02-6.27,6.78-9.89.63-1.27,1.19-2.57,1.68-3.88,3.11-8.3,3.82-13.09,3.46-21.95"/><path class="cls-2" d="m233.29,341.24c0,.44,0,.88.02,1.32.14,4.32,1.03,8.61,2.65,12.61.05.13.1.26.15.38"/><path class="cls-2" d="m239.79,331.12c1.72,2.99,1.83,6.59,2.64,9.96.07.28.14.55.21.82,1.25,4.45,4.04,8.3,6.23,12.37,2.35,4.36,4,9.02,5.43,13.77,3.09,10.29,5.08,21.05,10.46,30.3"/><path class="cls-2" d="m211.9,357.69c-1.29.13-2.44.54-3.44,1.16-1.89,1.16-3.26,3.09-4.11,5.39-.23.6-.39,1.25-.32,1.9.16,1.5,1.52,2.55,2.81,3.32.06.03.12.07.18.1,2.08,1.23,4.29,2.22,6.59,2.97"/><path class="cls-2" d="m208.17,370.63c-.75.33-1.48.67-2.13,1.06-1.28.77-2.3,1.77-2.7,3.32-.43,1.68.18,3.52,1.28,4.86.73.88,1.64,1.58,2.64,2.16.52.31,1.05.57,1.6.82.74.33,1.54.65,1.98,1.33"/><path class="cls-2" d="m207.34,383.36c-.12.12-.24.25-.35.37-1.78,1.98-3.05,4.79-1.86,7.11.51.98,1.39,1.71,2.24,2.41,2.75,2.25,5.5,4.51,8.25,6.75,1.59,1.3,3.2,2.61,4.91,3.71.65.43,1.33.82,2.02,1.17,3.26,1.66,6.91,2.37,10.28,3.79,1.79.76,3.49,1.7,5.07,2.84,1.19.83,2.31,1.79,3.34,2.83.08.06.14.14.21.2"/><path class="cls-2" d="m154.37,298.48c-2.5,9.56,2.38,18.19,13.73,19.66"/><path class="cls-2" d="m169.34,312.21c.6,2.66,1.31,4.63,2.1,6.4,1.45,3.2,3.11,5.73,4.62,10.45.94,2.93,1.61,5.95,2.27,8.96.34,1.52.67,3.05,1.01,4.57.09.45.2.9.3,1.35.54,2.44,1.07,4.88,1.61,7.32.15.71.31,1.4.47,2.11"/><path class="cls-2" d="m182.41,332.33c2.92,3.74,6.53,6.95,10.57,9.44"/><path class="cls-2" d="m197.17,244.97c6.99-4.76,16.38,3.75,21.18,8.45,4.53,4.43,7.21,10.9,10.96,16.24,3.4,4.85,9.05,7.4,12.59,12.01,4.01,5.23,1.31,9.55,3.45,15.19"/><path class="cls-2" d="m195.75,246.15c.29-.29.58-.55.88-.79.14-.11.27-.21.41-.31"/><path class="cls-2" d="m179.98,253.08c-.19-.05-.4-.08-.64-.08-2.27,0-6.72,2.02-7.32,3.73-2.99,8.46-1.85,18.17-6.17,26.17-2.23,4.13-6.05,6.66-9.99,9.04-1.87,1.12-3.77,2.21-5.53,3.41"/><path class="cls-2" d="m137.82,322.17c-1.07,1.49-2.33,2.86-3.57,4.24"/><path class="cls-2" d="m142.22,272.35c-3.63,6.86-6.79,16.82-5.41,24.06.52,2.66,1.67,5.17,2.32,7.8,1.45,5.91,2.22,13.01-1.32,17.95"/><path class="cls-2" d="m143.01,270.91c-.26.46-.53.94-.79,1.43"/><path class="cls-2" d="m138.21,333.78c.73,3.96,1.8,7.92,3.92,11.35,2.11,3.43,7.34,6.6,11.26,7.54"/><path class="cls-2" d="m141.67,266.78c.14-.1.26-.2.39-.3,4.61-3.7,5.99-10.1,7.81-15.77,2.18-6.8,3.28-13.11,8.02-18.45,4.51-5.08,12.35-9.26,19.11-11.02.35-.09.69-.18,1.03-.26"/><path class="cls-2" d="m185.03,244.88c-1.7-2.5-2.11-5.7-1.74-8.71.37-3,1.44-5.87,2.51-8.7"/><path class="cls-2" d="m186.57,217.68c1.01-.68,2.07-1.28,3.16-1.79,5.36-2.52,11.64-3.06,17.52-2.04,7.07,1.22,13.65,4.52,19.63,8.51,9.71,6.46,18.29,15.11,22.82,25.85,2.57,6.09,3.88,12.89,8.02,18.02,3.43,4.24,8.44,6.9,12.12,10.91,2.74,2.99,4.68,6.71,5.56,10.66,1.05,4.68.64,9.55,1.2,14.32.44,3.78,1.7,7.74,4.28,10.43.66.7,1.41,1.31,2.26,1.81"/><path class="cls-2" d="m179.2,344.04c-2.2-.96-4.68.46-6.59,1.92-2.22,1.69-4.32,3.52-6.35,5.43-3.45,3.25-6.69,6.74-9.91,10.22-.61.65-1.24,1.34-1.54,2.18-.3.84-.25,1.73-.08,2.62.06.36.14.71.22,1.05,1.45,6.04,3.3,11.99,5.52,17.79,2.73-1.59,2.89-5.36,3.2-8.5.33-3.3,1.22-6.61,3.19-9.28,1.96-2.67,5.11-4.59,8.42-4.49"/><path class="cls-2" d="m182.25,358.98c.05.37.12.73.21,1.09.64,2.48,2.24,4.68,3.87,6.69,4.36,5.36,9.34,10.2,14.81,14.43.7.54,1.4,1.06,2.12,1.58"/><path class="cls-2" d="m219.7,403.41c.57.88,1.14,1.76,1.71,2.64,3.09,4.82,6.06,9.72,8.14,15.04,1.48,3.79,2.48,7.74,3.49,11.68,1.2,4.68,1.95,18.31,3.06,24.74.12.71.25,1.32.37,1.83"/><path class="cls-2" d="m153.06,366.75c-7.35,5.3-15.26,9.83-23.54,13.5-12.44,5.51-24.05,12.39-27.18,26.44-9.48,42.42-9.3,86.13-13.27,129.41-.43,4.59-.84,9.23-.18,13.79,1.1,7.64,5.34,14.77,11.52,19.39,5.57,4.16,12.65,6.23,19.58,5.79.13,0,.25-.02.37-.03.64-.04,1.27-.11,1.9-.2,9.33-1.35,17.6-7.1,26.95-8.36"/><path class="cls-2" d="m107.34,525.09c4.1-4.75,9.84-4.91,16.09-5.48,6.25-.56,13.06-1.71,19.17-.29"/><path class="cls-2" d="m138.43,517.68c5.69-26.49,10.65-53.94,5.27-80.48"/><path class="cls-2" d="m147.92,517.93c2.24-1.51,4.49-3.03,6.73-4.55.63-.43,1.29-.86,2.04-.95.76-.09,1.63.27,1.84,1"/><path class="cls-2" d="m140.91,525.2c-2.15,5.43-2.41,11.6-.73,17.2,1.67,5.6,5.3,10.61,10.08,13.97"/><path class="cls-2" d="m154.24,565.18c3.75,0,7.29-1.62,10.65-3.31,6.11-3.04,12.15-6.43,17.09-11.14,1.54-1.46,3.05-3.69,2.01-5.53"/><path class="cls-2" d="m156.16,517.99c-.61.55-.77,1.43-.88,2.24-.03.18-.05.37-.07.54-.6,4.62-.82,9.32.03,13.89.89,4.75,3.02,9.37,6.59,12.63.91.82,1.91,1.56,2.98,2.16,3.15,1.79,6.89,2.54,10.4,1.73"/><path class="cls-2" d="m156.54,518.77s.02,0,.03-.02c11.73-7.96,11.86-27.04,24.04-34.29,2.33-1.39,4.93-2.22,7.58-2.86,1.17-.28,2.35-.53,3.52-.77"/><path class="cls-2" d="m178.86,497.53c4.29-1.56,8.39-3.61,12.2-6.12,1.52-1,3-2.07,4.49-3.14,1.72-1.22,3.45-2.43,5.28-3.49,3.41-1.96,7.28-3.38,11.2-3.14.44.03.9.09,1.26.35.49.37.65,1.04.67,1.65.17,3.49-2.39,6.46-4.79,9.02-2.82,3.01-5.64,6.01-8.47,9.01-2.64,2.81-5.29,5.64-7.94,8.45"/><path class="cls-2" d="m197.44,505.77c1.24-.58,2.48-1.16,3.72-1.74,7.88-3.76,15.62-7.82,23.2-12.17,4.61-2.64,9.44-5.48,14.76-5.46,2.18,0,4.81,1.16,5.28,3.06.09.33.1.68.04,1.05-.08.47-.27.88-.54,1.28-.43.63-1.05,1.16-1.64,1.65-11.29,9.35-22.66,18.76-35.5,25.82"/><path class="cls-2" d="m243.84,492.69c.06-.05.12-.09.18-.13,1.35-.91,3.43-.22,4.25,1.2.88,1.5.6,3.44-.26,4.95-.84,1.5-2.18,2.67-3.49,3.79-2.72,2.35-5.43,4.69-8.15,7.03l-.71.61c-8.18,7.04-16.37,14.1-25.35,20.09"/><path class="cls-2" d="m169.14,547.99c.6-.31,1.22-.6,1.84-.88,11.73-5.31,25.22-5.86,37.2-10.72,11.83-4.8,21.86-13.92,27.78-25.23"/><path class="cls-2" d="m195.41,488.07c.26-2.8.66-5.58,1.21-8.35.65-3.42,1.5-6.8,2.55-10.12.4-1.26.85-2.56,1.78-3.51,1.51-1.57,3.9-1.84,6.08-2.01,9.65-.74,19.3-1.42,28.97-2.03,4.27-.27,8.54-.54,12.81-.78.93-.05,1.99-.06,2.64.6.27.28.43.62.5.99.12.59.05,1.24-.03,1.84-1.26,8.53-3.71,16.86-7.25,24.72"/><path class="cls-2" d="m238.29,413.43c-.3,1.64-2.55,2.41-2.71,4.08-.06.6.19,1.19.43,1.75,3.95,9.17,7.9,18.35,11.85,27.53"/><path class="cls-2" d="m240.04,416.93c.79-.16,1.58-.34,2.36-.55,8.82-2.25,17.03-6.87,23.52-13.24"/><path class="cls-2" d="m266.3,397.13c.1-.13.22-.23.35-.32.95-.71,2.42-.6,3.47.06,1.17.73,1.93,1.97,2.64,3.16,5.05,8.52,9.19,17.62,13.72,26.42"/><path class="cls-2" d="m289.36,431.95c3.52.91,5.46,4.56,7.15,7.78,3.18,6.03,6.94,11.76,11.2,17.08,5.53,6.9,12.13,13.48,14.37,22.04"/><path class="cls-2" d="m252.2,456.4c.51,1.78,1.05,3.79,1.62,5.97,3.9,14.73,9.33,37.22,15.9,49,4.05,7.28,9.54,13.58,15.44,19.52,2.09,2.12,4.23,4.18,6.38,6.23,2.56,2.42,5.19,4.88,8.39,6.33,9.08,4.14,20.27-1.19,25.78-9.51,5.51-8.31,6.6-18.73,6.92-28.7.15-4.74.17-9.5-.35-14.22-.56-5.03-1.73-9.98-2.9-14.91-6.72-28.42-13.44-56.85-21.61-84.89-1.54-5.3-3.32-10.88-7.46-14.53-2.52-2.2-5.69-3.5-8.86-4.56-10.93-3.66-22.65-4.96-34.11-3.82"/><path class="cls-2" d="m294.37,399.65c-.94,7.85-1.09,24.11-.14,31.94"/><path class="cls-2" d="m254.51,448.37c9.96-2.51,20.21-5.15,28.48-11.25"/><path class="cls-2" d="m120.39,574.96s-.02.04-.03.07c-.23.54-.46,1.07-.67,1.62-1.94,4.92-2.98,10.19-3.07,15.48-.03,1.55-.6,13.92-1.25,17.42-.08.37-.14.65-.21.79"/><path class="cls-2" d="m284.34,530.11c-.03,1.09-.06,2.18-.09,3.27-.24,8.76-.48,17.5-.71,26.27-.14,4.76-.26,9.52-.12,14.28.2,6.53.28,24.23,1.43,32.4.09.69.2,1.31.31,1.85"/><path class="cls-2" d="m237.72,519.66c1.02,24.07-3.01,64.64-4.14,89.87-.04.92-.08,1.83-.11,2.7"/><path class="cls-2" d="m161.03,304.68c1.76.21,3.47.79,5,1.69"/><path class="cls-2" d="m213.44,329.31c2.55-.29,5.88-.9,8.32-1.71"/><path class="cls-2" d="m217.59,276.03c4.53.45,9.29-1.54,13.76-2.14"/><path class="cls-2" d="m154.16,343.48c1.33,2.11,2.7,4.28,4.75,5.7,2.05,1.42,4.97,1.89,7,.45"/><path class="cls-2" d="m277.03,319.7c.58,1.26.91,2.6,1.01,3.96.29,3.41-.81,6.95-2.91,9.66-1.29,1.67-2.96,3.03-4.91,3.85"/><path class="cls-2" d="m267.08,330.68c-1.88,3.38-4.73,6.18-8.08,8.1-3.11,1.81-6.65,2.86-10.23,2.93"/><path class="cls-2" d="m142.22,272.35h0"/><path class="cls-2" d="m197.05,245.05s.08-.06.12-.09"/><path class="cls-2" d="m137.82,322.17h0"/><g class="cls-3"><path class="cls-1" d="m916.67,975.3c-9.32,0-26.78-3.97-36.71-8.93-6.81,4.47-15.44,8.93-25.12,8.93H69.59c-26.78,0-48.57-21.79-48.57-48.57v-268.95c0-26.78,21.79-48.57,48.57-48.57h785.25c26.78,0,48.57,21.79,48.57,48.57v238.47c0,37.08,19.53,65,28.12,67.39,2.17.6,3.67,2.57,3.67,4.82s-1.5,4.22-3.67,4.82c-4.85,1.34-9.85,2.03-14.86,2.03Z"/><path class="cls-11" d="m854.84,614.21c24.06,0,43.57,19.51,43.57,43.57v238.47c0,38.35,20.39,69.05,31.79,72.2-4.31,1.19-8.84,1.85-13.53,1.85-9.92,0-29.17-4.86-36.97-9.79-7.05,4.91-15.61,9.79-24.86,9.79H69.59c-24.06,0-43.57-19.51-43.57-43.57v-268.95c0-24.06,19.51-43.57,43.57-43.57h785.25m0-10H69.59c-29.54,0-53.57,24.03-53.57,53.57v268.95c0,29.54,24.03,53.57,53.57,53.57h785.25c9.83,0,18.47-3.92,25.5-8.25,10.94,4.77,27.18,8.25,36.33,8.25,5.46,0,10.91-.74,16.2-2.21,4.33-1.2,7.33-5.14,7.33-9.64s-3-8.44-7.33-9.64c-1.89-.66-8.16-6.21-14.2-18.35-6.61-13.28-10.25-28.98-10.25-44.21v-238.47c0-29.54-24.03-53.57-53.57-53.57h0Z"/></g><g class="cls-7"><path class="cls-11" d="m927.38,651.46c-4.31,0-12.29-1.79-17.06-4.07-3.21,2.07-7.23,4.07-11.76,4.07h-285.78c-12.85,0-23.31-10.46-23.31-23.31v-85.58c0-12.85,10.46-23.31,23.31-23.31h285.78c12.85,0,23.31,10.46,23.31,23.31v71.37c0,17.6,9.48,29.89,12.62,30.76,1.3.36,2.2,1.54,2.2,2.89s-.9,2.53-2.2,2.89c-2.32.64-4.71.97-7.11.97Z"/><path class="cls-11" d="m898.56,522.26c11.22,0,20.31,9.09,20.31,20.31v71.37c0,17.88,9.5,32.18,14.82,33.65-2.01.56-4.12.86-6.31.86-4.62,0-13.6-2.26-17.23-4.56-3.29,2.29-7.28,4.56-11.59,4.56h-285.78c-11.22,0-20.31-9.09-20.31-20.31v-85.58c0-11.22,9.09-20.31,20.31-20.31h285.78m0-6h-285.78c-14.51,0-26.31,11.8-26.31,26.31v85.58c0,14.51,11.8,26.31,26.31,26.31h285.78c4.62,0,8.66-1.71,11.99-3.68,5.26,2.17,12.52,3.68,16.83,3.68,2.67,0,5.33-.36,7.91-1.08,2.6-.72,4.4-3.09,4.4-5.78,0-2.65-1.74-4.99-4.28-5.75-2.52-1.25-10.54-12.16-10.54-27.91v-71.37c0-14.51-11.8-26.31-26.31-26.31h0Z"/></g><g class="cls-8"><path class="cls-11" d="m663.46,10.65c69.98,0,122.66,10.57,156.57,31.4,28.7,17.63,43.25,42.18,43.25,72.96s-14.55,55.33-43.25,72.96c-33.91,20.84-86.59,31.4-156.57,31.4-25.55,0-49.05-1.38-69.85-4.11-.15-.02-.3-.03-.46-.03-.97,0-1.92.41-2.66,1.17-4.72,4.81-9.79,8.34-14.16,10.84-.25.15-.51.21-.76.21-1.03,0-1.93-1.12-1.67-2.43.5-2.54.91-5.22,1.22-8.03.28-2.51-1.2-4.84-3.34-5.26-38.1-7.44-66.56-20.35-84.62-38.38-15.61-15.6-23.52-35.22-23.52-58.34,0-31.02,14.2-55.57,42.21-72.97,33.53-20.83,86.56-31.39,157.62-31.39m0-7c-72.38,0-126.66,10.92-161.31,32.45-14.93,9.27-26.36,20.65-33.97,33.82-7.66,13.24-11.54,28.42-11.54,45.1,0,25.04,8.61,46.34,25.58,63.29,18.65,18.63,47.48,32.02,85.72,39.8-.25,1.93-.56,3.8-.91,5.57-.54,2.72.15,5.5,1.89,7.6,1.66,2.02,4.09,3.18,6.65,3.18,1.48,0,2.94-.39,4.24-1.14,5.41-3.1,10.3-6.76,14.56-10.9,20.7,2.62,43.93,3.95,69.09,3.95,71.29,0,125.2-10.91,160.24-32.44,15.26-9.38,26.95-20.8,34.75-33.95,7.86-13.26,11.84-28.39,11.84-44.98s-3.98-31.73-11.84-44.98c-7.79-13.15-19.48-24.57-34.75-33.95-35.03-21.53-88.94-32.44-160.24-32.44h0Z"/></g><path class="cls-11" d="m327.18,136.2l-.09-1.27c-.09-2.11.66-3.99,2.3-6.06l1.55-1.93c1.17-1.46,2.11-2.68,2.11-4.75s-1.32-3.62-3.38-3.52c-1.41.09-3.15.85-4.32,1.97-1.17,1.17-2.87,1.32-4.04,0-1.27-1.36-.99-3.05.19-4.23,2.4-2.35,5.31-3.48,8.6-3.62,6.58-.23,10.25,3.52,10.34,8.13.09,3.85-1.5,6.44-4.46,9.16-2.02,1.88-3.05,3.05-2.87,4.89l.09,1.03c.14,1.6-.99,2.63-2.96,2.68-1.97.05-3.01-.89-3.05-2.49Zm-1.18,8.74c0-2.4,1.93-4.18,4.37-4.18s4.23,1.74,4.23,4.18c0,2.3-1.93,4.28-4.23,4.28s-4.37-1.97-4.37-4.28Z"/><path class="cls-11" d="m354.29,136.2l-.09-1.27c-.09-2.11.66-3.99,2.3-6.06l1.55-1.93c1.17-1.46,2.11-2.68,2.11-4.75s-1.32-3.62-3.38-3.52c-1.41.09-3.15.85-4.32,1.97-1.17,1.17-2.87,1.32-4.04,0-1.27-1.36-.99-3.05.19-4.23,2.4-2.35,5.31-3.48,8.6-3.62,6.58-.23,10.25,3.52,10.34,8.13.09,3.85-1.5,6.44-4.46,9.16-2.02,1.88-3.05,3.05-2.87,4.89l.09,1.03c.14,1.6-.99,2.63-2.96,2.68-1.97.05-3.01-.89-3.05-2.49Zm-1.17,8.74c0-2.4,1.93-4.18,4.37-4.18s4.23,1.74,4.23,4.18c0,2.3-1.93,4.28-4.23,4.28s-4.37-1.97-4.37-4.28Z"/><path class="cls-11" d="m682.93,302.45c-1.55,5.69-3.62,13.07-5.31,18.28-.8,2.4-2.16,3.57-4.7,3.57s-3.71-1.27-4.42-3.67c-1.55-5.08-3.1-10.48-4-14.66h-.19c-.99,4.28-2.63,9.63-4.42,14.76-.85,2.35-2.02,3.57-4.42,3.57s-4.14-1.22-4.84-3.57c-1.79-6.02-3.67-12.36-5.31-18.09-.56-1.97.33-3.48,2.44-3.99,1.83-.52,3.62.33,4.09,2.4,1.41,5.87,3.34,12.97,4.18,16.21h.19c.85-3.15,2.87-10.43,4.09-15.37.56-2.3,1.83-3.43,4.09-3.43s3.52,1.13,4.14,3.48c1.27,4.93,3.38,12.03,4.18,15.42h.19c.8-3.34,2.68-10.67,3.95-16.4.42-1.97,1.88-2.77,3.85-2.3,1.93.42,2.77,1.88,2.21,3.81Z"/><path class="cls-11" d="m713.2,307.76v13.21c0,2.21-1.17,3.34-3.48,3.34s-3.52-1.13-3.52-3.34v-12.83c0-3.01-1.27-4.61-3.71-4.61s-4.14,1.64-5.08,4.23v13.21c0,2.21-1.27,3.34-3.57,3.34s-3.53-1.13-3.53-3.34v-30.59c0-2.26,1.22-3.38,3.53-3.38s3.57,1.13,3.57,3.38v11.7c1.5-2.4,3.95-3.62,7.19-3.62,5.12,0,8.6,3.52,8.6,9.31Z"/><path class="cls-11" d="m718.66,332.15c0-1.5.85-2.54,2.16-2.54.89,0,1.65.19,2.26.19,1.41,0,2.16-.42,2.91-1.69.56-.94,1.69-3.38,2.35-5.12-2.87-6.2-6.53-14.15-9.12-19.93-.89-2.02-.42-3.34,1.6-4.28,1.74-.8,3.57.05,4.42,2.07,2.26,5.36,5.17,12.6,6.34,15.56h.19c1.13-3.15,3.29-10.29,4.79-15.6.61-2.11,2.07-2.68,4.14-2.11,1.88.56,2.63,1.83,1.93,3.67-2.11,5.87-5.78,15.32-8.08,20.82-1.22,2.77-2.68,6.2-4,8.32-1.46,2.4-3.85,3.62-6.91,3.62-2.49,0-4.98-.8-4.98-2.96Z"/><path class="cls-11" d="m755.41,311.33l-.09-1.27c-.09-2.11.66-3.99,2.3-6.06l1.55-1.93c1.17-1.46,2.12-2.68,2.12-4.75s-1.32-3.62-3.38-3.52c-1.41.09-3.15.85-4.32,1.97-1.17,1.18-2.87,1.32-4.04,0-1.27-1.36-.99-3.05.19-4.23,2.4-2.35,5.31-3.48,8.6-3.62,6.58-.24,10.25,3.52,10.34,8.13.09,3.85-1.5,6.44-4.46,9.16-2.02,1.88-3.05,3.05-2.87,4.89l.09,1.03c.14,1.6-.99,2.63-2.96,2.68-1.97.05-3.01-.89-3.05-2.49Zm-1.17,8.74c0-2.4,1.93-4.18,4.37-4.18s4.23,1.74,4.23,4.18c0,2.3-1.93,4.28-4.23,4.28s-4.37-1.97-4.37-4.28Z"/><path class="cls-11" d="m581.91,111.97v13.58c0,2.21-1.22,3.43-3.52,3.43s-3.53-1.17-3.53-3.43v-13.44c0-2.82-1.27-4.42-3.38-4.37-1.97,0-3.57,1.36-4.51,3.76v14.05c0,2.21-1.22,3.43-3.53,3.43s-3.52-1.17-3.52-3.43v-13.39c0-2.82-1.22-4.37-3.38-4.37-2.16.05-3.95,1.97-4.7,4.65v13.07c0,2.26-1.27,3.48-3.57,3.48s-3.53-1.22-3.53-3.48v-18.94c0-2.21,1.27-3.38,3.43-3.38s3.34,1.08,3.34,3.2v.85c1.22-2.68,3.9-4.09,7.1-4.09s5.73,1.27,7.14,3.67c1.65-2.35,4.18-3.67,7.38-3.67,5.55,0,8.79,3.29,8.79,8.84Z"/><path class="cls-11" d="m611.81,112.44v13.11c0,2.21-.94,3.43-3.1,3.43s-3.24-1.22-3.24-3.43v-.8c-1.64,2.82-4.61,4.23-8.37,4.23-4.93,0-7.99-2.87-7.99-7.52,0-5.5,5.17-9.02,13.07-9.07,1.08,0,2.21.05,2.82.14v-.42c0-2.73-1.41-4.32-4.14-4.37-2.35-.09-4.51,1.03-6.25,2.87-1.03,1.13-2.54,1.32-3.62.38-1.08-.89-1.22-2.3-.24-3.57,1.65-2.07,5.26-4.28,10.2-4.28,4.09,0,6.81.94,8.74,2.91,1.41,1.5,2.11,3.62,2.11,6.39Zm-6.77,4.46c-.66-.14-1.79-.23-2.82-.19-4.84.23-6.58,2.26-6.53,4.32.09,1.88,1.13,2.96,3.24,3.01,2.44,0,4.89-1.74,6.11-4.14v-3.01Z"/><path class="cls-11" d="m617.26,136.83c0-1.5.85-2.54,2.16-2.54.89,0,1.65.19,2.26.19,1.41,0,2.16-.42,2.91-1.69.56-.94,1.69-3.38,2.35-5.12-2.87-6.2-6.53-14.15-9.12-19.93-.89-2.02-.42-3.34,1.6-4.28,1.74-.8,3.57.05,4.42,2.07,2.26,5.36,5.17,12.6,6.34,15.56h.19c1.13-3.15,3.29-10.29,4.79-15.6.61-2.11,2.07-2.68,4.14-2.11,1.88.56,2.63,1.83,1.93,3.67-2.11,5.87-5.78,15.32-8.08,20.82-1.22,2.77-2.68,6.2-4,8.32-1.46,2.4-3.85,3.62-6.91,3.62-2.49,0-4.98-.8-4.98-2.96Z"/><path class="cls-11" d="m672.39,115.83c0,8.41-4.32,13.16-10.62,13.16-3.62,0-5.69-1.93-6.63-3.29-.05,2.11-.94,3.29-3.43,3.29-2.02,0-3.2-1.27-3.2-3.52v-30.55c0-2.07,1.18-3.29,3.48-3.29s3.62,1.22,3.62,3.29v10.72c1.6-1.5,3.76-2.49,6.06-2.49,5.55,0,10.72,3.34,10.72,12.69Zm-6.91,0c0-5.12-2.26-7.85-5.55-7.85-2.07,0-3.67,1.27-4.7,3.1v9.59c.75,1.65,2.4,3.48,5.17,3.48,3.34,0,5.08-2.87,5.08-8.32Z"/><path class="cls-11" d="m701.15,122.45c.89.89.94,2.16.05,3.2-1.55,1.83-5.17,3.34-9.68,3.34-7.52,0-12.83-3.85-12.83-12.36s4.79-13.54,12.55-13.54,11.37,5.69,11.37,11.09c0,2.54-1.27,3.85-3.95,3.85h-12.74c.42,4.46,2.35,6.25,6.02,6.3,2.44.05,4.37-.61,5.97-1.97,1.13-.89,2.4-.85,3.24.09Zm-15.13-9.12h9.63c.28,0,.42-.14.42-.42,0-3.34-1.79-5.31-4.79-5.31s-4.75,2.21-5.26,5.73Z"/><path class="cls-11" d="m714.46,128.94c-2.4-.09-4.32-1.97-4.32-4.28s1.93-4.23,4.32-4.23,4.18,1.88,4.23,4.23c.09,2.3-1.93,4.37-4.23,4.28Z"/><path class="cls-11" d="m732.36,128.94c-2.4-.09-4.32-1.97-4.32-4.28s1.93-4.23,4.32-4.23,4.18,1.88,4.23,4.23c.09,2.3-1.93,4.37-4.23,4.28Z"/><path class="cls-11" d="m750.27,128.94c-2.4-.09-4.32-1.97-4.32-4.28s1.93-4.23,4.32-4.23,4.18,1.88,4.23,4.23c.09,2.3-1.93,4.37-4.23,4.28Z"/><path class="cls-11" d="m769.4,116.01l-.09-1.27c-.09-2.11.66-3.99,2.3-6.06l1.55-1.93c1.17-1.46,2.12-2.68,2.12-4.75s-1.32-3.62-3.38-3.52c-1.41.09-3.15.85-4.32,1.97-1.17,1.18-2.87,1.32-4.04,0-1.27-1.36-.99-3.05.19-4.23,2.4-2.35,5.31-3.48,8.6-3.62,6.58-.24,10.25,3.52,10.34,8.13.09,3.85-1.5,6.44-4.46,9.16-2.02,1.88-3.05,3.05-2.87,4.89l.09,1.03c.14,1.6-.99,2.63-2.96,2.68-1.97.05-3.01-.89-3.05-2.49Zm-1.17,8.74c0-2.4,1.93-4.18,4.37-4.18s4.23,1.74,4.23,4.18c0,2.3-1.93,4.28-4.23,4.28s-4.37-1.97-4.37-4.28Z"/><path class="cls-10" d="m132.04,719.33c1.97,1.56,3.08,3.91,3.37,6.99h-3.33c-.37-2.14-1.19-3.7-2.47-4.73-1.32-1.07-3.17-1.56-5.55-1.56-2.18,0-3.86.33-5.1,1.07-1.4.82-2.1,2.06-2.1,3.74,0,1.48.82,2.67,2.51,3.58.74.41,2.55,1.03,5.39,1.85,3.86,1.15,6.41,2.1,7.65,2.84,2.43,1.48,3.66,3.54,3.66,6.21s-1.03,4.6-3.08,6.09c-2.06,1.44-4.81,2.18-8.31,2.18s-6.17-.74-8.14-2.22c-2.3-1.77-3.58-4.44-3.82-8.06h3.33c.29,2.55,1.19,4.44,2.67,5.63,1.36,1.07,3.33,1.64,5.96,1.64,2.38,0,4.36-.45,5.84-1.36s2.22-2.14,2.22-3.7c0-1.85-.99-3.29-2.92-4.32-.82-.49-2.92-1.19-6.21-2.14-3.54-1.07-5.8-1.89-6.74-2.38-2.26-1.32-3.37-3.21-3.37-5.67s1.07-4.56,3.25-5.96c1.93-1.32,4.44-1.97,7.48-1.97,3.29,0,5.92.74,7.81,2.26Z"/><path class="cls-10" d="m157.04,728.46c1.81,2.1,2.71,4.73,2.71,7.94s-.9,5.8-2.67,7.85c-1.93,2.22-4.48,3.33-7.65,3.33s-5.72-1.11-7.61-3.33c-1.81-2.06-2.71-4.69-2.71-7.85s.9-5.84,2.71-7.94c1.89-2.22,4.4-3.29,7.61-3.29s5.71,1.07,7.61,3.29Zm-12.87,2.06c-1.15,1.56-1.69,3.49-1.69,5.88s.53,4.28,1.69,5.84c1.23,1.73,3,2.59,5.26,2.59s3.99-.86,5.3-2.59c1.11-1.56,1.69-3.54,1.69-5.84s-.58-4.32-1.69-5.88c-1.32-1.73-3.08-2.59-5.3-2.59s-4.03.86-5.26,2.59Z"/><path class="cls-10" d="m167.31,725.75v12.99c0,2.01.41,3.54,1.27,4.52.86.99,2.26,1.52,4.19,1.52,1.4,0,2.67-.58,3.78-1.64,1.15-1.15,1.85-2.63,2.1-4.44v-12.95h3.29v21.26h-3.29v-3.29c-1.73,2.55-4.03,3.87-6.91,3.87-5.18,0-7.73-2.92-7.73-8.68v-13.16h3.29Z"/><path class="cls-10" d="m190.96,717.07v29.93h-3.25v-29.93h3.25Z"/><path class="cls-10" d="m212.66,729.2c.82-1.4,1.81-2.43,2.96-3.04,1.03-.66,2.26-.99,3.74-.99,2.22,0,3.99.7,5.39,2.1,1.32,1.44,2.01,3.37,2.01,5.8v13.94h-3.29v-13.4c0-1.89-.41-3.29-1.19-4.19-.82-.99-2.14-1.44-3.95-1.44-1.4,0-2.59.49-3.49,1.56-.99,1.07-1.44,2.43-1.44,4.15v13.32h-3.29v-13.4c0-3.78-1.65-5.63-4.89-5.63-1.52,0-2.75.58-3.74,1.81-.99,1.15-1.48,2.59-1.48,4.28v12.95h-3.29v-21.26h3.29v2.84c1.6-2.3,3.62-3.41,6-3.41,3.25,0,5.47,1.32,6.66,4.03Z"/><path class="cls-10" d="m247.86,727.56c1.23,1.4,1.89,3.33,1.89,5.8v13.65h-3.08v-3.58c-.82,1.15-1.93,2.1-3.25,2.84-1.56.86-3.33,1.32-5.3,1.32-2.14,0-3.82-.53-5.1-1.6-1.32-1.11-1.97-2.55-1.97-4.28,0-2.43.95-4.23,2.92-5.47,1.73-1.15,4.19-1.77,7.4-1.81l5.1-.08v-1.11c0-3.58-1.85-5.35-5.55-5.35-1.56,0-2.84.29-3.82.95-1.11.66-1.81,1.69-2.14,3.04l-3.25-.25c.45-2.22,1.56-3.91,3.29-4.97,1.56-.99,3.58-1.48,6.13-1.48,3.04,0,5.26.78,6.74,2.38Zm-6.29,9.33c-4.77.08-7.15,1.64-7.15,4.73,0,.99.37,1.77,1.19,2.43.82.62,1.89.95,3.21.95,2.01,0,3.78-.66,5.34-1.97,1.52-1.27,2.3-2.75,2.3-4.4v-1.81l-4.89.08Z"/><path class="cls-10" d="m260.52,725.75h5.26v2.75h-5.26v13.53c0,.78.12,1.36.45,1.69.29.33.82.53,1.56.53h2.71v2.75h-3.21c-1.73,0-3-.45-3.74-1.36-.7-.82-1.03-2.01-1.03-3.62v-13.53h-4.28v-2.75h4.28v-5.51l3.25-1.36v6.87Z"/><path class="cls-10" d="m285.93,728.62c1.56,2.06,2.38,4.97,2.47,8.68h-16.77c.16,2.38.78,4.23,1.93,5.55,1.15,1.32,2.75,1.97,4.77,1.97,1.73,0,3.17-.45,4.23-1.32.9-.74,1.6-1.85,2.14-3.33h3.29c-.49,2.06-1.44,3.7-2.88,5.02-1.77,1.56-4.03,2.38-6.78,2.38-3.04,0-5.51-1.03-7.32-3-1.89-2.06-2.8-4.77-2.8-8.22,0-3.12.86-5.76,2.67-7.85,1.81-2.22,4.24-3.33,7.32-3.33,3.41,0,6,1.15,7.73,3.45Zm-12.21,1.15c-1.15,1.23-1.81,2.88-2.01,4.98h13.28c-.41-4.56-2.67-6.83-6.7-6.83-1.89,0-3.41.62-4.56,1.85Z"/><path class="cls-10" d="m349.2,715.88v2.88h-5.43v27.96c0,2.71-1.32,4.11-3.95,4.11h-6.87l-.66-2.88c2.26.08,4.44.16,6.5.16,1.32,0,2.01-.74,2.01-2.14v-27.22h-28.29v-2.88h36.68Zm-15.91,24.26h-13.12v3.62h-2.88v-18.71h15.99v15.09Zm-2.84-2.71v-9.7h-10.28v9.7h10.28Z"/><path class="cls-10" d="m368.8,737.63c-1.44-.33-2.88-.58-4.28-.82-.99-.16-2.01-.33-3-.41v1.89c-.08,5.3-1.19,9.62-3.37,12.91l-2.26-2.06c1.81-2.8,2.71-6.33,2.8-10.61v-10.48h15.13v20.06c0,1.89-1.07,2.84-3.21,2.84h-3.74l-.74-2.75c1.32.08,2.51.16,3.62.16.82,0,1.23-.41,1.23-1.23v-4.69c-2.75.58-5.67,1.11-8.72,1.52l-.66-2.55c3.25-.33,6.37-.78,9.37-1.4v-9.37h-9.46v3.49c1.77.16,3.21.37,4.28.58.99.16,2.3.37,3.95.7l-.95,2.22Zm7.73-12.5l-2.34,1.64c-.45-.9-.95-1.77-1.48-2.67-4.36.66-9.54,1.19-15.62,1.52l-.82-2.47c.53-.16.99-.45,1.36-.78,2.55-2.63,4.65-5.63,6.29-8.96l2.84.86c-1.89,3.7-3.95,6.58-6.25,8.72,3.37-.21,7.03-.58,10.9-1.07-.82-1.32-1.73-2.67-2.71-3.99l2.3-1.44c2.43,3.29,4.28,6.17,5.55,8.63Zm4.81,25.37c-2.39,0-3.58-1.15-3.58-3.37v-14.02h2.92v4.36l11.14-.74v2.75l-11.14.74v6.29c0,.86.49,1.32,1.48,1.32h5.72c.82,0,1.4-.21,1.73-.58.45-.58.74-2.1.9-4.6l2.67.82c-.25,3.33-.78,5.35-1.56,6.09-.66.62-1.73.95-3.21.95h-7.07Zm-.62-36.63v5.06l10.9-.74v2.71l-10.9.74v5.55c0,.99.49,1.52,1.52,1.52h10.11v2.71h-10.9c-2.47,0-3.66-1.19-3.66-3.54v-14.02h2.92Z"/><path class="cls-10" d="m435.23,751.03h-2.96v-1.85h-27.3v1.85h-2.96v-35.73h33.22v35.73Zm-2.96-4.65v-28.29h-27.3v28.29h27.3Zm-15.05-20.39c.21-1.85.33-3.82.33-5.96h2.88c0,2.14-.12,4.11-.33,5.96h9.91v2.8h-10.28c-.16.9-.37,1.81-.62,2.63,4.36,3.49,8.06,6.99,11.02,10.48l-2.14,2.14c-2.43-3.21-5.67-6.54-9.7-10.07-1.69,4.11-4.93,7.48-9.79,10.16l-1.85-2.26c4.6-2.51,7.69-5.67,9.17-9.54.37-1.11.7-2.3.95-3.54h-9.54v-2.8h9.99Z"/><path class="cls-10" d="m460.54,730.48h-11.6v20.56h-2.96v-36.18h14.56v15.62Zm-2.96-12.99h-8.63v3.99h8.63v-3.99Zm-8.63,10.36h8.63v-3.87h-8.63v3.87Zm21.42,5.96v12.21h-15.79v-12.21h15.79Zm-2.88,2.63h-10.03v6.95h10.03v-6.95Zm-3.29-5.96v-15.62h14.76v32.61c0,2.26-1.15,3.41-3.41,3.41-1.44,0-2.88-.04-4.28-.08l-.74-2.84c1.4.08,2.67.16,3.91.16,1.07,0,1.6-.53,1.6-1.6v-16.04h-11.84Zm11.84-12.95h-8.88v3.95h8.88v-3.95Zm-8.88,10.28h8.88v-3.82h-8.88v3.82Z"/><path class="cls-10" d="m525.08,747.5l-.49,2.96h-8.55c-9.58,0-15.58-.53-17.97-1.6-2.14-.9-3.99-2.55-5.63-4.93-.66,2.55-1.69,4.93-3,7.07l-2.06-1.85c2.14-3.7,3.33-7.81,3.54-12.42l2.55.33c-.08,1.32-.2,2.59-.37,3.82,1.03,1.69,2.18,3,3.45,3.99v-10.32h-7.98v-2.63h16.94v2.63h-6.33v4.56h5.55v2.67h-5.55v4.6c.16.04.29.08.45.16,2.3.74,7.57,1.11,15.75,1.11,4.36,0,7.57-.08,9.7-.16Zm-21.01-32.48v14.18h-13.49v-14.18h13.49Zm-2.8,5.92v-3.45h-7.89v3.45h7.89Zm0,2.3h-7.89v3.54h7.89v-3.54Zm12.58,18.17c-1.81,1.81-4.03,3.37-6.66,4.77l-1.52-2.06c2.47-1.27,4.56-2.75,6.29-4.4l1.89,1.69Zm-1.07-20.68c.33-.99.58-2.06.74-3.12h-7.15v-2.55h18.09v2.55h-8.1c-.16,1.07-.41,2.1-.74,3.12h7.24v18.79h-15.09v-18.79h5.02Zm7.4,5.63v-3.25h-9.7v3.25h9.7Zm0,5.26v-3h-9.7v3h9.7Zm0,2.26h-9.7v3.29h9.7v-3.29Zm4.15,10.28l-1.85,1.89c-1.48-1.56-3.49-3.17-6.13-4.85l1.73-1.64c2.47,1.56,4.56,3.08,6.25,4.6Z"/><path class="cls-10" d="m532.42,739.52l-.86-2.96c4.81-4.81,7.98-9.46,9.54-13.98h-9.05v-2.71h5.35c-.66-1.93-1.44-3.82-2.34-5.67l2.88-.78c.95,2.14,1.69,4.07,2.22,5.8l-1.69.66h5.43v2.43c-.9,3-2.34,5.96-4.32,8.88v.21c.58.41,1.15.86,1.69,1.27,1.19-.95,2.3-2.3,3.37-4.11l1.81,1.77c-1.03,1.6-2.18,2.88-3.45,3.82,1.07.99,2.1,2.01,3.08,3.08l-1.56,2.38c-1.65-2.14-3.29-3.99-4.93-5.51v17.15h-2.88v-16.28c-1.32,1.52-2.71,3.04-4.28,4.56Zm17.43-17.6h16.2v12.7h-10.07c-.41.9-.9,1.73-1.44,2.51h12.13v2.22c-1.32,2.47-3.41,4.6-6.29,6.41,2.67,1.07,5.67,1.97,8.96,2.67l-1.69,2.43c-3.86-.9-7.24-2.06-10.2-3.54-3.08,1.48-6.83,2.67-11.18,3.62l-1.44-2.55c3.78-.66,7.07-1.52,9.87-2.59-1.81-1.11-3.41-2.34-4.81-3.66-1.07.82-2.18,1.6-3.41,2.34l-1.4-2.3c1.07-.58,2.1-1.23,3.04-1.89-.74-.86-1.44-1.73-2.01-2.63l1.97-1.15c.58.78,1.19,1.52,1.85,2.26,1.32-1.23,2.43-2.63,3.25-4.15h-4.23v-11.43c-.9,1.15-1.85,2.18-2.88,3.17l-1.64-2.18c3.25-3.04,5.47-6.78,6.62-11.22l2.67.37c-.33,1.15-.66,2.22-1.03,3.25h15.25v2.47h-16.36c-.53,1.03-1.11,1.97-1.73,2.88Zm13.53,5.3v-3h-11.72v3h11.72Zm0,2.18h-11.72v2.92h11.72v-2.92Zm-5.76,15.09c2.67-1.4,4.69-3.08,6.04-4.98h-10.98c-.33.33-.62.7-.95,1.03,1.69,1.48,3.66,2.8,5.88,3.95Z"/><path class="cls-10" d="m582.11,740.71c-1.27,3.21-2.75,6.04-4.48,8.43l-2.22-1.6c1.77-2.22,3.29-4.85,4.52-7.89l2.18,1.07Zm-4.36-7.81l-1.89-1.77c2.06-2.71,3.58-6.13,4.56-10.2l2.38.62c-.33,1.27-.66,2.47-1.03,3.58,1.32,1.32,2.43,2.63,3.37,3.99l-1.81,1.85c-.66-1.15-1.48-2.3-2.43-3.49-.9,2.14-1.97,3.95-3.17,5.43Zm6.46,2.18v-2.38h2.71v2.38h7.69v2.67h-7.69v13.08h-2.71v-13.08h-7.73v-2.67h7.73Zm2.96-17.97h6.95v2.71h-17.23v-2.71h7.4c-.49-1.23-.99-2.38-1.52-3.37l3-.49c.49,1.15.95,2.43,1.4,3.87Zm4.15,4.36c-.29,1.4-.62,2.71-.95,3.91,1.15,1.07,2.14,2.18,3,3.25,2.26-4.56,3.86-9.5,4.81-14.84l2.71.49c-.45,2.14-.99,4.19-1.6,6.17h6.04c-.74-2.14-1.6-4.19-2.67-6.21l2.84-.78c1.07,2.3,1.85,4.44,2.43,6.37l-1.69.62h6.09v2.71h-4.77v5.8h4.07v2.63h-4.07v5.63h4.15v2.63h-4.15v6.25h5.47v2.67h-13.53v2.22h-2.71v-24.05c-.9,1.97-1.93,3.87-3.04,5.67l-.78-2.51-.86.86c-.7-1.07-1.56-2.14-2.55-3.21-.7,1.81-1.48,3.37-2.39,4.65l-1.89-1.77c1.69-2.59,2.92-5.84,3.7-9.79l2.34.62Zm3.99,25.2l-2.14,1.69c-1.48-2.88-2.92-5.35-4.4-7.4l1.93-1.44c1.65,2.18,3.21,4.56,4.6,7.15Zm4.19-23.52v5.8h5.3v-5.8h-5.3Zm0,14.06h5.3v-5.63h-5.3v5.63Zm0,8.88h5.3v-6.25h-5.3v6.25Z"/><path class="cls-10" d="m625.97,724.72v-6c-1.77.25-3.62.49-5.51.7l-.58-2.8c5.18-.45,9.75-1.32,13.73-2.59l1.03,2.8c-1.81.49-3.78.99-5.88,1.4v6.5h5.35v2.75h-5.35v2.26c1.93,1.89,3.91,4.03,5.88,6.33l-1.65,2.47c-1.64-2.55-3.08-4.6-4.23-6.13v18.54h-2.8v-18.46c-1.4,3.95-3.29,7.57-5.59,10.81l-1.32-3.29c3.08-3.66,5.26-7.85,6.58-12.54h-5.67v-2.75h6Zm17.89,13.81v-5.06c-2.67.25-5.47.45-8.35.66l-.53-2.63c7.32-.37,13.81-1.07,19.49-2.1l.9,2.51c-2.67.49-5.55.9-8.63,1.23v5.39h8.55v2.67h-8.55v5.72h10.03v2.67h-22.94v-2.67h10.03v-5.72h-8.39v-2.67h8.39Zm10.11-23.6v11.88h-17.06v-11.88h17.06Zm-2.88,2.63h-11.31v6.58h11.31v-6.58Z"/><path class="cls-10" d="m669.78,730.02c-.16,8.72-1.64,15.71-4.44,20.97l-2.22-1.97c2.39-4.56,3.62-10.9,3.7-19v-13.4h15.83c-.49-1.07-.99-2.01-1.56-2.92l3.12-.49c.49,1.03.99,2.18,1.44,3.41h14.1v2.8h-29.97v4.69h6.91v-3.33h2.88v3.33h10.9v-3.37h2.88v3.37h6.33v2.71h-6.33v6.41h-16.65v-6.41h-6.91v3.21Zm26.48,6v2.18c-2.3,2.8-5.1,5.22-8.43,7.2,3.7,1.56,7.98,2.67,12.87,3.33l-1.27,2.55c-5.67-.95-10.48-2.38-14.39-4.36-4.15,1.97-8.96,3.45-14.39,4.36l-1.27-2.59c4.77-.7,9.05-1.81,12.75-3.37-3.04-1.89-5.55-4.15-7.44-6.74h-2.51v-2.55h24.09Zm-11.39,7.98c2.88-1.52,5.39-3.33,7.52-5.43h-14.6c1.89,2.14,4.24,3.95,7.07,5.43Zm-5.3-13.28h10.9v-3.91h-10.9v3.91Z"/><path class="cls-10" d="m724.63,731.26c1.36,1.4,2.55,2.84,3.54,4.23l-2.06,1.73c-.99-1.4-2.18-2.84-3.5-4.23-1.52-1.6-3.04-2.96-4.56-4.11l1.85-1.73c1.56,1.07,3.12,2.47,4.73,4.11Z"/><path class="cls-10" d="m762.7,716.99v-3.49h3.04v3.49h14.84v2.71h-14.84v3.91h12.46v2.71h-12.46v3.99h15.87v2.67h-18.83c-1.44,2.06-3.29,3.91-5.51,5.63v8.84c3.08-.95,6.13-2.06,9.17-3.37l.58,2.75c-4.11,1.73-8.26,3.12-12.54,4.19l-.99-2.55c.58-.25.86-.62.86-1.11v-6.78c-2.22,1.32-4.69,2.55-7.44,3.7l-1.6-2.59c6.58-2.3,11.35-5.18,14.39-8.72h-12.87v-2.67h15.87v-3.99h-12.46v-2.71h12.46v-3.91h-14.84v-2.71h14.84Zm17.23,20.11c-2.18,2.22-4.65,3.91-7.36,5.06,2.71,2.8,6.21,4.93,10.4,6.33l-1.77,2.55c-7.36-2.67-12.58-7.61-15.67-14.84l2.26-1.27c.82,1.97,1.85,3.78,3.08,5.35,2.47-1.07,4.81-2.8,7.03-5.18l2.01,2.01Z"/><path class="cls-10" d="m799.32,723.69v2.34c-1.48,2.43-3.12,4.77-5.02,7.07h5.43v1.97c-.58,3.29-1.32,6-2.18,8.18.33.21.7.49,1.07.82,1.32,1.19,2.63,2.1,3.99,2.71,1.4.49,3.29.78,5.67.86,2.3,0,4.89.04,7.81.04s6.41-.08,10.85-.25l-.66,2.84h-9.83c-3.12,0-5.92-.04-8.35-.12-2.88-.08-5.1-.41-6.58-1.03-1.73-.66-3.33-1.73-4.73-3.12-.33-.29-.7-.41-1.03-.41-.99,0-2.43,1.81-4.28,5.43l-2.18-1.93c1.93-3.7,3.78-5.76,5.51-6.25.86-2.14,1.56-4.56,2.1-7.24h-6.13v-2.26c2.06-2.34,3.82-4.65,5.22-6.95h-6.17v-2.71h9.46Zm-.25-3.99l-1.93,1.93c-1.52-1.85-3.62-3.82-6.29-5.96l1.93-1.85c2.47,1.97,4.56,3.91,6.29,5.88Zm15.99-6.29v2.92h9.09v2.59h-9.09v3.17h11.35v2.59h-5.1c-.45,1.32-1.03,2.63-1.73,3.91h4.81v2.55h-9.33v3h8.1v2.47h-8.1v3.12h10.73v2.63h-10.73v3.99h-2.8v-3.99h-10.48v-2.63h10.48v-3.12h-8.18v-2.47h8.18v-3h-9.33v-2.55h4.85c-.58-1.44-1.23-2.75-1.89-3.91h-4.89v-2.59h11.26v-3.17h-8.76v-2.59h8.76v-2.92h2.8Zm3.5,11.27h-9.79c.62,1.23,1.19,2.51,1.73,3.91h6.37c.74-1.23,1.27-2.55,1.69-3.91Z"/><path class="cls-10" d="m131.79,772.21c-.82-1.81-1.81-3.58-3-5.22l2.8-1.03c1.15,1.73,2.22,3.82,3.21,6.25h15.38v2.84h-21.67l-.37,7.32v.08h17.06c-.08,8.14-.41,13.36-.95,15.67-.82,3.49-2.84,5.3-6.09,5.43-1.32,0-2.92-.08-4.73-.16l-.9-2.67c2.14.08,3.91.12,5.35.12,2.1-.08,3.37-1.56,3.86-4.44.25-1.73.37-5.47.45-11.14h-14.39c-.53,3.33-1.56,6.33-3.04,9.05-2.01,3.54-4.81,6.74-8.43,9.66l-2.14-2.06c4.36-3.7,7.28-7.11,8.72-10.28,1.4-3.17,2.18-6.7,2.38-10.61.12-2.59.21-4.56.25-5.96h-11.47v-2.84h17.72Z"/><path class="cls-10" d="m174.55,783.19v2.8h-7.24v10.69c3.04-.58,5.96-1.27,8.84-2.01v2.88c-5.92,1.44-12.33,2.63-19.16,3.62l-.7-2.8c2.71-.33,5.43-.74,8.06-1.15v-11.22h-7.24v-2.8h17.43Zm2.05-9.7c-.12-2.34-.16-4.77-.16-7.28h3.04c0,2.55.04,4.97.16,7.28h12.7v2.88h-12.54c.49,6.91,1.56,12.62,3.17,17.23,1.73,4.52,3.29,6.83,4.65,6.83.82-.12,1.69-2.47,2.55-7.07l2.67,1.4c-1.23,5.92-2.92,8.92-5.02,8.96-3.66-.16-6.7-4.77-9.17-13.73-.95-3.91-1.56-8.43-1.89-13.61h-20.27v-2.88h20.11Zm12.95-1.64l-2.47,1.23c-1.19-2.06-2.47-3.87-3.86-5.47l2.47-1.19c1.36,1.64,2.63,3.45,3.86,5.43Z"/><path class="cls-10" d="m217.02,783.97c1.36,1.4,2.55,2.84,3.54,4.23l-2.06,1.73c-.99-1.4-2.18-2.84-3.5-4.23-1.52-1.6-3.04-2.96-4.56-4.11l1.85-1.73c1.56,1.07,3.12,2.47,4.73,4.11Z"/><path class="cls-10" d="m247.4,766.53c2.55,3.25,4.97,6.66,7.32,10.28l-1.81,1.93c-2.43-3.86-4.52-6.99-6.33-9.29-2.1,3.87-4.48,7.44-7.2,10.69l-1.69-2.34c2.67-3.21,5.14-6.95,7.36-11.27h2.34Zm6,17.89v2.43c-1.56,3.66-3.33,6.95-5.39,9.87,1.52,1.4,2.88,2.8,4.07,4.19l-2.06,2.06c-2.39-2.92-5.63-6.04-9.79-9.33l1.97-1.89c1.36,1.07,2.63,2.1,3.78,3.12,1.48-2.22,2.96-4.81,4.36-7.77h-11.1v-2.67h14.14Zm-2.3-7.07v2.63h-9.33v-2.63h9.33Zm12.29,20.23c-2.22,2.47-4.93,4.6-8.18,6.41l-1.73-2.34c3.13-1.64,5.8-3.58,7.94-5.8l1.97,1.73Zm11.31-29.77v2.71h-8.63c-.16,1.23-.37,2.43-.62,3.58h8.02v21.63h-17.52v-21.63h6.54c.25-1.19.45-2.38.58-3.58h-8.68v-2.71h20.31Zm-4.11,12.66v-3.78h-11.8v3.78h11.8Zm0,6.21v-3.74h-11.8v3.74h11.8Zm0,2.47h-11.8v3.91h11.8v-3.91Zm5.06,12.62l-2.01,2.01c-1.73-1.93-4.11-3.99-7.15-6.21l1.81-1.73c2.92,1.97,5.39,3.95,7.36,5.92Z"/><path class="cls-10" d="m284.77,777.06v-10.85h2.92v10.85h3.91v2.88h-3.91v12.42c1.32-.58,2.63-1.23,3.86-1.89v2.96c-3.25,1.73-6.74,3.17-10.44,4.32l-.74-3c1.48-.37,2.96-.78,4.4-1.27v-13.53h-4.03v-2.88h4.03Zm19.32,18.34c-4.03,1.56-8.39,2.88-13.07,3.95l-.7-2.84c4.77-.82,9.37-2.1,13.77-3.78v2.67Zm2.1-23.68c-.04-1.81-.04-3.66-.04-5.55h2.88c0,1.93,0,3.78.04,5.55h4.19c-.58-1.56-1.15-2.96-1.81-4.23l2.67-.45c.53,1.36,1.07,2.92,1.6,4.69h2.01v2.8h-8.63c.12,6.33.41,11.51.86,15.5,1.6-3.45,2.88-7.44,3.78-12.05l2.55,1.07c-1.36,6.17-3.25,11.35-5.67,15.46.82,3.91,1.73,5.92,2.8,6.09.82-.08,1.6-2.18,2.43-6.21l2.22,1.81c-1.32,4.93-2.84,7.4-4.65,7.4-1.36,0-2.55-1.07-3.62-3.21-.41-.86-.82-1.85-1.15-2.92-2.01,2.63-4.32,4.73-6.87,6.29l-1.81-2.34c3.04-1.77,5.67-4.28,7.81-7.52-.25-1.15-.41-2.34-.58-3.66-.53-4.11-.86-9.37-.99-15.71h-14.6v-2.8h14.56Zm-2.47,6.87v11.59h-10.44v-11.59h10.44Zm-2.63,2.47h-5.22v6.7h5.22v-6.7Z"/><path class="cls-10" d="m339.98,773.24v-2.34h-16.24v-2.38h16.24v-2.51h2.96v2.51h16.24v2.38h-16.24v2.34h12.62v11.72h-1.27c2.01,2.1,3.58,3.95,4.65,5.51l-1.97,1.36c-.53-.82-1.15-1.6-1.81-2.43-1.4.04-2.75.12-4.07.21v3.49h8.63v2.43h-8.63v5.02c0,2.1-1.15,3.17-3.45,3.17h-4.44l-.58-2.67c1.4.12,2.75.21,4.07.21.99,0,1.48-.49,1.48-1.4v-4.32h-15.58c2.55,1.64,4.73,3.29,6.5,4.93l-2.01,2.06c-1.56-1.73-3.74-3.54-6.5-5.47l1.6-1.52h-8.96v-2.43h24.96v-3.37c-7.16.29-14.72.53-22.61.78l-.58-2.34c5.1-.12,10.11-.25,15.01-.41v-2.8h-12.62v-11.72h12.62Zm0,4.77v-2.63h-9.79v2.63h9.79Zm0,2.1h-9.79v2.63h9.79v-2.63Zm2.96-2.1h9.79v-2.63h-9.79v2.63Zm9.79,2.1h-9.79v2.63h9.79v-2.63Zm-.82,5.63l1.23-.78h-10.2v2.67l10.32-.41c-.45-.53-.9-1.03-1.36-1.48Z"/><path class="cls-10" d="m381.62,766.12v6.25h4.32v-6.25h2.88v6.25h3.5c1.23-1.77,2.26-3.62,3.08-5.59l2.71,1.03c-.95,1.77-1.89,3.29-2.84,4.56h6.54v2.59h-35.85v-2.59h6.33c-.7-1.6-1.56-3.12-2.55-4.52l2.75-1.03c.95,1.56,1.81,3.41,2.63,5.55h3.62v-6.25h2.88Zm-4.89,13.36c-.62-1.19-1.32-2.3-2.14-3.33l2.75-1.03c.9,1.23,1.73,2.67,2.47,4.36h7.89c.99-1.32,1.89-2.75,2.63-4.28l2.84.99c-.7,1.23-1.44,2.3-2.22,3.29h9.05v2.59h-14.6v3.04h12.58v2.47h-12.58v3.08h16.37v2.63h-16.37v10.65h-3v-10.65h-16.41v-2.63h16.41v-3.08h-12.62v-2.47h12.62v-3.04h-14.64v-2.59h8.96Zm1.23,16.98c-2.55,2.55-5.67,4.81-9.42,6.78l-1.85-2.38c3.66-1.73,6.74-3.78,9.29-6.17l1.97,1.77Zm22.94,4.69l-2.14,2.1c-2.1-2.06-4.97-4.28-8.68-6.62l1.93-1.85c3.54,2.14,6.5,4.23,8.88,6.37Z"/><path class="cls-10" d="m411.14,774.22c-.08,4.11-.58,8.06-1.4,11.76l-2.43-.7c.86-3.54,1.36-7.28,1.48-11.22l2.34.16Zm5.1-7.98v37.42h-3v-37.42h3Zm5.26,13.9c1.4-3.58,2.22-7.4,2.43-11.47l2.67.37c-.08,1.73-.25,3.37-.49,4.93h5.88v-7.69h3.04v7.69h8.96v2.84h-8.96v9.95h8.35v2.92h-8.35v10.03h10.03v2.88h-24.83v-2.88h11.76v-10.03h-9.42v-2.92h9.42v-9.95h-6.41c-.74,3-1.85,5.8-3.29,8.35l-2.18-1.97c.45-.9.86-1.77,1.23-2.59l-2.06.53c-.62-2.51-1.4-4.93-2.34-7.24l2.18-.7c.9,2.01,1.69,4.32,2.38,6.95Z"/><path class="cls-10" d="m453.02,776.85l-2.51-1.6c2.43-2.84,4.19-5.96,5.26-9.37l2.84.62c-.33.9-.66,1.81-.99,2.63h10.53v2.51h-6.91c1.07,1.4,1.89,2.71,2.55,3.95l-2.67.99c-.86-1.73-1.85-3.37-3-4.93h-1.65c-.99,1.89-2.14,3.62-3.45,5.22Zm14.23,7.98v-4.03h-14.56v-2.63h14.56v-2.71h2.96v2.71h14.6v2.63h-14.6v4.03h12.83v2.59h-3.99v3.95h7.69v2.59h-7.69v6.37c0,2.3-1.27,3.49-3.74,3.49h-5.88l-.62-2.8c1.93.12,3.78.21,5.51.21,1.15,0,1.77-.53,1.77-1.6v-5.67h-25.37v-2.59h25.37v-3.95h-21.5v-2.59h12.66Zm-2.38,15.99l-2.3,1.6c-1.23-1.77-2.96-3.7-5.1-5.84l2.38-1.48c2.18,2.18,3.86,4.07,5.02,5.72Zm5.96-25.57l-2.43-1.52c1.81-2.38,3.08-5.02,3.91-7.89l2.8.58c-.25.9-.53,1.77-.86,2.59h11.72v2.51h-7.24c1.07,1.44,1.93,2.8,2.55,4.03l-2.59.99c-.86-1.73-1.89-3.41-3.08-5.02h-2.47c-.7,1.36-1.48,2.59-2.3,3.74Z"/><path class="cls-10" d="m527.77,803.74h-2.96v-1.85h-27.3v1.85h-2.96v-35.73h33.22v35.73Zm-2.96-4.65v-28.29h-27.3v28.29h27.3Zm-15.05-20.39c.21-1.85.33-3.82.33-5.96h2.88c0,2.14-.12,4.11-.33,5.96h9.91v2.8h-10.28c-.16.9-.37,1.81-.62,2.63,4.36,3.49,8.06,6.99,11.02,10.48l-2.14,2.14c-2.43-3.21-5.67-6.54-9.7-10.07-1.69,4.11-4.93,7.48-9.79,10.16l-1.85-2.26c4.6-2.51,7.69-5.67,9.17-9.54.37-1.11.7-2.3.95-3.54h-9.54v-2.8h9.99Z"/><path class="cls-10" d="m548.6,797.49c-3.21,2.3-7.2,4.19-11.96,5.72l-1.19-2.47c4.65-1.32,8.47-3,11.47-5.14l1.69,1.89Zm3.58-28.58v-2.88h2.96v2.88h14.35v2.43h-14.35v2.8h12.62v2.34h-12.62v2.8h16.16v2.51h-18.63c-2.43,1.89-4.85,3.41-7.32,4.56,3.66-.12,7.32-.25,10.94-.41,1.73-.95,3.45-1.93,5.14-2.96l2.3,1.48c-5.96,3.45-11.96,6.09-17.97,7.98,4.93-.16,10.94-.53,18.01-1.11-.95-.99-1.93-1.97-3-2.96l2.01-1.27c3.17,2.92,5.59,5.47,7.24,7.65l-2.1,1.44c-.74-.99-1.52-1.93-2.34-2.88-3.91.29-7.36.53-10.32.7v6.58c0,2.18-1.11,3.29-3.25,3.29h-3.91l-.58-2.63c1.23.08,2.38.16,3.54.16.86,0,1.32-.49,1.32-1.48v-5.76c-4.24.21-7.52.33-9.83.33l-3.45.12-.58-2.47,1.6.16c4.11-1.07,8.18-2.55,12.21-4.4-3.45.12-7.11.25-10.98.41l-.53-2.18c.58-.08,1.15-.21,1.69-.45,1.89-.66,4.15-1.97,6.7-3.91h-13.32v-2.51h16.28v-2.8h-12.79v-2.34h12.79v-2.8h-14.51v-2.43h14.51Zm19.49,32.15l-1.48,2.26c-3.82-2.43-7.73-4.36-11.76-5.76l1.44-2.1c4.28,1.56,8.22,3.41,11.8,5.59Z"/><path class="cls-10" d="m614.34,768.8v2.84h-16.82c-.49,2.1-1.15,4.11-2.01,6h16.49v21.63c0,2.84-1.23,4.28-3.66,4.28h-3.78l-.82-3,3.58.12c1.15,0,1.73-.7,1.73-2.06v-18.13h-6.91v21.87h-2.88v-21.87h-6.58v21.87h-2.88v-21.87h-6.25v23.11h-3v-25.94h11.47c.9-1.89,1.56-3.91,2.01-6h-16.36v-2.84h36.68Z"/><path class="cls-10" d="m625.64,796.26c-1.15,2.63-2.47,4.98-4.03,6.95l-2.1-1.52c1.48-1.81,2.8-3.99,3.91-6.54l2.22,1.11Zm14.1-28.74v11.1h-8.02l.58,2.55h9.46v2.34h-21.96v-2.34h9.74l-.62-2.55h-6.87v-11.1h17.68Zm-.29,18.34v7.94h-7.11v6.74c0,1.93-1.03,2.92-3,2.92h-2.96l-.58-2.59c.9.08,1.81.16,2.63.16.7,0,1.07-.37,1.07-1.11v-6.13h-7.07v-7.94h17.02Zm-2.43-13.65v-2.63h-12.29v2.63h12.29Zm0,1.89h-12.29v2.51h12.29v-2.51Zm-.29,13.86h-11.59v3.74h11.59v-3.74Zm3.74,12.95l-2.1,1.48c-.86-1.77-2.01-3.74-3.5-5.88l2.06-1.27c1.52,2.14,2.71,4.03,3.54,5.67Zm16.94-11.43c-3.45,6.62-8.51,11.39-15.25,14.27l-1.19-2.67c6.25-2.71,10.98-7.15,14.14-13.32l2.3,1.73Zm-2.1-20.89c-3.25,3.21-7.32,5.92-12.17,8.06l-1.23-2.55c4.69-1.89,8.55-4.44,11.6-7.57l1.81,2.06Zm1.03,10.81c-3.29,3.78-7.4,6.91-12.34,9.37l-1.23-2.55c4.77-2.22,8.68-5.18,11.76-8.88l1.81,2.06Z"/><path class="cls-10" d="m674.52,772.95c-.33,2.63-1.32,4.69-2.96,6.25-1.48,1.44-4.11,2.55-7.85,3.37l-.86-2.06c3.21-.66,5.51-1.56,6.91-2.71.33-.29.62-.58.86-.9-2.14.33-4.28.58-6.33.74l-.45-1.69c1.52-1.07,2.92-2.18,4.23-3.33-1.48.12-2.96.21-4.44.29l-.33-1.73c1.89-1.52,3.37-3.21,4.44-5.02l2.1.66c-1.28,1.89-2.55,3.37-3.78,4.44,1.27-.08,2.51-.21,3.74-.29.9-.9,1.73-1.85,2.51-2.8l2.14.78c-2.43,2.8-4.81,5.02-7.11,6.7,1.48-.16,2.92-.37,4.4-.66.29-.7.49-1.48.62-2.3l2.18.25Zm4.98,10.07c-.33-.74-.7-1.36-1.07-1.93l2.88-.45c.37.74.7,1.52,1.03,2.38h13.61v2.26h-6.21c-.33.95-.74,1.85-1.23,2.75h10.4v2.3h-35.94v-2.3h10.11c-.49-.99-.95-1.93-1.44-2.75h-5.72v-2.26h13.57Zm13.73,20.93h-2.8v-1.48h-18.91v1.48h-2.8v-11.8h24.51v11.8Zm-2.8-7.61v-2.26h-18.91v2.26h18.91Zm0,4.07v-2.18h-18.91v2.18h18.91Zm-2.8-20.06l-1.97.86c-.33-.7-.62-1.32-.95-1.89-2.8.58-5.96,1.07-9.5,1.52l-.62-1.81c.74-.21,1.15-.53,1.15-.99v-10.16h4.19c-.33-.66-.66-1.23-1.03-1.73l2.43-.41c.37.66.7,1.36,1.03,2.14h4.28v7.52h-8.68v3.25c2.18-.33,4.11-.66,5.8-.99-.37-.58-.7-1.07-1.03-1.48l1.93-.62c1.15,1.48,2.14,3.04,2.96,4.77Zm-11.72,7.69h9.79c.54-.95.95-1.85,1.23-2.75h-12.34c.45.86.9,1.77,1.32,2.75Zm8.51-18.54h-6.46v1.44h6.46v-1.44Zm-6.46,4.36h6.46v-1.52h-6.46v1.52Zm19.94-6.78v1.64c-.74,1.4-1.56,2.88-2.47,4.44,1.64,1.6,2.55,3.08,2.67,4.4,0,.99-.33,1.69-.9,2.14-.82.49-2.26.78-4.32.82l-.7-2.18c.45.04.82.08,1.15.08.9,0,1.48-.08,1.81-.25.29-.12.45-.33.45-.62,0-1.23-.9-2.55-2.67-4.03,1.03-1.64,1.85-3.17,2.43-4.48h-4.4v12.79h-2.34v-14.76h9.29Z"/><path class="cls-10" d="m739.76,803.17h-2.88v-1.77h-27.22v1.77h-2.88v-34.58h32.98v34.58Zm-2.88-4.4v-27.55h-27.22v27.55h27.22Zm-5.63-21.17v14.64h-15.87v-14.64h15.87Zm-2.8,2.55h-10.32v9.58h10.32v-9.58Z"/><path class="cls-10" d="m758.59,786.89c-.9,1.48-2.01,2.92-3.33,4.23v12.83h-2.71v-10.44c-1.23.95-2.63,1.85-4.11,2.71l-.78-2.59c3.95-2.26,6.78-4.85,8.59-7.81l2.34,1.07Zm-.45-7.15c-1.93,2.96-5.06,5.59-9.37,7.89l-.78-2.51c3.62-1.89,6.25-4.03,7.89-6.46l2.26,1.07Zm3.7,12.79v-8.02c-.74.66-1.48,1.27-2.3,1.85l-1.48-1.93c2.63-1.77,4.44-3.86,5.47-6.25h-12.95v-6.66h9.25v-2.1h-11.55v-2.26h34.95v2.26h-11.59v2.1h9.25v6.66h-14.72c-.25.7-.53,1.36-.86,1.97h17.15v1.97h-18.38c-.53.66-1.07,1.27-1.64,1.85h18.09v8.55h-10.36c-.41.66-.95,1.23-1.52,1.81h12.01v1.69c-1.56,1.81-3.58,3.29-6.04,4.44,2.88.62,6.17.95,9.83.99l-.95,2.18c-4.93-.08-9.09-.66-12.46-1.81-3.41,1.07-7.44,1.73-12.09,1.97l-1.03-2.26c3.66-.16,6.91-.53,9.7-1.11-1.56-.78-2.88-1.69-3.99-2.71-1.19.58-2.47,1.11-3.82,1.64l-1.19-1.93c1.27-.45,2.43-.9,3.49-1.32-.49-.58-.95-1.19-1.32-1.77l1.93-.58c.37.49.78.99,1.23,1.44,1.6-.9,2.8-1.77,3.58-2.67h-5.67Zm-2.01-19.08h-6.5v2.84h6.5v-2.84Zm9.09-4.03h-6.37v2.1h6.37v-2.1Zm0,4.03h-6.37v2.84h6.37v-2.84Zm8.96,14.02v-1.81h-13.44v1.81h13.44Zm0,1.48h-13.44v1.85h13.44v-1.85Zm-.66,7.28h-11.02c-.25.16-.49.29-.66.41,1.56,1.15,3.37,2.1,5.51,2.84,2.51-.82,4.56-1.93,6.17-3.25Zm.95-22.78h-6.54v2.84h6.54v-2.84Z"/><path class="cls-10" d="m806.48,776.81h-10.85v26.68h-3v-29.52h14.19c0-.37.04-.7.04-1.03v-3.33h-5.1v-2.8h8.06v6.13c0,.33,0,.7.04,1.03h14.02v25.41c0,2.55-1.27,3.87-3.74,3.87h-6.54l-.74-2.8,6.33.12c1.11,0,1.69-.62,1.69-1.81v-21.96h-10.69c1.03,5.63,4.32,10.77,9.83,15.42l-2.01,2.63c-5.1-4.77-8.35-9.83-9.66-15.09-1.4,5.35-4.69,10.53-9.87,15.5l-1.97-2.63c5.63-4.85,8.96-10.16,9.99-15.83Z"/><path class="cls-10" d="m133.15,831.79c3.33,4.15,9.09,7.77,17.23,10.9l-1.6,2.43c-1.64-.66-3.17-1.32-4.56-1.97v13.44h-2.84v-1.73h-18.38v1.73h-2.88v-13.61c-1.69.82-3.37,1.52-5.1,2.18l-1.56-2.43c7.52-2.8,13.32-6.41,17.43-10.94h2.26Zm-4.15-3.29c-3.49,3.04-7.77,5.72-12.87,8.02l-1.77-2.3c5.02-2.14,9.21-4.6,12.66-7.48l1.97,1.77Zm4.85-6.21h14.92v7.32h-2.88v-4.56h-27.88v4.77h-2.88v-7.52h15.62c-.49-1.15-.99-2.18-1.48-3.12l3.17-.53c.49,1.07.95,2.3,1.4,3.66Zm9.91,20.64c-5.02-2.47-8.96-5.35-11.76-8.55-3.29,3.45-7.24,6.29-11.8,8.55h23.56Zm-2.39,9.21v-6.58h-18.38v6.58h18.38Zm7.89-17.72l-2.05,2.01c-3-2.47-7.11-5.06-12.34-7.81l1.89-1.85c4.93,2.55,9.13,5.1,12.5,7.65Z"/><path class="cls-10" d="m158.88,823.36v-2.8h24.96v1.56c-.74,3.82-1.64,7.07-2.71,9.74h7.98v2.59c-1.4,5.43-4.11,9.99-8.1,13.77,3.12,2.18,6.87,4.11,11.22,5.76l-2.01,2.63c-4.56-1.85-8.43-3.99-11.55-6.37-3.41,2.63-7.56,4.77-12.46,6.46l-1.48-2.71c4.52-1.52,8.39-3.45,11.51-5.8-4.19-3.91-6.91-8.43-8.14-13.57h-.66c-1.11,9.58-4.28,16.86-9.46,21.79l-2.26-1.97c6-5.59,9.09-14.56,9.17-26.89v-4.19h-6Zm19.37,8.51c.9-2.43,1.73-5.26,2.38-8.51h-12.79v4.19c-.04,1.48-.08,2.92-.16,4.32h10.57Zm7.73,2.75h-15.25c1.23,4.44,3.82,8.35,7.77,11.68,3.54-3.25,6.04-7.15,7.48-11.68Z"/><path class="cls-10" d="m200.94,823.89v-2.92h32.48v2.92h-13.94v11.96h11.84v2.84h-11.84v13.16h15.67v2.88h-36.63v-2.88h6.46v-19.74h2.88v19.74h8.63v-27.96h-15.54Z"/><path class="cls-10" d="m254.13,821.1v2.88h-5.55c-.53,3.29-1.32,6.37-2.3,9.25h7.16v21.54h-2.63v-2.22h-4.32v2.63h-2.59v-16.45c-.7,1.32-1.44,2.59-2.26,3.82l-1.56-2.47c2.88-4.69,4.77-10.07,5.67-16.12h-4.32v-2.88h12.71Zm-3.33,28.74v-13.9h-4.32v13.9h4.32Zm26.52-19.37h-2.71v-4.89h-8.67c-.82,2.63-1.77,5.02-2.8,7.24h4.65c-.45-1.4-.95-2.8-1.52-4.15l2.59-.7c.66,1.77,1.19,3.37,1.6,4.85h6.29v2.59h-6.46v3.82h5.76v2.55h-5.76v3.95h5.84v2.55h-5.84v4.23h7.52v2.63h-16.82v1.48h-2.8v-15.79c-.9,1.15-1.81,2.18-2.8,3.17l-1.73-2.1c4.15-4.36,7.28-9.79,9.33-16.32h-4.85v5.67h-2.71v-8.26h8.35c.37-1.44.7-2.88.99-4.32l2.75.53c-.29,1.32-.58,2.59-.86,3.78h10.65v7.48Zm-9.83,4.93h-5.67c-.29.49-.58.95-.82,1.4v2.43h6.5v-3.82Zm0,6.37h-6.5v3.95h6.5v-3.95Zm0,10.73v-4.23h-6.5v4.23h6.5Z"/><path class="cls-10" d="m286.48,826.93c-.08,4.11-.58,8.06-1.4,11.76l-2.43-.7c.86-3.54,1.36-7.28,1.48-11.22l2.34.16Zm5.1-7.98v37.42h-3v-37.42h3Zm5.26,13.9c1.4-3.58,2.22-7.4,2.43-11.47l2.67.37c-.08,1.73-.25,3.37-.49,4.93h5.88v-7.69h3.04v7.69h8.96v2.84h-8.96v9.95h8.35v2.92h-8.35v10.03h10.03v2.88h-24.83v-2.88h11.76v-10.03h-9.42v-2.92h9.42v-9.95h-6.41c-.74,3-1.85,5.8-3.29,8.35l-2.18-1.97c.45-.9.86-1.77,1.23-2.59l-2.06.53c-.62-2.51-1.4-4.93-2.34-7.24l2.18-.7c.9,2.01,1.69,4.32,2.38,6.95Z"/><path class="cls-10" d="m344.95,835.94c.54.74.82,1.69.82,2.88,0,1.81-.53,3.41-1.6,4.81-1.07,1.32-2.51,2.22-4.24,2.67v-2.01c1.07-.37,1.93-.99,2.63-1.81.58-.86.86-1.77.86-2.75-.16.08-.49.16-.9.16-.7,0-1.27-.25-1.77-.74s-.7-1.11-.7-1.81c0-.78.25-1.4.74-1.85.45-.49,1.11-.7,1.93-.7.9,0,1.64.37,2.22,1.15Z"/><path class="cls-10" d="m365.59,838.98l-.99-3.12c4.28-5.02,7.36-10.77,9.25-17.27l2.8,1.27c-1.03,3.21-2.3,6.25-3.82,9.09v27.67h-2.96v-22.94c-1.32,1.85-2.71,3.62-4.28,5.3Zm22.57-15.95v-4.19h3v4.19h11.31v2.84h-11.31v3.91h9.62v11.64h-9.79c-.33,3.7-1.03,6.54-2.14,8.59,4.11,2.26,8.88,3.54,14.27,3.82l-.74,2.84c-5.76-.37-10.81-1.81-15.17-4.36-2.22,2.26-5.72,3.74-10.48,4.44l-1.27-2.71c4.19-.45,7.28-1.6,9.17-3.41-2.43-1.73-4.6-3.82-6.5-6.25l2.26-1.56c1.77,2.22,3.74,4.07,5.92,5.63.86-1.81,1.44-4.15,1.69-7.03h-9.21v-11.64h9.37v-3.91h-10.77v-2.84h10.77Zm0,14.72v-5.34h-6.58v6.33h6.54c0-.33.04-.66.04-.99Zm9.83-5.34h-6.82v5.34c0,.33-.04.66-.04.99h6.87v-6.33Z"/><path class="cls-10" d="m409.74,856.17l-2.26-2.01c2.63-3.66,3.99-8.31,4.07-13.94v-19.74h30.63v30.8c0,2.88-1.44,4.32-4.32,4.32h-4.73l-.78-2.92c1.64.08,3.17.16,4.56.16,1.48,0,2.26-.86,2.26-2.59v-7.15h-11.18v12.05h-3.04v-12.05h-10.61c-.45,5.26-1.97,9.62-4.6,13.07Zm4.77-32.81v7.07h10.44v-7.07h-10.44Zm0,17.02h10.44v-7.2h-10.44v7.2Zm24.67-17.02h-11.18v7.07h11.18v-7.07Zm0,9.83h-11.18v7.2h11.18v-7.2Z"/><path class="cls-10" d="m463.06,852.22h-2.8v-2.75h-5.84v3.74h-2.88v-31.29h11.51v30.3Zm-2.8-18.09v-9.5h-5.84v9.5h5.84Zm0,12.58v-9.91h-5.84v9.91h5.84Zm17.31-27.71v4.28h9.79v2.67h-9.79v4.77h8.22v2.71h-19.41v-2.71h8.31v-4.77h-9.91v-2.67h9.91v-4.28h2.88Zm1.81,19.57v-3.21h2.88v3.21h5.1v2.75h-5.1v11.02c0,2.59-1.23,3.91-3.7,3.91h-5.02l-.62-2.8c1.65.12,3.17.21,4.65.21,1.19,0,1.81-.7,1.81-2.06v-10.28h-13.77v-2.75h13.77Zm-5.47,10.81l-2.3,1.64c-1.32-1.97-3.08-4.19-5.3-6.62l2.3-1.4c2.3,2.43,4.07,4.56,5.3,6.37Z"/><path class="cls-10" d="m498.57,824.26c-.66-1.64-1.36-3.25-2.18-4.77l2.84-.78c.82,1.81,1.48,3.49,1.93,4.98l-1.52.58h6.29v2.71h-13.36v-2.71h6Zm6.21,29.6h-8.18v2.06h-2.71v-13.86h10.9v11.8Zm-.29-23.64v2.55h-10.36v-2.55h10.36Zm0,5.72v2.55h-10.36v-2.55h10.36Zm-2.43,15.38v-6.78h-5.47v6.78h5.47Zm6.17,5.26l-2.14-1.97c2.22-2.43,3.33-5.51,3.41-9.25v-8.47h17.52v16.36c0,2.06-1.19,3.08-3.54,3.08h-4.77l-.7-2.55c1.69.04,3.21.08,4.6.08,1.03,0,1.56-.53,1.56-1.6v-2.43h-12.46c-.66,2.63-1.81,4.85-3.5,6.74Zm11.43-37.79v2.67h9.29v2.47h-9.29v2.75h7.94v2.38h-7.94v2.88h10.4v2.51h-23.89v-2.51h10.53v-2.88h-7.98v-2.38h7.98v-2.75h-9.41v-2.47h9.41v-2.67h2.96Zm-7.36,26.4c0,.82-.08,1.6-.16,2.34h12.05v-2.92h-11.88v.58Zm11.88-5.88h-11.88v3h11.88v-3Z"/><path class="cls-10" d="m544.16,835.24l-2.1,2.1c-1.64-1.89-3.91-3.95-6.78-6.17l2.1-2.01c2.71,2.01,4.98,4.03,6.78,6.09Zm1.03,6.33c-1.85,5.18-3.91,10.07-6.17,14.64l-2.96-1.27c2.47-4.69,4.65-9.5,6.5-14.43l2.63,1.07Zm.37-16.04l-2.1,2.1c-1.73-1.93-4.15-3.99-7.2-6.13l2.14-2.06c2.84,2.06,5.22,4.07,7.15,6.08Zm12.66.25c-.82-2.22-1.73-4.32-2.8-6.37l2.8-.78c1.15,2.38,2.06,4.52,2.67,6.5l-1.69.66h12.25v2.92h-10.61v9.87h9.5v2.84h-9.5v10.81h11.39v2.92h-26.11v-2.92h11.72v-10.81h-9.54v-2.84h9.54v-9.87h-10.69v-2.92h11.06Z"/><path class="cls-10" d="m584.08,846.83c-.99,3.29-2.3,6.13-4.03,8.51l-2.55-1.6c1.69-2.26,2.92-4.77,3.7-7.48l2.88.58Zm-3.99-22.94v-2.55h14.1c-.37-.9-.78-1.69-1.19-2.38l3.17-.49c.41.86.86,1.81,1.28,2.88h14.47v2.55h-6.7l-1.6,3.25h10.24v2.59h-35.69v-2.59h9.87l-1.32-3.25h-6.62Zm29.07,8.26v12.17h-26.31v-12.17h26.31Zm-2.88,4.98v-2.63h-20.56v2.63h20.56Zm0,2.18h-20.56v2.71h20.56v-2.71Zm-14.68,16.57c-2.8,0-4.15-1.27-4.15-3.82v-5.43h3.04v4.81c0,1.15.66,1.77,1.97,1.77h8.63c.9,0,1.52-.16,1.85-.49.49-.41.82-1.69.99-3.74l2.8.9c-.29,2.84-.86,4.56-1.69,5.22-.74.49-1.85.78-3.41.78h-10.03Zm8.92-28.74l1.6-3.25h-12.33l1.32,3.25h9.42Zm-.08,22.61l-2.47,1.73c-.99-1.48-2.3-3.08-4.03-4.81l2.51-1.56c1.73,1.73,3.08,3.29,3.99,4.65Zm14.27,3.33l-2.47,1.73c-1.32-2.26-3.04-4.73-5.26-7.44l2.38-1.48c2.3,2.75,4.11,5.14,5.35,7.2Z"/><path class="cls-10" d="m627.69,822.45v-3.78h3v3.78h15.46v-3.78h3v3.78h6.95v2.8h-6.95v18.83h7.73v2.75h-36.88v-2.75h7.69v-18.83h-6.95v-2.8h6.95Zm7.24,27.26c-3.37,2.55-7.52,4.77-12.46,6.7l-1.85-2.38c4.85-1.81,8.92-3.86,12.21-6.21l2.1,1.89Zm11.22-19.98v-4.48h-15.46v4.48h15.46Zm0,7.11v-4.56h-15.46v4.56h15.46Zm0,7.24v-4.69h-15.46v4.69h15.46Zm10.11,9.83l-1.65,2.51c-4.03-2.63-8.18-4.73-12.42-6.25l1.48-2.22c4.6,1.64,8.8,3.62,12.58,5.96Z"/><path class="cls-10" d="m676.37,820.48v2.34c-1.23,3.7-2.71,7.57-4.44,11.59,2.63,3.62,4.07,6.91,4.24,9.87,0,1.77-.45,3.04-1.27,3.82-1.15.99-3.21,1.48-6.17,1.48l-.99-3c.66.08,1.19.16,1.6.16,1.52-.08,2.55-.29,3.08-.62.49-.37.78-.99.78-1.85,0-2.8-1.44-5.96-4.32-9.42,1.93-4.28,3.45-8.14,4.52-11.59h-6.78v33.3h-2.88v-36.1h12.62Zm4.85,31.7c2.47-.74,4.93-1.64,7.36-2.8l.7,2.75c-2.96,1.27-6.66,2.51-11.14,3.7l-.74-2.59c.58-.16.9-.49.9-.95v-31.78h17.93v17.6h-15.01v14.06Zm12.13-28.86h-12.13v4.73h12.13v-4.73Zm-12.13,12.09h12.13v-4.69h-12.13v4.69Zm17.6,6.41c-1.89,2.22-3.99,3.95-6.29,5.14,2.06,2.8,4.52,5.02,7.44,6.66l-1.73,2.51c-5.35-3.12-9.21-8.02-11.64-14.68l2.26-1.27c.66,1.69,1.4,3.25,2.26,4.69,2.01-1.11,3.95-2.75,5.76-4.98l1.93,1.93Z"/><path class="cls-10" d="m706.54,830.88l-2.38-1.73c2.06-2.22,3.37-5.26,3.95-9.17l2.8.45c-.21,1.32-.45,2.51-.78,3.62h4.77v-5.1h2.96v5.1h7.69v2.75h-7.69v5.3h8.88v2.75h-8.88v4.32h8.02v10.85c0,2.43-1.23,3.66-3.7,3.66h-2.18l-.74-2.8,2.01.12c1.15,0,1.77-.53,1.77-1.6v-7.48h-5.18v14.64h-2.96v-14.64h-5.22v12.05h-2.88v-14.8h8.1v-4.32h-9.95v-2.75h9.95v-5.3h-5.76c-.74,1.64-1.6,3-2.59,4.07Zm25.49-8.22v25.41h-2.88v-25.41h2.88Zm-1.4,33.51l-.66-2.84c1.97.12,3.86.21,5.67.21,1.23,0,1.89-.66,1.89-1.97v-32.61h2.92v33.35c0,2.55-1.27,3.86-3.78,3.86h-6.04Z"/><path class="cls-10" d="m755.25,830.14v-5.92c-2.06.33-4.15.58-6.29.74l-.95-2.63c6.13-.49,11.22-1.52,15.34-3.08l1.4,2.47c-2.14.78-4.32,1.44-6.62,1.93v6.5h7.03v2.75h-7.03v2.06c2.39,2.1,4.77,4.48,7.2,7.2l-1.73,2.55c-2.14-2.92-3.95-5.26-5.47-6.99v18.54h-2.88v-18.26c-1.77,3.91-4.11,7.44-7.03,10.61l-1.23-3.21c3.82-3.62,6.58-7.69,8.26-12.21v-.29h-7.2v-2.75h7.2Zm27.3,24.75h-2.88v-3.25h-9.99v3.66h-2.84v-33.67h15.71v33.26Zm-2.88-6.04v-24.46h-9.99v24.46h9.99Z"/><path class="cls-10" d="m799.36,829.11v2.34c-1.48,2.43-3.17,4.77-5.06,7.07h5.43v1.97c-.62,3.29-1.36,6.04-2.26,8.26.33.21.66.49,1.03.86,1.27,1.27,2.59,2.22,3.99,2.88,1.32.53,3.17.82,5.55.9,2.26,0,4.85.04,7.73.04s6.58-.08,11.18-.21l-.66,2.8h-10.16c-3.13,0-5.88-.04-8.26-.12-2.84-.08-4.97-.45-6.46-1.07-1.73-.74-3.29-1.89-4.69-3.37-.33-.33-.7-.45-1.03-.45-.99,0-2.39,1.81-4.19,5.43l-2.18-1.93c1.89-3.7,3.74-5.76,5.47-6.25.9-2.14,1.6-4.56,2.14-7.24h-6.13v-2.26c2.1-2.34,3.86-4.65,5.3-6.95h-6.25v-2.71h9.5Zm-.25-3.99l-1.93,1.93c-1.52-1.85-3.62-3.82-6.25-5.96l1.93-1.85c2.47,1.97,4.56,3.91,6.25,5.88Zm16.45-3.21h10.73v2.55h-25.04v-2.55h11.31c-.41-.99-.86-1.89-1.32-2.71l2.96-.49c.45.95.9,2.01,1.36,3.21Zm-10.28,9.83v19.28h-2.59v-21.83h5.59c-.66-1.27-1.44-2.47-2.34-3.58l2.63-.95c.9,1.23,1.73,2.75,2.51,4.52h5.59c1.07-1.44,1.97-2.96,2.75-4.52l2.51.86c-.74,1.36-1.56,2.59-2.39,3.66h5.55v18.79c0,2.14-1.11,3.25-3.25,3.25h-4.44l-.7-2.55,4.32.12c.9,0,1.4-.49,1.4-1.4v-15.67h-7.32v3.04h5.26v2.38h-5.26v3h4.4v8.39h-11.35v-8.39h4.48v-3h-5.43v-2.38h5.43v-3.04h-7.36Zm12.01,10.53h-6.91v4.15h6.91v-4.15Z"/><path class="cls-10" d="m115.39,908.88l-2.26-2.01c2.63-3.66,3.99-8.31,4.07-13.94v-19.74h30.63v30.8c0,2.88-1.44,4.32-4.32,4.32h-4.73l-.78-2.92c1.64.08,3.17.16,4.56.16,1.48,0,2.26-.86,2.26-2.59v-7.15h-11.18v12.05h-3.04v-12.05h-10.61c-.45,5.26-1.97,9.62-4.6,13.07Zm4.77-32.81v7.07h10.44v-7.07h-10.44Zm0,17.02h10.44v-7.2h-10.44v7.2Zm24.67-17.02h-11.18v7.07h11.18v-7.07Zm0,9.83h-11.18v7.2h11.18v-7.2Z"/><path class="cls-10" d="m156.95,881.25l-2.47-1.52c2.51-2.47,4.32-5.22,5.47-8.26l2.88.62c-.33.86-.7,1.69-1.07,2.47h10.44v2.51h-5.76c.78,1.27,1.4,2.43,1.85,3.49l-2.26.82v2.01h7.77v2.47h-7.77v2.3h6.7v11.92h-6.7v2.3h8.14v2.55h-8.14v4.23h-2.8v-4.23h-8.14v-2.55h8.14v-2.3h-6.7v-11.92h6.7v-2.3h-7.81v-2.47h7.81v-2.3h2.38c-.66-1.4-1.36-2.75-2.1-4.03h-3.21c-.99,1.52-2.14,2.92-3.37,4.19Zm6.5,11.84v-2.71h-4.4v2.71h4.4Zm0,2.06h-4.4v2.71h4.4v-2.71Zm2.39-2.06h4.4v-2.71h-4.4v2.71Zm4.4,2.06h-4.4v2.71h4.4v-2.71Zm4.69-13.81l-2.47-1.52c2.18-2.51,3.74-5.26,4.69-8.31l2.88.62c-.33.82-.62,1.64-.95,2.43h11.8v2.51h-6.74c.82,1.32,1.52,2.55,2.1,3.7l-2.55.9c-.7-1.56-1.52-3.12-2.51-4.6h-3.29c-.9,1.56-1.89,2.96-2.96,4.28Zm3.41,4.52v18.09c0,1.27.62,1.93,1.89,1.93h5.51c1.28,0,2.1-.37,2.43-1.07.33-.82.53-2.43.7-4.81l2.8.9c-.29,3.58-.78,5.8-1.48,6.62-.66.66-1.85,1.03-3.66,1.03h-7.36c-2.38,0-3.58-1.23-3.58-3.66v-21.5h13.49v10.57c0,2.47-1.11,3.74-3.29,3.82-1.23,0-2.43-.04-3.58-.12l-.66-2.55c1.15.12,2.26.21,3.25.21s1.56-.74,1.56-2.18v-7.28h-8.02Z"/><path class="cls-10" d="m230.63,909.37h-2.8v-1.44h-27.3v1.44h-2.8v-36.26h32.89v36.26Zm-2.8-3.95v-29.85h-27.3v29.85h27.3Zm-16.9-26.85c.16-.74.29-1.44.37-2.14l2.71.37c-.08.62-.21,1.19-.29,1.77h8.68v4.44h3.45v2.06h-23.15v-2.06h7.11c.25-.82.49-1.64.66-2.38h-5.34v-2.06h5.8Zm12.29,8.31v6h-6.62v1.93h7.98v2.14h-7.98v2.67h8.63v2.18h-8.63v2.75h-2.75v-2.75h-9.5l.95-4.85h-1.85v-2.14h10.4v-1.93h-8.63v-6h18.01Zm-15.3,10.07l-.58,2.67h6.5v-2.67h-5.92Zm12.79-8.18h-12.99v2.26h12.99v-2.26Zm-1.11-5.76v-2.38h-6.29c-.21.82-.41,1.64-.66,2.38h6.95Z"/><path class="cls-10" d="m257.48,888.65c.54.74.82,1.69.82,2.88,0,1.81-.53,3.41-1.6,4.81-1.07,1.32-2.51,2.22-4.24,2.67v-2.01c1.07-.37,1.93-.99,2.63-1.81.58-.86.86-1.77.86-2.75-.16.08-.49.16-.9.16-.7,0-1.27-.25-1.77-.74-.49-.49-.7-1.11-.7-1.81,0-.78.25-1.4.74-1.85.45-.49,1.11-.7,1.93-.7.9,0,1.64.37,2.22,1.15Z"/><path class="cls-10" d="m298.68,871.38v9.74l12.46-2.8c-.16,5.92-1.03,12.17-2.51,18.83l-2.88-.86c1.11-4.36,1.93-9.13,2.43-14.31l-9.5,2.1v15.21h-2.92v-14.55l-8.8,1.93v15.58c0,1.89.95,2.84,2.84,2.84h17.93c1.64,0,2.8-.33,3.54-.9.7-.62,1.15-2.75,1.4-6.37l2.71.9c-.33,4.32-.95,6.95-1.89,7.89-.99.86-2.71,1.32-5.26,1.32h-19.16c-3.37,0-5.02-1.77-5.02-5.26v-15.34l-6.46,1.4v-2.88l6.46-1.44v-9.79h2.92v9.13l8.8-1.97v-10.4h2.92Z"/><path class="cls-10" d="m355.91,874.01v2.88h-5.43v27.96c0,2.71-1.32,4.11-3.95,4.11h-6.87l-.66-2.88c2.26.08,4.44.16,6.5.16,1.32,0,2.01-.74,2.01-2.14v-27.22h-28.29v-2.88h36.68Zm-15.91,24.26h-13.12v3.62h-2.88v-18.71h15.99v15.09Zm-2.84-2.71v-9.7h-10.28v9.7h10.28Z"/><path class="cls-10" d="m377.12,878.86h-15.09v-2.84h15.09v-4.36h3.04v4.36h15.13v2.84h-15.13v11.43c4.36,6.09,10.11,10.85,17.27,14.27l-1.6,2.75c-6.09-3.08-11.31-7.32-15.67-12.66v14.47h-3.04v-14.35c-3.95,5.1-9.13,9.29-15.54,12.66l-1.52-2.63c7.36-3.7,13.03-8.47,17.06-14.31v-11.64Zm-13.9,15.38l-1.85-2.26c3.54-2.88,5.96-6.74,7.2-11.64l2.75.49c-.58,2.14-1.27,4.07-2.14,5.84,1.97,1.11,3.78,2.38,5.43,3.82l-1.56,2.47c-1.73-1.64-3.45-2.96-5.18-3.99-1.32,2.06-2.84,3.78-4.65,5.26Zm21.42-1.15l-1.81-2.3c2.96-2.55,4.98-6,6.04-10.36l2.8.49c-.49,1.97-1.15,3.78-1.93,5.43,2.26,1.32,4.32,2.88,6.21,4.6l-1.64,2.51c-1.93-1.93-3.91-3.54-5.88-4.77-1.07,1.69-2.34,3.17-3.78,4.4Z"/><path class="cls-10" d="m401.46,891.44l-.95-3.17c4.03-4.98,6.95-10.69,8.8-17.1l2.75,1.27c-.99,3.17-2.18,6.13-3.62,8.92v27.96h-2.92v-23.11c-1.23,1.81-2.59,3.58-4.07,5.22Zm23.11-14.47c-.62-1.64-1.32-3.21-2.14-4.77l2.84-.78c.86,1.81,1.52,3.45,2.01,4.98l-1.56.58h12.95v2.8h-26.77v-2.8h12.66Zm11.31,32.28h-2.88v-2.22h-15.21v2.22h-2.88v-14.27h20.97v14.27Zm-.74-26.15v2.67h-19.45v-2.67h19.45Zm0,5.8v2.71h-19.45v-2.71h19.45Zm-2.14,15.34v-6.5h-15.21v6.5h15.21Z"/><path class="cls-10" d="m477.36,908.59h-2.88v-1.77h-27.22v1.77h-2.88v-34.58h32.98v34.58Zm-2.88-4.4v-27.55h-27.22v27.55h27.22Zm-5.63-21.17v14.64h-15.87v-14.64h15.87Zm-2.8,2.55h-10.32v9.58h10.32v-9.58Z"/><path class="cls-10" d="m492.82,872c2.38,2.51,4.65,5.18,6.87,7.98l-1.73,1.85c-2.38-3.04-4.44-5.47-6.17-7.28-1.15,1.64-2.34,3.17-3.58,4.6h7.15v2.34h-7.28v-2.18c-1.11,1.23-2.26,2.43-3.5,3.58l-1.56-2.22c2.63-2.47,5.06-5.39,7.24-8.68h2.55Zm5.84,35.2l-2.3,1.03c-.29-.9-.58-1.73-.86-2.51-2.75,1.15-5.88,2.22-9.42,3.12l-.78-2.14c.49-.21.74-.53.74-.95v-21.5h11.31v14.51h-8.59v6.83c2.18-.7,4.15-1.4,5.88-2.14-.41-1.07-.82-2.01-1.23-2.88l2.34-.78c1.11,2.3,2.1,4.77,2.92,7.4Zm-4.03-20.39h-5.88v3.49h5.88v-3.49Zm-5.88,9.42h5.88v-3.58h-5.88v3.58Zm19.41,9.21c-1.97,1.56-4.73,2.8-8.26,3.78l-1.23-2.1c3.58-.9,6.29-2.06,8.14-3.45l1.36,1.77Zm.33-31.66v-2.3h2.67v2.3h7.24v7.32h-7.24v2.18h9.37v2.34h-21.5v-2.34h9.46v-2.18h-7.28v-7.32h7.28Zm9.83,13.77v15.75h-16.98v-15.75h16.98Zm-9.83-11.68h-4.77v3.12h4.77v-3.12Zm7.03,16.36v-2.55h-11.39v2.55h11.39Zm0,4.36v-2.47h-11.39v2.47h11.39Zm0,1.89h-11.39v2.63h11.39v-2.63Zm.37-22.61h-4.73v3.12h4.73v-3.12Zm5.1,31.29l-.9,2.18c-2.8-1.64-5.67-2.88-8.72-3.78l1.03-1.97c2.96.82,5.84,2.01,8.59,3.58Z"/><path class="cls-10" d="m525.92,886.39l-1.89-2.26c3.7-3.21,6.78-7.4,9.17-12.62l2.88.62c-1.07,2.38-2.26,4.56-3.58,6.58v15.75h-2.88v-11.88c-1.15,1.4-2.38,2.67-3.7,3.82Zm5.84,10.73c-.99,3.99-2.34,7.44-4.11,10.36l-2.47-1.6c1.69-2.84,2.92-5.96,3.7-9.33l2.88.58Zm6.78,11.51c-2.47,0-3.7-1.32-3.7-3.95v-8.68h3v8.06c0,1.15.53,1.77,1.6,1.77h9.01c.86,0,1.48-.25,1.85-.74.49-.58.82-2.22.99-4.93l2.8.9c-.29,3.62-.86,5.8-1.69,6.58-.74.66-1.85.99-3.41.99h-10.44Zm6.7-36.55c-.49,1.11-1.03,2.18-1.52,3.17h16.49v1.85c-.53,2.06-1.19,4.07-2.01,6.04l-2.67-.7c.7-1.36,1.27-2.84,1.73-4.48h-15.17c-1.56,2.38-3.33,4.44-5.3,6.25l-1.81-2.22c3.04-2.71,5.55-6.21,7.48-10.53l2.8.62Zm-1.52,12.83c-1.56,3.17-3.37,5.92-5.43,8.22l-2.26-1.56c2.06-2.22,3.82-4.81,5.3-7.77l2.39,1.11Zm4.4,16.16l-2.34,1.6c-1.15-1.89-2.71-4.03-4.69-6.33l2.3-1.44c2.06,2.34,3.66,4.4,4.73,6.17Zm1.48-21.17v14.64h-2.96v-14.64h2.96Zm10.61,12.13l-2.51,1.27c-1.56-3.21-3.25-6-5.1-8.47l2.51-1.07c1.89,2.47,3.62,5.22,5.1,8.26Zm1.97,12.75l-2.47,1.73c-1.48-2.96-3.45-6.21-6-9.74l2.43-1.48c2.63,3.62,4.65,6.78,6.04,9.5Z"/><path class="cls-10" d="m580.27,906.7h-2.88v-2.34h-7.48v3.54h-2.88v-29.23h3.82c.82-2.3,1.4-4.69,1.77-7.15l2.96.41c-.49,2.43-1.11,4.69-1.93,6.74h6.62v28.04Zm-2.88-16.78v-8.47h-7.48v8.47h7.48Zm0,11.68v-9h-7.48v9h7.48Zm23.52,2.43c-.41,3.12-2.3,4.73-5.76,4.73-.82,0-2.22-.08-4.19-.16l-.7-2.71c1.73.08,3.21.12,4.48.12,1.93,0,3.04-1.07,3.37-3.17.25-2.3.41-9.42.49-21.26h-11.31c-1.15,2.59-2.51,4.93-4.11,7.03l-1.77-2.34c2.88-4.03,4.81-8.96,5.88-14.8l2.92.37c-.49,2.43-1.07,4.73-1.81,6.87h13.12c0,13.65-.2,22.12-.62,25.33Zm-6.74-6.87l-2.34,1.64c-1.69-2.71-3.95-5.76-6.78-9.13l2.39-1.48c2.96,3.41,5.18,6.41,6.74,8.96Z"/><path class="cls-10" d="m621.51,906.12c-3.13,1.36-7.57,2.47-13.36,3.29l-1.19-2.06c5.8-.78,10.2-1.77,13.24-2.96l1.32,1.73Zm21.22-26.23h-2.71v-3.78h-29.32v2.01h12.66v2.01h-5.26v2.14h4.44v1.97h-4.44v2.22c2.06-.08,3.86-.21,5.47-.33v2.06c-3.08.29-7.69.53-13.77.7l-.33-2.18,6-.12v-2.34h-4.48v-1.97h4.48v-2.14h-5.22v-.25h-2.3v-6.04h15.87c-.37-.78-.78-1.48-1.19-2.14l2.96-.49c.41.78.82,1.64,1.23,2.63h15.91v6.04Zm-4.4,10.44v14.02h-25.78v-14.02h25.78Zm-2.84,3.95v-2.01h-20.11v2.01h20.11Zm0,3.91v-2.1h-20.11v2.1h20.11Zm0,1.81h-20.11v2.26h20.11v-2.26Zm-9.09-17.76l-1.81-1.32c1.48-1.03,2.47-2.43,2.92-4.19l2.26.37c-.12.49-.25.95-.41,1.36h10.16v1.85h-4.97v2.06h6.95v1.93h-6.95v2.59h3.7v-1.6h2.38v3.37h-14.88v-3.37h2.39v1.6h3.7v-2.59h-7.28v-1.93h7.28v-2.06h-3.45c-.58.74-1.23,1.4-1.97,1.93Zm17.19,25l-.9,2.18c-4.36-1.36-8.92-2.43-13.65-3.17l.86-1.69c4.77.58,9.33,1.48,13.69,2.67Z"/><path class="cls-10" d="m664.97,883.84v-2.18h-11.92v-7.57h11.92v-2.55h2.92v2.55h12.05v7.57h-12.05v2.18h16.24v2.38h-35.32v-2.38h16.16Zm-2.1,21.96c-2.96,1.48-7.2,2.67-12.71,3.58l-1.27-2.18c5.51-.86,9.7-1.97,12.5-3.33l1.48,1.93Zm16.41-17.6v15.5h-25.45v-15.5h25.45Zm-14.31-11.84h-9.13v3.12h9.13v-3.12Zm11.51,16.49v-2.47h-19.82v2.47h19.82Zm0,4.23v-2.34h-19.82v2.34h19.82Zm0,1.93h-19.82v2.47h19.82v-2.47Zm.66-22.65h-9.25v3.12h9.25v-3.12Zm6.91,30.84l-.95,2.26c-4.19-1.48-8.55-2.63-13.07-3.45l1.03-1.93c4.52.7,8.84,1.73,12.99,3.12Z"/><path class="cls-10" d="m726.15,905.38l-.49,2.84h-12.17c-7.4,0-12.71-1.07-15.91-3.21-.53-.41-.99-.78-1.4-1.19-1.32,1.93-2.96,3.62-4.85,5.06l-1.93-2.51c1.93-1.4,3.54-3.04,4.85-4.93-1.6-2.3-2.92-5.22-3.91-8.76l2.47-.9c.82,2.92,1.81,5.3,2.88,7.11,1.4-2.92,2.22-6.33,2.47-10.24h-7.61v-2.3c2.38-3.04,4.6-6.33,6.58-9.87h-6.74v-2.8h10.07v2.43c-2.06,3.78-4.11,7.03-6.09,9.83h6.46v1.77c-.16,5.43-1.27,10.03-3.25,13.81.66.7,1.32,1.23,2.01,1.64,2.8,1.56,7.03,2.34,12.62,2.43,4.52,0,9.17-.08,13.94-.21Zm-12.01-16.98v3.29h9.62v2.43h-9.62v3.41h10.81v2.51h-10.81v4.07h-2.88v-4.07h-9.33v-2.51h9.33v-3.41h-8.06v-2.43h8.06v-3.29h-7.2v-2.47h7.2v-3.29h-9.21v-2.47h9.21v-3.25h-7.2v-2.47h7.2v-3h2.88v3h8.8v5.72h2.75v2.47h-2.75v5.76h-8.8Zm0-8.22h5.92v-3.25h-5.92v3.25Zm0,5.76h5.92v-3.29h-5.92v3.29Z"/><path class="cls-10" d="m738.19,876.23l-1.52.58h5.71v2.71h-12.13v-2.71h5.35c-.58-1.64-1.27-3.17-2.1-4.6l2.8-.82c.82,1.81,1.44,3.41,1.89,4.85Zm-4.24,32.97h-2.71v-14.55h10.36v13.94h-2.67v-1.97h-4.98v2.59Zm7.32-26.44v2.59h-9.7v-2.59h9.7Zm0,5.8v2.63h-9.7v-2.63h9.7Zm-2.34,8.72h-4.98v6.62h4.98v-6.62Zm9.33-3.29v-2.47c-1.32.12-2.71.21-4.15.21l-.74-2.06c4.11-.04,7.56-.53,10.32-1.52l1.07,1.89c-1.15.49-2.47.86-3.91,1.11v2.84h5.76c-.08-1.73-.12-3.62-.12-5.59h2.55c0,2.06.04,3.95.12,5.59h7.24v2.3h-7.07c.16,2.22.45,4.03.78,5.43,1.48-1.32,2.75-2.8,3.74-4.36l1.85,1.4c-1.32,2.1-2.84,3.91-4.65,5.39.78,1.56,1.69,2.34,2.67,2.43.7,0,1.32-1.44,1.85-4.28l2.01,1.4c-.62,2.1-1.19,3.54-1.77,4.32-.62.74-1.32,1.11-2.1,1.11-1.85,0-3.41-1.19-4.73-3.49-1.64,1.03-3.37,1.89-5.26,2.59l-1.03-2.34c1.97-.7,3.7-1.56,5.26-2.55-.58-1.81-.95-4.15-1.19-7.03h-5.92v3.37c1.56-.33,3-.66,4.24-1.03v2.3c-1.19.37-2.59.74-4.24,1.07v3.66c0,2.14-1.15,3.21-3.45,3.21h-3.29l-.53-2.38c.99.08,1.97.16,2.96.16,1.15,0,1.73-.53,1.73-1.6v-2.59c-1.52.21-3.12.41-4.85.62l-.37-2.55c1.89-.12,3.66-.29,5.22-.45v-3.78h-5.06v-2.3h5.06Zm1.07-18.87c-.53-.99-1.15-1.89-1.89-2.75l2.59-.9c.78,1.03,1.48,2.26,2.14,3.66h5.22c.82-1.23,1.56-2.51,2.22-3.87l2.63.9c-.58,1.07-1.19,2.06-1.89,2.96h6.09v2.3h-10.2v2.38h8.51v2.26h-8.51v2.51h10.57v2.3h-23.19v-2.3h9.95v-2.51h-8.39v-2.26h8.39v-2.38h-9.99v-2.3h5.76Zm17.35,15.79l-1.23,1.85c-1.64-1.15-3.37-2.01-5.1-2.63l1.27-1.85c1.85.74,3.54,1.6,5.06,2.63Z"/><path class="cls-10" d="m793.57,886.63c1.03.99,1.56,2.22,1.56,3.7s-.54,2.67-1.56,3.66c-1.07.99-2.3,1.52-3.78,1.52s-2.75-.53-3.78-1.52c-1.07-.99-1.56-2.18-1.56-3.66s.49-2.71,1.56-3.7c1.03-.99,2.3-1.48,3.78-1.48s2.71.49,3.78,1.48Zm-5.96,1.56c-.66.58-.95,1.27-.95,2.14s.29,1.56.95,2.14c.58.58,1.32.86,2.18.86s1.56-.29,2.18-.86c.62-.62.95-1.32.95-2.14s-.33-1.56-.95-2.14c-.62-.58-1.36-.86-2.18-.86-.86,0-1.6.29-2.18.86Z"/><path class="cls-1" d="m666.9,586.74l-3.4,3.4c-2-2.3-4.85-4.75-8.55-7.4l3.5-3.35c3.35,2.45,6.15,4.9,8.45,7.35Zm.2,7.85c-2,6.4-4.3,12.4-6.85,18.05l-4.8-2.15c2.8-5.8,5.2-11.65,7.25-17.65l4.4,1.75Zm1.2-19.95l-3.45,3.45c-2-2.3-4.9-4.7-8.65-7.3l3.55-3.35c3.35,2.4,6.2,4.8,8.55,7.2Zm30.15,32.95h2.45v4.75h-34.4v-4.75h2.65v-16.15h29.3v16.15Zm-1.65-39.15v20.4h-26v-20.4h26Zm-19.2,39.15v-11.75h-3.65v11.75h3.65Zm14.5-34.85h-16.6v11.85h16.6v-11.85Zm-13.15,11l-2.55-3.25c3.15-1.8,5.3-4.25,6.4-7.25l4.2.7c-.4,1.1-.9,2.1-1.4,3.05,2.2,1.3,4.1,2.55,5.7,3.8l-2.95,2.95c-1.25-1.25-2.85-2.55-4.75-3.85-1.35,1.5-2.9,2.8-4.65,3.85Zm6.5,23.85v-11.75h-3.45v11.75h3.45Zm8.2,0v-11.75h-3.8v11.75h3.8Z"/><path class="cls-1" d="m710.75,591.99l-3.7-3.35c1.9-1.65,2.85-3.75,2.9-6.3v-3.8h19.85v7.95h-16.05c-.6,2.05-1.6,3.9-3,5.5Zm17.2.3v-1.2c-3.6,0-7.5.05-11.6.05l-1.1-3.15c11.5,0,21.2-.3,29.15-.9l1.95,3.35c-3.9.2-8.4.4-13.5.55v1.3h20.05v3.8h-16.3c3.2.6,5.65,1.1,7.4,1.55,2.55.6,5.75,1.55,9.65,2.8l-1.6,3.8c-2.05-1-4.1-1.85-6.2-2.65v11.7h-4.9v-1.4h-20.8v1.45h-4.9v-10.5c-1.8.7-3.75,1.35-5.8,1.95l-2.3-3.75c6.3-1.35,11.05-3,14.25-4.95h-13.45v-3.8h20Zm-10.5-23.5v-1.8h4.75v1.8h8.65v3.6h-8.65v1.45h7.45v3.4h-19.9v-3.4h7.7v-1.45h-9.2v-3.6h9.2Zm-3.1,12.7v.85c0,.4-.05.85-.05,1.25h3.75v-2.1h-3.7Zm26.6,23.05v-1.65h-20.8v1.65h20.8Zm0,4.35v-1.65h-20.8v1.65h20.8Zm-19.25-9.1h6.25v-3.7h-1.3c-1.4,1.3-3.05,2.55-4.95,3.7Zm3.7-16.2v-2.1h-3.55v2.1h3.55Zm7.9-7.4l-2.7-2.35c1.45-.9,2.4-1.7,2.85-2.4.4-.8.65-2,.65-3.65h13.7v3.65c0,.45.15.7.45.7h3.7v3.2h-4.9c-2.25,0-3.35-1.05-3.35-3.1v-1h-5.6c0,1.25-.25,2.2-.7,2.9-.5.6-1.55,1.25-3.25,2.05h16v3c-.8,1.65-2.1,3.05-4,4.2,2,.4,4.2.65,6.65.8l-1.95,3.55c-4.05-.35-7.4-1.05-10.1-2.05-2.3.65-4.95,1.15-7.9,1.55l-2.15-3.25c2-.2,3.85-.5,5.45-.8-1.5-1.15-2.6-2.45-3.35-3.9h-1.3v-3.1h1.8Zm-.45,21.55v2.05h8.05c-2.6-.85-5.3-1.55-8.05-2.05Zm8.15-15.85c2.1-.75,3.65-1.6,4.65-2.6h-8.85c1.05,1,2.45,1.9,4.2,2.6Z"/><path class="cls-1" d="m761.75,612.69l-1.15-5.05c1.3.2,2.55.3,3.75.3,1.1,0,1.65-.6,1.65-1.7v-10.05c-1.6.6-3.25,1.2-4.95,1.75l-1.3-5.3c2.1-.5,4.2-1.1,6.25-1.8v-9.9h-5.45v-5.05h5.45v-8.85h5.3v8.85h4.45v5.05h-4.45v7.7c1.2-.6,2.4-1.25,3.6-1.85v5.3l-3.6,1.8v13.7c0,3.4-1.75,5.1-5.15,5.1h-4.4Zm42.9-23.75v4.65h-11.8v4.15h9.55v4.6h-9.55v4.85c1.8.2,3.85.35,6.2.35,2.75,0,5.1-.15,7-.35l-1.45,5.05c-1.9,0-3.65-.05-5.2-.1-6.7-.05-11.25-.65-13.75-1.85-1.7-.85-3.2-2.35-4.6-4.5-1.1,2.6-2.5,5.05-4.25,7.35l-3.9-3.4c3.5-4.4,5.45-9.3,5.85-14.7l4.6.55c-.1,1.8-.35,3.5-.7,5.1,1.5,2.7,3.15,4.45,5.05,5.25,0,0,.05.05.1.05v-12.4h-12v-4.65h28.85Zm-2.95-20.55v18.25h-22.7v-18.25h22.7Zm-5.1,7.15v-2.95h-12.55v2.95h12.55Zm0,3.9h-12.55v3h12.55v-3Z"/><path class="cls-1" d="m835.2,600.74l-2.6-3.4v15.45h-4.05v-2.25h-10.6v2.3h-4.1v-35.15h4.45v-4.7h-5.7v-4.5h20.85v4.5h-5.3v4.7h4.45v18.75c2-2.6,3.35-5.7,4.1-9.4l4.5.55c-.2,1.05-.45,2.05-.75,3.05h3.6v-3.3h5.05v3.3h8v4.55h-8v3.8h6.9v4.45h-6.9v4h9.25v4.85h-23.95v-4.85h9.65v-4h-7.05v-4.45h7.05v-3.8h-5.3c-1,2-2.15,3.85-3.55,5.55Zm-6.65,5.4v-11.95h-1.9c-1.7,0-2.5-1-2.5-2.95v-9.25h-1.65v2.7c-.05,5.3-1.1,9.2-3.1,11.65l-1.45-1.3v11.1h10.6Zm-8.8-21.45v-2.7h-1.8v11.45c1.15-2.1,1.75-5,1.8-8.75Zm7.65,13.25v4.15h-8.2v-4.15h8.2Zm-3.15-24.95h-2v4.7h2v-4.7Zm2.7,17.45c0,.4.2.6.6.6h1v-9.05h-1.6v8.45Zm29.65-22v17.85h-21.25v-17.85h21.25Zm-4.9,6.95v-2.85h-11.55v2.85h11.55Zm0,4h-11.55v2.8h11.55v-2.8Z"/></g></svg>